<svg width="87" height="88" viewBox="0 0 87 88" fill="none" xmlns="http://www.w3.org/2000/svg">
<g clip-path="url(#clip0_122_5183)">
<rect width="86.6796" height="86.6796" transform="translate(0.167969 0.927734)" fill="white"/>
<path d="M3.3644 54.4318C3.22572 55.3101 2.39937 55.9053 1.5268 55.7667C0.648442 55.628 0.0532419 54.8016 0.191929 53.929C1.30721 46.9542 4.98242 41.3027 10.0792 37.587C15.2857 33.7963 21.9601 32.0453 28.8829 33.0046C29.7612 33.1259 30.3796 33.9407 30.2582 34.8191C30.2466 34.9115 30.2235 35.004 30.1946 35.0907L24.8089 54.5474C24.572 55.4026 23.6879 55.9053 22.8327 55.6684C22.5611 55.5933 22.3241 55.4488 22.1334 55.2639L13.6215 46.8618C12.9858 46.2377 12.9801 45.2206 13.6042 44.5908C14.2283 43.9551 15.2453 43.9493 15.8752 44.5734L22.4397 51.0513L26.6061 36.0095C21.1915 35.6801 16.0543 37.2114 11.9688 40.1874C7.54236 43.4119 4.34099 48.3469 3.37018 54.4376L3.3644 54.4318Z" fill="#475569"/>
<mask id="mask0_122_5183" style="mask-type:luminance" maskUnits="userSpaceOnUse" x="0" y="32" width="31" height="24">
<path d="M3.3644 54.4318C3.22572 55.3101 2.39937 55.9053 1.5268 55.7667C0.648442 55.628 0.0532419 54.8016 0.191929 53.929C1.30721 46.9542 4.98242 41.3027 10.0792 37.587C15.2857 33.7963 21.9601 32.0453 28.8829 33.0046C29.7612 33.1259 30.3796 33.9407 30.2582 34.8191C30.2466 34.9115 30.2235 35.004 30.1946 35.0907L24.8089 54.5474C24.572 55.4026 23.6879 55.9053 22.8327 55.6684C22.5611 55.5933 22.3241 55.4488 22.1334 55.2639L13.6215 46.8618C12.9858 46.2377 12.9801 45.2206 13.6042 44.5908C14.2283 43.9551 15.2453 43.9493 15.8752 44.5734L22.4397 51.0513L26.6061 36.0095C21.1915 35.6801 16.0543 37.2114 11.9688 40.1874C7.54236 43.4119 4.34099 48.3469 3.37018 54.4376L3.3644 54.4318Z" fill="white"/>
</mask>
<g mask="url(#mask0_122_5183)">
<path d="M32.3262 31.6641H-1.50195V56.5873H32.3262V31.6641Z" fill="#475569"/>
</g>
<path d="M78.5054 47.5962H80.4181C80.2448 48.5612 80.6435 49.2893 81.857 49.2893C82.8625 49.2893 83.9084 48.3243 83.9027 47.4633C83.8853 45.5563 79.9501 46.4173 79.9096 43.9961C79.9096 43.736 79.9501 43.4587 80.0425 43.1582C80.291 42.3492 80.7244 41.6095 81.5797 41.0374C83.8564 39.5118 87.3294 40.0608 86.7862 43.083H84.9082C84.9486 42.719 84.9659 42.3376 84.7868 42.1642C83.9778 41.4015 82.3482 41.806 81.9322 43.083C81.3659 44.834 86.0928 44.2734 86.0061 46.7294C85.9368 48.7346 84.0991 50.8149 81.3312 50.7975C80.2275 50.7918 79.43 50.5086 78.9388 49.8845C78.4476 49.2604 78.3147 48.6825 78.4996 47.6019L78.5054 47.5962Z" fill="#475569"/>
<path d="M73.4261 50.5441L73.7555 49.319C73.1487 49.7987 72.5131 50.157 71.8601 50.3997C71.2013 50.6424 70.5426 50.7637 69.8723 50.7637C68.3062 50.7637 67.139 50.261 66.3704 49.2613C65.6018 48.2616 65.4227 47.0018 65.8272 45.4936C66.0179 44.7886 66.3242 44.1241 66.7518 43.4942C67.1794 42.8643 67.6995 42.3096 68.3062 41.8299C68.9708 41.3041 69.6469 40.9169 70.3403 40.6626C71.028 40.4142 71.7734 40.2812 72.5709 40.2812C73.2817 40.2812 73.9058 40.4026 74.4432 40.6453C74.9748 40.888 75.4255 41.2521 75.7838 41.749L76.1074 40.5413H78.0086L75.3273 50.5383H73.4261V50.5441ZM67.7746 45.482C67.503 46.4991 67.6244 47.3428 68.1387 48.0304C68.653 48.7181 69.4157 49.059 70.427 49.059C71.3516 49.059 72.2531 48.7123 73.1487 48.0246C74.0387 47.337 74.605 46.5337 74.8535 45.6149C75.1193 44.6326 74.9979 43.7889 74.4836 43.0897C73.9693 42.3905 73.2354 42.0437 72.2762 42.0437C71.3169 42.0437 70.3577 42.3731 69.4793 43.0434C68.6067 43.708 68.0346 44.5286 67.7746 45.4878V45.482Z" fill="#475569"/>
<path d="M55.193 46.204C55.1295 47.0419 55.3375 47.718 55.8287 48.238C56.3199 48.7581 56.996 49.0182 57.8627 49.0182C58.4811 49.0182 59.0878 48.8737 59.6715 48.5905C60.2551 48.3074 60.7694 47.9029 61.2144 47.3828H63.3293C62.555 48.4923 61.6535 49.3418 60.6307 49.9254C59.6079 50.509 58.5273 50.8038 57.3831 50.8038C56.6088 50.8038 55.9442 50.6708 55.3722 50.4108C54.8058 50.1508 54.332 49.7578 53.9506 49.2377C53.5981 48.7466 53.367 48.1745 53.2687 47.5273C53.1705 46.8743 53.2109 46.2097 53.3959 45.5336C53.5866 44.8344 53.887 44.1756 54.3031 43.5631C54.7192 42.9506 55.2335 42.3958 55.8576 41.8931C56.5221 41.3499 57.2155 40.9396 57.9437 40.6622C58.666 40.3849 59.4172 40.252 60.1858 40.252C61.1046 40.252 61.8962 40.4542 62.5781 40.8645C63.2542 41.269 63.7512 41.8411 64.069 42.575C64.2482 43.0257 64.3406 43.5284 64.3406 44.0716C64.3406 44.609 64.2481 45.2331 64.0575 45.9266L63.9823 46.2097H55.1988L55.193 46.204ZM62.347 44.5859C62.3354 43.7654 62.0985 43.1239 61.6478 42.6732C61.197 42.2225 60.5672 41.9971 59.7639 41.9971C58.9607 41.9971 58.169 42.2282 57.4409 42.6905C56.7128 43.1528 56.1292 43.7827 55.6842 44.5859H62.347Z" fill="#475569"/>
<path d="M48.7627 50.5423H46.8789L49.5602 40.5453H51.3862L51.0222 41.9553C52.1086 40.6724 53.3336 40.187 54.4605 40.2448L53.9577 42.1229C52.6575 42.0709 51.889 42.6256 51.4094 43.0417C50.9355 43.4577 50.5021 44.0529 50.2536 44.9717L48.757 50.5366L48.7627 50.5423Z" fill="#475569"/>
<path d="M42.0414 50.5422L42.3707 49.3171C41.764 49.7967 41.1283 50.155 40.4753 50.3977C39.8166 50.6404 39.1578 50.7618 38.4875 50.7618C36.9215 50.7618 35.7542 50.259 34.9856 49.2593C34.2171 48.2596 34.0379 46.9999 34.4424 45.4916C34.6331 44.7866 34.9394 44.1221 35.367 43.4922C35.7946 42.8624 36.3147 42.3076 36.9215 41.828C37.586 41.3021 38.2621 40.9149 38.9556 40.6607C39.6432 40.4122 40.3887 40.2793 41.1861 40.2793C41.8969 40.2793 42.521 40.4007 43.0584 40.6434C43.59 40.8861 44.0408 41.2501 44.399 41.7471L44.7226 40.5393H46.6238L43.9425 50.5364H42.0414V50.5422ZM36.3841 45.4801C36.1125 46.4971 36.2338 47.3408 36.7481 48.0285C37.2624 48.7161 38.0252 49.0571 39.0365 49.0571C39.961 49.0571 40.8625 48.7103 41.7582 48.0227C42.6481 47.335 43.2144 46.5318 43.4629 45.613C43.7287 44.6306 43.6074 43.7869 43.0931 43.0877C42.5788 42.3885 41.8449 42.0418 40.8856 42.0418C39.9264 42.0418 38.9671 42.3712 38.0888 43.0415C37.2162 43.706 36.6441 44.5266 36.3841 45.4859V45.4801Z" fill="#475569"/>
</g>
<defs>
<clipPath id="clip0_122_5183">
<rect width="86.6796" height="86.6796" fill="white" transform="translate(0.167969 0.927734)"/>
</clipPath>
</defs>
</svg>
