<svg width="88" height="88" viewBox="0 0 88 88" fill="none" xmlns="http://www.w3.org/2000/svg">
<g clip-path="url(#clip0_122_5198)">
<rect width="86.6796" height="86.6796" transform="translate(0.847656 0.927734)" fill="white"/>
<path fill-rule="evenodd" clip-rule="evenodd" d="M46.9901 46.3486V44.904H56.0106C56.0568 49.1513 52.9132 52.318 48.5272 52.318C43.8928 52.318 40.6394 48.9606 40.6394 44.2452C40.6394 39.5298 44.0083 36.2187 48.5272 36.2187C51.8731 36.2187 54.6526 38.1198 55.6061 41.171H53.9534C53.0461 38.9577 51.0121 37.6691 48.5272 37.6691C44.8173 37.6691 42.1765 40.4255 42.1765 44.251C42.1765 48.0764 44.7769 50.8329 48.5272 50.8329C51.4917 50.8329 53.728 49.0473 54.2943 46.3544H46.9901V46.3486ZM13.734 37.438C14.9996 36.6347 16.4673 36.2071 17.964 36.2187C22.506 36.2187 25.9212 39.6801 25.9212 44.2683C25.9212 48.8566 22.506 52.318 17.964 52.318C13.422 52.318 10.053 48.9259 10.053 44.2683C10.0473 42.7601 10.4633 41.2808 11.2492 39.9979C11.6653 40.2984 12.0178 40.674 12.2894 41.1074C11.8155 42.0955 11.5786 43.1762 11.5902 44.2741C11.5902 48.0938 14.2599 50.8329 17.964 50.8329C21.6681 50.8329 24.3841 48.0996 24.3841 44.2741C24.3841 40.4486 21.7143 37.6749 17.964 37.6749C16.8487 37.6576 15.7508 37.9349 14.7742 38.4666C14.4679 38.0909 14.1212 37.75 13.734 37.4495V37.438ZM37.3802 47.932C37.5478 47.3079 37.6345 46.6607 37.6287 46.0077V36.5365H39.1658V46.1233C39.1658 46.9149 39.056 47.8857 38.848 48.5214C38.0794 50.8733 36.1552 52.318 33.2658 52.318C30.3765 52.318 28.4291 50.9138 27.6837 48.5676C27.4583 47.7875 27.3485 46.9843 27.3427 46.1695V36.5365H28.8798V46.0077C28.8798 46.6549 28.9608 47.3021 29.1283 47.932C29.6715 49.7869 31.2086 50.8271 33.2427 50.8271C35.2768 50.8271 36.837 49.7869 37.3802 47.932ZM10.8389 49.9429C10.4171 50.1279 9.97791 50.2665 9.52718 50.3474C8.71239 50.4977 7.89182 50.567 7.06548 50.5497H2.38478V37.958H7.06548C7.89182 37.9407 8.71817 38.01 9.52718 38.1603C12.4916 38.7959 14.1154 40.9398 14.1154 44.2625C14.1385 45.3489 13.9189 46.4295 13.4798 47.4292C13.7571 47.8684 14.0981 48.2671 14.4968 48.6023C15.2423 47.383 15.6525 45.8921 15.6525 44.2625C15.6525 40.2406 13.526 37.5709 9.90857 36.7792C9.04755 36.6001 8.1692 36.5192 7.28506 36.5307H0.847656V51.9944H7.29084C8.1692 52.0175 9.04755 51.9366 9.91435 51.769C10.5904 51.6245 11.2434 51.3876 11.856 51.0698C11.4572 50.7462 11.1163 50.3648 10.8389 49.9372V49.9429ZM82.6212 42.9103L84.2508 43.702C85.9266 44.5168 87.5273 45.6263 87.5273 48.088C87.5273 50.5497 85.7648 52.318 83.1182 52.318C80.4716 52.318 78.4606 50.7346 78.2121 47.3194H79.7492C80.0208 49.7811 81.3326 50.8213 83.1413 50.8213C84.8113 50.8213 85.9439 49.7349 85.9439 48.1516C85.9439 46.5682 84.8807 45.6899 83.7076 45.1467L82.0607 44.3781C80.1422 43.4824 78.9171 42.1938 78.9171 40.1713C78.9171 37.958 80.5929 36.2129 83.0084 36.2129C85.1985 36.2129 86.9436 37.5478 87.2152 40.5295H85.7706C85.5221 38.7439 84.6206 37.6113 83.0142 37.6113C81.4077 37.6113 80.46 38.6515 80.46 40.0961C80.46 41.3963 81.2459 42.2285 82.6328 42.8988L82.6212 42.9103ZM70.7981 36.5365L64.8057 52.0001H66.5219L68.3538 47.0941H74.7276L76.5825 52.0001H78.345L72.3295 36.5365H70.7923H70.7981ZM68.8969 45.6494H74.1902L72.4277 40.8994C72.1099 40.0615 71.8152 39.2236 71.5436 38.3914C71.272 39.2293 71.0004 40.0672 70.6825 40.8994L68.8969 45.6494ZM59.0212 36.5365H57.4841V52.0001H63.6788L64.2914 50.5555H59.0212V36.5365Z" fill="#475569"/>
</g>
<defs>
<clipPath id="clip0_122_5198">
<rect width="86.6796" height="86.6796" fill="white" transform="translate(0.847656 0.927734)"/>
</clipPath>
</defs>
</svg>
