<svg width="49" height="49" viewBox="0 0 49 49" fill="none" xmlns="http://www.w3.org/2000/svg">
<g clip-path="url(#clip0_209_20095)">
<path d="M24.8477 48.8672C38.1025 48.8672 48.8477 38.122 48.8477 24.8672C48.8477 11.6124 38.1025 0.867188 24.8477 0.867188C11.5928 0.867188 0.847656 11.6124 0.847656 24.8672C0.847656 38.122 11.5928 48.8672 24.8477 48.8672Z" fill="#F0F0F0"/>
<path d="M48.8475 24.8666C48.8475 14.5474 42.3345 5.75041 33.1953 2.35938V47.3739C42.3345 43.9828 48.8475 35.1857 48.8475 24.8666Z" fill="#D80027"/>
<path d="M0.847656 24.8666C0.847656 35.1857 7.36075 43.9828 16.4999 47.3738V2.35938C7.36075 5.75041 0.847656 14.5474 0.847656 24.8666Z" fill="#0052B4"/>
</g>
<defs>
<clipPath id="clip0_209_20095">
<rect width="48" height="48" fill="white" transform="translate(0.847656 0.867188)"/>
</clipPath>
</defs>
</svg>