<svg width="30" height="30" viewBox="0 0 30 30" fill="none" xmlns="http://www.w3.org/2000/svg">
<path d="M6.75683 22.4521C6.75683 23.583 7.68119 24.5 8.82105 24.5C9.96092 24.5 10.8853 23.583 10.8853 22.4521V14.1477H12.1421L8.82105 11.2988L5.5 14.1477H6.75683V22.4521Z" fill="white"/>
<path d="M12.7793 22.4523C12.7793 23.5832 13.7036 24.5002 14.8435 24.5002C15.9834 24.5002 16.9077 23.5832 16.9077 22.4523V11.3157H18.1646L14.8435 8.4668L11.5225 11.3157H12.7793V22.4523Z" fill="white"/>
<path d="M17.3574 8.3489H18.6143V22.4521C18.6143 23.583 19.5386 24.5 20.6785 24.5C21.8183 24.5 22.7427 23.583 22.7427 22.4521V8.3489H23.9995L20.679 5.5L17.358 8.3489H17.3574Z" fill="white"/>
</svg>
