<svg width="1441" height="988" viewBox="0 0 1441 988" fill="none" xmlns="http://www.w3.org/2000/svg">
<path d="M81.0221 987.833L81.0212 438.611C81.0212 409.722 103.739 382.175 143.6 362.755L455.272 210.882C487.335 195.271 505.606 173.088 505.606 149.833V0.132812H480.535V146.829C480.535 171.801 459.429 195.459 423.144 211.097L72.1595 362.486C27.0781 381.933 0.847656 411.305 0.847656 442.366L0.848628 987.833" fill="url(#paint0_linear_628_7560)"/>
<path d="M178.278 987.833L178.277 433.675C178.277 407.71 196.645 382.711 229.674 363.72L497.07 210.104C523.655 194.842 538.446 174.724 538.446 153.829V45.8125H513.15L513.343 150.315C513.375 173.276 495.588 195.191 464.234 210.802L159.136 362.808C120.209 382.201 98.1035 409.4 98.1035 437.913L98.1045 987.806" fill="url(#paint1_linear_628_7560)"/>
<path d="M195.29 987.834L195.289 432.951C195.289 407.416 213.045 382.792 245.107 363.935L506.606 209.971C532.385 194.789 546.693 174.966 546.693 154.42V57.5078H571.763V158.336C571.763 176.522 560.581 194.172 539.958 208.576L315.034 365.652C289.383 383.57 275.495 405.511 275.495 428.096L275.496 987.861" fill="url(#paint2_linear_628_7560)"/>
<path d="M292.515 987.829L292.514 427.18C292.514 405.131 305.758 383.7 330.248 366.023L548.953 208.249C568.674 194.033 579.308 176.759 579.308 159.029V29.5H604.378V163.482C604.378 178.449 596.773 193.121 582.434 205.943L399.981 368.893C382.129 384.826 372.687 403.066 372.687 421.681L372.688 987.856" fill="url(#paint3_linear_628_7560)"/>
<path d="M389.761 987.836L389.76 420.615C389.76 402.697 398.525 385.074 415.152 369.543L590.935 205.44C604.34 192.94 611.365 178.777 611.365 164.347V13.9492H636.435V169.282C636.435 180.521 632.149 191.652 623.836 201.979L485.562 373.782C475.25 386.603 469.901 400.444 469.901 414.419L469.902 987.809" fill="url(#paint4_linear_628_7560)"/>
<path d="M486.978 987.836L486.977 413.292C486.977 400.069 491.746 386.952 501.026 374.694L632.372 201.282C639.848 191.411 643.682 180.87 643.682 170.221V75.75H668.753V175.666C668.753 182.747 667.045 189.829 663.693 196.669L573.498 380.407C569.309 388.937 567.182 397.708 567.182 406.506L567.183 987.809" fill="url(#paint5_linear_628_7560)"/>
<path d="M584.198 987.831L584.197 405.24C584.197 397.273 585.937 389.334 589.353 381.582L671.492 195.724C674.264 189.501 675.649 183.118 675.649 176.707V66.8125H700.72V182.474C700.72 185.049 700.494 187.624 700.043 190.199L665.273 388.449C664.725 391.641 664.435 394.859 664.435 398.051L664.436 987.831" fill="url(#paint6_linear_628_7560)"/>
<path d="M681.452 987.832L681.451 396.739C681.451 394.405 681.612 392.098 681.902 389.765L707.392 189.128C707.617 187.25 707.746 185.399 707.746 183.522V64.0781H732.816V183.253C732.816 185.319 732.945 187.357 733.235 189.423L761.141 389.443C761.496 391.991 761.657 394.539 761.657 397.087L761.658 987.832" fill="url(#paint7_linear_628_7560)"/>
<path d="M1360.64 987.835V438.612C1360.64 409.723 1337.92 382.176 1298.06 362.756L986.391 210.884C954.328 195.272 936.057 173.09 936.057 149.834V0H961.127V146.803C961.127 171.775 982.234 195.433 1018.52 211.071L1369.54 362.461C1414.62 381.908 1440.85 411.279 1440.85 442.34V987.808" fill="url(#paint8_linear_628_7560)"/>
<path d="M1263.42 987.833V433.674C1263.42 407.709 1245.06 382.71 1212.03 363.72L944.632 210.103C918.047 194.841 903.256 174.724 903.256 153.828V11.9609H928.552L928.358 150.315C928.326 173.275 946.114 195.19 977.468 210.801L1282.57 362.808C1321.49 382.201 1343.6 409.399 1343.6 437.912V987.806" fill="url(#paint9_linear_628_7560)"/>
<path d="M1166.17 987.838V428.074C1166.17 405.489 1152.28 383.548 1126.63 365.63L901.706 208.553C881.082 194.149 869.9 176.473 869.9 158.314V20.7109H894.971V154.397C894.971 174.944 909.278 194.766 935.057 209.948L1196.56 363.913C1228.62 382.796 1246.37 407.393 1246.37 432.929V987.811" fill="url(#paint10_linear_628_7560)"/>
<path d="M1068.95 987.831V421.656C1068.95 403.068 1059.5 384.801 1041.68 368.868L859.232 205.918C844.86 193.096 837.287 178.424 837.287 163.457V34.625H862.357V159.031C862.357 176.761 873.024 194.035 892.713 208.251L1111.42 366.025C1135.94 383.701 1149.15 405.16 1149.15 427.182V987.831" fill="url(#paint11_linear_628_7560)"/>
<path d="M1051.94 987.832V420.611C1051.94 402.693 1043.17 385.07 1026.54 369.54L850.76 205.436C837.355 192.936 830.33 178.774 830.33 164.343V44.9531H805.26V169.278C805.26 180.517 809.546 191.649 817.859 201.976L956.133 373.778C966.445 386.599 971.794 400.44 971.794 414.415V987.805" fill="url(#paint12_linear_628_7560)"/>
<path d="M874.516 987.832V406.529C874.516 397.731 872.389 388.933 868.2 380.43L778.004 196.691C774.653 189.825 772.945 182.77 772.945 175.689V65.0703H799.24L798.177 170.029C798.08 180.812 801.915 191.541 809.487 201.52L940.672 374.717C949.952 386.975 954.721 400.064 954.721 413.315V987.859" fill="url(#paint13_linear_628_7560)"/>
<path d="M777.265 987.832V398.053C777.265 394.834 776.975 391.642 776.427 388.45L741.657 190.201C741.206 187.626 740.98 185.051 740.98 182.476V54.4219H766.051V176.682C766.051 183.092 767.436 189.476 770.208 195.699L852.347 381.557C855.763 389.309 857.503 397.248 857.503 405.215L857.503 987.806" fill="url(#paint14_linear_628_7560)"/>
<defs>
<linearGradient id="paint0_linear_628_7560" x1="403.985" y1="721.296" x2="403.985" y2="0.132772" gradientUnits="userSpaceOnUse">
<stop stop-color="#000D1B" stop-opacity="0"/>
<stop offset="1" stop-color="#000D1B"/>
</linearGradient>
<linearGradient id="paint1_linear_628_7560" x1="538.446" y1="724.169" x2="538.446" y2="6.00531" gradientUnits="userSpaceOnUse">
<stop stop-color="#000D1B" stop-opacity="0"/>
<stop offset="1" stop-color="#000D1B"/>
</linearGradient>
<linearGradient id="paint2_linear_628_7560" x1="571.763" y1="724.171" x2="571.763" y2="-8.35685" gradientUnits="userSpaceOnUse">
<stop stop-color="#000D1B" stop-opacity="0"/>
<stop offset="1" stop-color="#000D1B"/>
</linearGradient>
<linearGradient id="paint3_linear_628_7560" x1="536.687" y1="724.169" x2="539.051" y2="-8.36164" gradientUnits="userSpaceOnUse">
<stop stop-color="#000D1B" stop-opacity="0"/>
<stop offset="1" stop-color="#000D1B"/>
</linearGradient>
<linearGradient id="paint4_linear_628_7560" x1="636.435" y1="735.662" x2="636.435" y2="-14.1012" gradientUnits="userSpaceOnUse">
<stop stop-color="#000D1B" stop-opacity="0"/>
<stop offset="1" stop-color="#000D1B"/>
</linearGradient>
<linearGradient id="paint5_linear_628_7560" x1="627.481" y1="727.045" x2="627.481" y2="-2.60961" gradientUnits="userSpaceOnUse">
<stop stop-color="#000D1B" stop-opacity="0"/>
<stop offset="1" stop-color="#000D1B"/>
</linearGradient>
<linearGradient id="paint6_linear_628_7560" x1="642.458" y1="724.165" x2="655.955" y2="5.87996" gradientUnits="userSpaceOnUse">
<stop stop-color="#000D1B" stop-opacity="0"/>
<stop offset="1" stop-color="#000D1B"/>
</linearGradient>
<linearGradient id="paint7_linear_628_7560" x1="681.451" y1="724.172" x2="681.451" y2="0.26299" gradientUnits="userSpaceOnUse">
<stop stop-color="#000D1B" stop-opacity="0"/>
<stop offset="1" stop-color="#000D1B"/>
</linearGradient>
<linearGradient id="paint8_linear_628_7560" x1="955.742" y1="724.173" x2="942.419" y2="-0.117028" gradientUnits="userSpaceOnUse">
<stop stop-color="#000D1B" stop-opacity="0"/>
<stop offset="1" stop-color="#000D1B"/>
</linearGradient>
<linearGradient id="paint9_linear_628_7560" x1="903.256" y1="729.914" x2="903.256" y2="-2.61367" gradientUnits="userSpaceOnUse">
<stop stop-color="#000D1B" stop-opacity="0"/>
<stop offset="1" stop-color="#000D1B"/>
</linearGradient>
<linearGradient id="paint10_linear_628_7560" x1="869.9" y1="724.173" x2="869.9" y2="-8.35409" gradientUnits="userSpaceOnUse">
<stop stop-color="#000D1B" stop-opacity="0"/>
<stop offset="1" stop-color="#000D1B"/>
</linearGradient>
<linearGradient id="paint11_linear_628_7560" x1="837.287" y1="727.044" x2="837.287" y2="-2.61027" gradientUnits="userSpaceOnUse">
<stop stop-color="#000D1B" stop-opacity="0"/>
<stop offset="1" stop-color="#000D1B"/>
</linearGradient>
<linearGradient id="paint12_linear_628_7560" x1="805.26" y1="724.172" x2="805.26" y2="3.135" gradientUnits="userSpaceOnUse">
<stop stop-color="#000D1B" stop-opacity="0"/>
<stop offset="1" stop-color="#000D1B"/>
</linearGradient>
<linearGradient id="paint13_linear_628_7560" x1="772.945" y1="729.914" x2="772.945" y2="0.259397" gradientUnits="userSpaceOnUse">
<stop stop-color="#000D1B" stop-opacity="0"/>
<stop offset="1" stop-color="#000D1B"/>
</linearGradient>
<linearGradient id="paint14_linear_628_7560" x1="740.98" y1="727.044" x2="740.98" y2="-22.7198" gradientUnits="userSpaceOnUse">
<stop stop-color="#000D1B" stop-opacity="0"/>
<stop offset="1" stop-color="#000D1B"/>
</linearGradient>
</defs>
</svg>
