<svg width="1020" height="1111" viewBox="0 0 1020 1111" fill="none" xmlns="http://www.w3.org/2000/svg">
<path d="M951.997 1043.96L1019.24 1043.96L1019.24 1105.55L718.297 1105.55C673.878 1105.55 631.869 1085.4 604.053 1050.8L387.524 781.309C365.139 753.449 331.366 737.241 295.621 737.241L25.8682 737.241L25.8682 718.01L299.957 718.01C333.205 718.01 364.92 732.028 387.261 756.646L604.447 995.91C632.219 1026.49 671.6 1043.96 712.952 1043.96L1019.24 1043.96" fill="url(#paint0_linear_617_7854)"/>
<path d="M1018.96 969.318L705.812 969.318C668.665 969.318 632.92 955.213 605.761 929.849L386.078 724.578C364.263 704.165 335.483 692.819 305.564 692.819L91.1372 692.819L91.1372 712.225L300.57 712.094C333.38 712.094 364.744 725.717 387.085 749.766L604.49 983.993C632.219 1013.87 671.118 1030.82 711.901 1030.82L1018.91 1030.82" fill="url(#paint1_linear_617_7854)"/>
<path d="M1019.15 956.266L704.804 956.266C668.271 956.266 633.051 942.642 606.067 918.024L385.859 717.264C364.131 697.465 335.833 686.469 306.44 686.469L107.871 686.469L107.871 667.239L312.047 667.239C338.023 667.239 363.299 675.825 383.888 691.682L608.52 864.362C634.146 884.031 665.511 894.719 697.839 894.719L1019.15 894.719" fill="url(#paint2_linear_617_7854)"/>
<path d="M1019.37 881.621L696.57 881.621C665.074 881.621 634.367 871.458 609.091 852.622L383.45 684.717C363.125 669.56 338.419 661.412 313.056 661.412L67.8342 661.412L67.8342 642.182L319.407 642.182C340.828 642.182 361.811 648.008 380.165 659.047L613.209 799.136C635.987 812.847 662.095 820.075 688.685 820.075L1019.37 820.075" fill="url(#paint3_linear_617_7854)"/>
<path d="M1019.05 806.977L687.151 806.977C661.525 806.977 636.337 800.274 614.084 787.483L379.376 652.519C361.503 642.225 341.222 636.837 320.589 636.837L45.5805 636.837L45.5805 617.607L327.73 617.607C343.806 617.607 359.707 620.892 374.47 627.288L620.173 733.428C638.528 741.356 658.284 745.43 678.303 745.43L1019.05 745.43" fill="url(#paint4_linear_617_7854)"/>
<path d="M1019.37 732.332L676.682 732.332C657.758 732.332 639.01 728.652 621.488 721.556L373.463 620.716C359.358 614.978 344.289 612.043 329.044 612.043L133.98 612.043L133.98 592.812L336.842 592.812C347.005 592.812 357.08 594.127 366.892 596.711L629.679 665.967C641.857 669.165 654.429 670.786 667.001 670.786L1019.37 670.786" fill="url(#paint5_linear_617_7854)"/>
<path d="M1018.72 657.688L665.161 657.687C653.771 657.687 642.426 656.373 631.343 653.745L365.533 590.709C356.641 588.607 347.485 587.512 338.33 587.512L121.188 587.512L121.188 568.281L346.565 568.281C350.245 568.281 353.925 568.456 357.604 568.807L641.155 595.528C645.711 595.966 650.311 596.185 654.91 596.185L1018.72 596.185" fill="url(#paint6_linear_617_7854)"/>
<path d="M1019.37 583L653.027 583C649.698 583 646.369 582.869 643.04 582.65L356.116 563.069C353.444 562.893 350.772 562.806 348.099 562.806L117.29 562.806L117.29 543.575L347.705 543.575C350.64 543.575 353.575 543.488 356.51 543.225L642.558 521.804C646.194 521.541 649.83 521.41 653.509 521.41L1019.37 521.41" fill="url(#paint7_linear_617_7854)"/>
<path d="M1019.24 -0.00152588L1019.24 61.5886L712.952 61.5886C671.644 61.5886 632.219 79.023 604.447 109.643L387.217 348.907C364.876 373.525 333.161 387.543 299.913 387.543L25.6491 387.543L25.6491 368.312L295.577 368.312C331.322 368.312 365.095 352.105 387.48 324.244L604.009 54.7549C631.825 20.1488 673.834 -0.00155608 718.253 -0.00155219L1019.24 -0.00152588Z" fill="url(#paint8_linear_617_7854)"/>
<path d="M1019.7 136.232L705.813 136.232C668.666 136.232 632.921 150.337 605.762 175.701L386.079 380.972C364.264 401.385 335.484 412.73 305.565 412.73L42.7338 412.73L42.7338 393.325L300.615 393.456C333.425 393.456 364.789 379.833 387.13 355.74L604.535 121.514C632.264 91.6385 671.163 74.6858 711.946 74.6858L1019.7 74.6858" fill="url(#paint9_linear_617_7854)"/>
<path d="M1019.05 210.875L697.84 210.875C665.556 210.875 634.147 221.564 608.521 241.232L383.888 413.912C363.3 429.77 338.024 438.355 312.047 438.355L55.2615 438.355L55.2615 419.125L306.44 419.125C335.834 419.125 364.176 408.13 385.859 388.33L606.068 187.571C633.052 162.952 668.271 149.329 704.805 149.329L1019.05 149.329" fill="url(#paint10_linear_617_7854)"/>
<path d="M1019.05 285.521L688.685 285.521C662.095 285.521 635.987 292.749 613.208 306.46L380.165 446.549C361.81 457.588 340.828 463.414 319.407 463.414L75.1494 463.414L75.1494 444.183L313.055 444.184C338.418 444.184 363.081 435.992 383.45 420.879L609.091 252.974C634.366 234.182 665.03 224.019 696.57 224.019L1019.05 224.019" fill="url(#paint11_linear_617_7854)"/>
<path d="M1019.7 298.576L687.152 298.576C661.526 298.575 636.338 305.278 614.085 318.069L379.377 453.033C361.504 463.327 341.222 468.715 320.59 468.715L89.9119 468.715L89.9119 487.945L327.686 487.945C343.763 487.945 359.664 484.66 374.427 478.264L620.13 372.124C638.484 364.196 658.24 360.122 678.259 360.122L1019.65 360.122" fill="url(#paint12_linear_617_7854)"/>
<path d="M1019.05 434.808L667.001 434.808C654.385 434.808 641.857 436.429 629.679 439.627L366.892 508.883C357.079 511.467 347.004 512.781 336.841 512.781L118.648 512.781L118.648 492.587L328.738 493.419C344.157 493.507 359.489 490.572 373.769 484.746L621.488 384.038C639.01 376.898 657.758 373.262 676.682 373.262L1019.05 373.262" fill="url(#paint13_linear_617_7854)"/>
<path d="M1019.37 509.452L654.911 509.452C650.312 509.452 645.756 509.671 641.156 510.109L357.605 536.83C353.926 537.18 350.246 537.355 346.567 537.355L103.491 537.355L103.491 518.125L338.331 518.125C347.486 518.125 356.642 517.074 365.534 514.927L631.344 451.892C642.427 449.263 653.772 447.949 665.162 447.949L1019.37 447.949" fill="url(#paint14_linear_617_7854)"/>
<defs>
<linearGradient id="paint0_linear_617_7854" x1="933.405" y1="904.355" x2="69.4923" y2="885.061" gradientUnits="userSpaceOnUse">
<stop stop-color="#F6F6F6"/>
<stop offset="0.533654" stop-color="#F9FAFB"/>
</linearGradient>
<linearGradient id="paint1_linear_617_7854" x1="938.787" y1="855.342" x2="131.942" y2="836.045" gradientUnits="userSpaceOnUse">
<stop stop-color="#F6F6F6"/>
<stop offset="0.533654" stop-color="#F9FAFB"/>
</linearGradient>
<linearGradient id="paint2_linear_617_7854" x1="940.41" y1="806.213" x2="148.093" y2="784.447" gradientUnits="userSpaceOnUse">
<stop stop-color="#F6F6F6"/>
<stop offset="0.533654" stop-color="#F9FAFB"/>
</linearGradient>
<linearGradient id="paint3_linear_617_7854" x1="937.152" y1="757.313" x2="110.2" y2="728.679" gradientUnits="userSpaceOnUse">
<stop stop-color="#F6F6F6"/>
<stop offset="0.533654" stop-color="#F9FAFB"/>
</linearGradient>
<linearGradient id="paint4_linear_617_7854" x1="934.933" y1="708.662" x2="89.604" y2="670.801" gradientUnits="userSpaceOnUse">
<stop stop-color="#F6F6F6"/>
<stop offset="0.533654" stop-color="#F9FAFB"/>
</linearGradient>
<linearGradient id="paint5_linear_617_7854" x1="942.868" y1="659.898" x2="174.826" y2="617.432" gradientUnits="userSpaceOnUse">
<stop stop-color="#F6F6F6"/>
<stop offset="0.533654" stop-color="#F9FAFB"/>
</linearGradient>
<linearGradient id="paint6_linear_617_7854" x1="941.17" y1="611.271" x2="166.143" y2="543.482" gradientUnits="userSpaceOnUse">
<stop stop-color="#F6F6F6"/>
<stop offset="0.533654" stop-color="#F9FAFB"/>
</linearGradient>
<linearGradient id="paint7_linear_617_7854" x1="941.425" y1="551.025" x2="169.091" y2="452.464" gradientUnits="userSpaceOnUse">
<stop stop-color="#F6F6F6"/>
<stop offset="0.533654" stop-color="#F9FAFB"/>
</linearGradient>
<linearGradient id="paint8_linear_617_7854" x1="933.386" y1="186.344" x2="69.2831" y2="167.041" gradientUnits="userSpaceOnUse">
<stop stop-color="#F6F6F6"/>
<stop offset="0.533654" stop-color="#F9FAFB"/>
</linearGradient>
<linearGradient id="paint9_linear_617_7854" x1="935.28" y1="237.23" x2="85.7522" y2="215.838" gradientUnits="userSpaceOnUse">
<stop stop-color="#F6F6F6"/>
<stop offset="0.533654" stop-color="#F9FAFB"/>
</linearGradient>
<linearGradient id="paint10_linear_617_7854" x1="935.77" y1="288.303" x2="97.8757" y2="263.959" gradientUnits="userSpaceOnUse">
<stop stop-color="#F6F6F6"/>
<stop offset="0.533654" stop-color="#F9FAFB"/>
</linearGradient>
<linearGradient id="paint11_linear_617_7854" x1="937.488" y1="339.128" x2="117.16" y2="310.947" gradientUnits="userSpaceOnUse">
<stop stop-color="#F6F6F6"/>
<stop offset="0.533654" stop-color="#F9FAFB"/>
</linearGradient>
<linearGradient id="paint12_linear_617_7854" x1="939.356" y1="389.631" x2="131.818" y2="355.085" gradientUnits="userSpaceOnUse">
<stop stop-color="#F6F6F6"/>
<stop offset="0.533654" stop-color="#F9FAFB"/>
</linearGradient>
<linearGradient id="paint13_linear_617_7854" x1="941.247" y1="440.348" x2="160.268" y2="396.434" gradientUnits="userSpaceOnUse">
<stop stop-color="#F6F6F6"/>
<stop offset="0.533654" stop-color="#F9FAFB"/>
</linearGradient>
<linearGradient id="paint14_linear_617_7854" x1="940.233" y1="490.939" x2="149.614" y2="420.372" gradientUnits="userSpaceOnUse">
<stop stop-color="#F6F6F6"/>
<stop offset="0.533654" stop-color="#F9FAFB"/>
</linearGradient>
</defs>
</svg>
