<svg width="1020" height="1111" viewBox="0 0 1020 1111" fill="none" xmlns="http://www.w3.org/2000/svg">
<g clip-path="url(#clip0_617_7898)">
<path d="M68.3933 1046.69L1.15234 1046.69L1.15234 1108.28L302.094 1108.28C346.512 1108.28 388.522 1088.13 416.338 1053.52L632.867 784.035C655.251 756.175 689.025 739.967 724.77 739.967L994.522 739.967L994.522 720.737L720.433 720.737C687.185 720.737 655.47 734.754 633.13 759.373L415.944 998.637C388.171 1029.21 348.79 1046.69 307.438 1046.69L1.15234 1046.69" fill="url(#paint0_linear_617_7898)"/>
<path d="M1.43365 972.044L314.579 972.044C351.726 972.044 387.471 957.939 414.63 932.576L634.313 727.305C656.128 706.892 684.908 695.546 714.827 695.546L929.253 695.546L929.253 714.952L719.821 714.82C687.011 714.82 655.646 728.444 633.306 752.493L415.9 986.719C388.172 1016.59 349.273 1033.55 308.49 1033.55L1.47748 1033.55" fill="url(#paint1_linear_617_7898)"/>
<path d="M1.24015 958.988L315.587 958.988C352.12 958.988 387.339 945.365 414.323 920.746L634.532 719.987C656.259 700.187 684.557 689.192 713.951 689.192L912.52 689.192L912.52 669.962L708.344 669.962C682.367 669.962 657.092 678.547 636.503 694.405L411.87 867.085C386.244 886.754 354.88 897.442 322.552 897.442L1.24014 897.442" fill="url(#paint2_linear_617_7898)"/>
<path d="M1.01953 884.344L323.821 884.344C355.317 884.344 386.024 874.181 411.3 855.345L636.94 687.439C657.266 672.283 681.972 664.135 707.335 664.135L952.556 664.135L952.556 644.905L700.983 644.905C679.563 644.905 658.58 650.731 640.226 661.77L407.182 801.859C384.403 815.57 358.295 822.797 331.706 822.797L1.01953 822.797" fill="url(#paint3_linear_617_7898)"/>
<path d="M1.34375 809.703L333.239 809.703C358.865 809.703 384.053 803.001 406.306 790.21L641.015 655.246C658.887 644.952 679.169 639.564 699.801 639.564L974.81 639.564L974.81 620.333L692.661 620.333C676.584 620.333 660.683 623.619 645.921 630.014L400.217 736.154C381.863 744.083 362.107 748.157 342.088 748.157L1.34374 748.157" fill="url(#paint4_linear_617_7898)"/>
<path d="M1.01945 735.059L343.708 735.059C362.632 735.059 381.381 731.379 398.903 724.282L646.928 623.443C661.033 617.704 676.102 614.77 691.346 614.77L886.411 614.77L886.411 595.539L683.549 595.539C673.386 595.539 663.311 596.853 653.498 599.438L390.711 668.694C378.533 671.891 365.961 673.512 353.389 673.512L1.01945 673.512" fill="url(#paint5_linear_617_7898)"/>
<path d="M1.66797 660.414L355.23 660.414C366.619 660.414 377.965 659.1 389.048 656.472L654.858 593.436C663.75 591.333 672.905 590.238 682.061 590.238L899.203 590.238L899.203 571.008L673.825 571.008C670.146 571.008 666.466 571.183 662.786 571.533L379.235 598.254C374.679 598.693 370.08 598.912 365.48 598.912L1.66796 598.912" fill="url(#paint6_linear_617_7898)"/>
<path d="M1.01953 585.727L367.363 585.727C370.692 585.727 374.022 585.595 377.351 585.376L664.275 565.795C666.947 565.62 669.619 565.532 672.291 565.532L903.101 565.532L903.101 546.302L672.685 546.302C669.75 546.302 666.816 546.214 663.881 545.951L377.833 524.531C374.197 524.268 370.561 524.136 366.881 524.136L1.01953 524.136" fill="url(#paint7_linear_617_7898)"/>
<path d="M1.15231 2.72113L1.15232 64.3112L307.438 64.3112C348.746 64.3112 388.171 81.7457 415.944 112.365L633.174 351.629C655.514 376.248 687.229 390.266 720.477 390.266L994.742 390.266L994.742 371.035L724.814 371.035C689.069 371.035 655.295 354.827 632.911 326.967L416.382 57.4776C388.565 22.8715 346.556 2.7211 302.138 2.7211L1.15231 2.72113Z" fill="url(#paint8_linear_617_7898)"/>
<path d="M0.695288 138.959L314.578 138.959C351.724 138.959 387.47 153.064 414.629 178.427L634.312 383.698C656.127 404.111 684.907 415.457 714.826 415.457L977.657 415.457L977.657 396.051L719.776 396.183C686.966 396.183 655.601 382.559 633.26 358.466L415.855 124.24C388.127 94.365 349.228 77.4124 308.445 77.4124L0.695283 77.4124" fill="url(#paint9_linear_617_7898)"/>
<path d="M1.34373 213.602L322.551 213.602C354.835 213.602 386.243 224.29 411.869 243.959L636.503 416.639C657.091 432.496 682.367 441.082 708.343 441.082L965.129 441.082L965.129 421.851L713.95 421.851C684.557 421.851 656.215 410.856 634.531 391.056L414.322 190.297C387.338 165.679 352.119 152.055 315.586 152.055L1.34372 152.055" fill="url(#paint10_linear_617_7898)"/>
<path d="M1.34376 288.244L331.706 288.244C358.296 288.244 384.403 295.472 407.182 309.183L640.226 449.272C658.58 460.311 679.563 466.137 700.984 466.137L945.241 466.137L945.241 446.906L707.335 446.906C681.972 446.906 657.31 438.715 636.94 423.602L411.3 255.697C386.024 236.904 355.361 226.741 323.821 226.741L1.34376 226.741" fill="url(#paint11_linear_617_7898)"/>
<path d="M0.695351 301.298L333.239 301.298C358.865 301.298 384.053 308 406.306 320.791L641.014 455.755C658.887 466.049 679.168 471.437 699.801 471.437L930.479 471.437L930.479 490.668L692.704 490.668C676.628 490.668 660.726 487.383 645.964 480.987L400.261 374.847C381.906 366.918 362.15 362.844 342.131 362.844L0.739178 362.844" fill="url(#paint12_linear_617_7898)"/>
<path d="M1.34377 437.535L353.389 437.535C366.005 437.535 378.534 439.155 390.711 442.353L653.499 511.609C663.311 514.194 673.386 515.508 683.549 515.508L901.743 515.508L901.743 495.314L691.653 496.146C676.234 496.233 660.902 493.299 646.621 487.472L398.903 386.764C381.381 379.624 362.632 375.988 343.709 375.988L1.34377 375.988" fill="url(#paint13_linear_617_7898)"/>
<path d="M1.01945 512.178L365.479 512.178C370.079 512.178 374.635 512.397 379.234 512.835L662.785 539.556C666.465 539.907 670.144 540.082 673.824 540.082L916.899 540.082L916.899 520.851L682.059 520.851C672.904 520.851 663.749 519.8 654.857 517.654L389.047 454.618C377.964 451.99 366.618 450.676 355.229 450.676L1.01945 450.676" fill="url(#paint14_linear_617_7898)"/>
</g>
<defs>
<linearGradient id="paint0_linear_617_7898" x1="86.9859" y1="907.082" x2="950.898" y2="887.788" gradientUnits="userSpaceOnUse">
<stop stop-color="#F6F6F6"/>
<stop offset="0.533654" stop-color="#F9FAFB"/>
</linearGradient>
<linearGradient id="paint1_linear_617_7898" x1="81.6032" y1="858.069" x2="888.449" y2="838.771" gradientUnits="userSpaceOnUse">
<stop stop-color="#F6F6F6"/>
<stop offset="0.533654" stop-color="#F9FAFB"/>
</linearGradient>
<linearGradient id="paint2_linear_617_7898" x1="79.9807" y1="808.936" x2="872.298" y2="787.17" gradientUnits="userSpaceOnUse">
<stop stop-color="#F6F6F6"/>
<stop offset="0.533654" stop-color="#F9FAFB"/>
</linearGradient>
<linearGradient id="paint3_linear_617_7898" x1="83.2385" y1="760.035" x2="910.191" y2="731.402" gradientUnits="userSpaceOnUse">
<stop stop-color="#F6F6F6"/>
<stop offset="0.533654" stop-color="#F9FAFB"/>
</linearGradient>
<linearGradient id="paint4_linear_617_7898" x1="85.4575" y1="711.389" x2="930.787" y2="673.527" gradientUnits="userSpaceOnUse">
<stop stop-color="#F6F6F6"/>
<stop offset="0.533654" stop-color="#F9FAFB"/>
</linearGradient>
<linearGradient id="paint5_linear_617_7898" x1="77.523" y1="662.625" x2="845.564" y2="620.159" gradientUnits="userSpaceOnUse">
<stop stop-color="#F6F6F6"/>
<stop offset="0.533654" stop-color="#F9FAFB"/>
</linearGradient>
<linearGradient id="paint6_linear_617_7898" x1="79.2208" y1="613.997" x2="854.247" y2="546.208" gradientUnits="userSpaceOnUse">
<stop stop-color="#F6F6F6"/>
<stop offset="0.533654" stop-color="#F9FAFB"/>
</linearGradient>
<linearGradient id="paint7_linear_617_7898" x1="78.9652" y1="553.751" x2="851.299" y2="455.191" gradientUnits="userSpaceOnUse">
<stop stop-color="#F6F6F6"/>
<stop offset="0.533654" stop-color="#F9FAFB"/>
</linearGradient>
<linearGradient id="paint8_linear_617_7898" x1="87.0049" y1="189.066" x2="951.108" y2="169.764" gradientUnits="userSpaceOnUse">
<stop stop-color="#F6F6F6"/>
<stop offset="0.533654" stop-color="#F9FAFB"/>
</linearGradient>
<linearGradient id="paint9_linear_617_7898" x1="85.1111" y1="239.956" x2="934.638" y2="218.565" gradientUnits="userSpaceOnUse">
<stop stop-color="#F6F6F6"/>
<stop offset="0.533654" stop-color="#F9FAFB"/>
</linearGradient>
<linearGradient id="paint10_linear_617_7898" x1="84.621" y1="291.03" x2="922.515" y2="266.686" gradientUnits="userSpaceOnUse">
<stop stop-color="#F6F6F6"/>
<stop offset="0.533654" stop-color="#F9FAFB"/>
</linearGradient>
<linearGradient id="paint11_linear_617_7898" x1="82.9026" y1="341.851" x2="903.231" y2="313.67" gradientUnits="userSpaceOnUse">
<stop stop-color="#F6F6F6"/>
<stop offset="0.533654" stop-color="#F9FAFB"/>
</linearGradient>
<linearGradient id="paint12_linear_617_7898" x1="81.0346" y1="392.354" x2="888.573" y2="357.808" gradientUnits="userSpaceOnUse">
<stop stop-color="#F6F6F6"/>
<stop offset="0.533654" stop-color="#F9FAFB"/>
</linearGradient>
<linearGradient id="paint13_linear_617_7898" x1="79.1441" y1="443.074" x2="860.123" y2="399.16" gradientUnits="userSpaceOnUse">
<stop stop-color="#F6F6F6"/>
<stop offset="0.533654" stop-color="#F9FAFB"/>
</linearGradient>
<linearGradient id="paint14_linear_617_7898" x1="80.1575" y1="493.665" x2="870.777" y2="423.099" gradientUnits="userSpaceOnUse">
<stop stop-color="#F6F6F6"/>
<stop offset="0.533654" stop-color="#F9FAFB"/>
</linearGradient>
<clipPath id="clip0_617_7898">
<rect width="1019" height="1111" fill="white" transform="translate(0.695312)"/>
</clipPath>
</defs>
</svg>
