<svg width="87" height="88" viewBox="0 0 87 88" fill="none" xmlns="http://www.w3.org/2000/svg">
<rect width="86.6796" height="86.6796" transform="translate(0.128906 0.927734)" fill="white"/>
<path d="M9.53585 36.837H12.4078L14.8984 41.5466H18.5274L15.4647 36.2707C15.8866 36.0742 16.2622 35.8373 16.5974 35.5426C17.5797 34.6816 18.0767 33.497 18.0767 31.9945C18.0767 30.4921 17.5855 29.267 16.5974 28.4118C15.615 27.5565 14.2512 27.1289 12.5061 27.1289H6.37493V41.5408H9.53007V36.8312L9.53585 36.837ZM12.5985 29.9258C13.3209 29.9258 13.8814 30.1107 14.2801 30.4747C14.6788 30.8446 14.8753 31.3647 14.8753 32.0408C14.8753 32.7169 14.6788 33.1965 14.2801 33.5721C13.8814 33.9477 13.3209 34.1326 12.5985 34.1326H9.53585V29.92H12.5985V29.9258ZM30.2985 37.7616H27.2301C27.1549 38.0332 27.0162 38.2759 26.814 38.4955C26.6117 38.7151 26.3575 38.8827 26.0454 39.004C25.7392 39.1254 25.3578 39.1832 24.907 39.1832C24.3523 39.1832 23.8496 39.0676 23.3988 38.8422C22.9481 38.6168 22.5956 38.2643 22.3413 37.7847C22.1911 37.4958 22.0813 37.1606 22.0235 36.7735H30.3447C30.3621 36.6232 30.391 36.3458 30.391 35.872C30.391 34.67 30.1483 33.6414 29.6686 32.7746C29.189 31.9136 28.5245 31.2433 27.6866 30.7695C26.8429 30.2956 25.8779 30.0587 24.7799 30.0587C23.682 30.0587 22.6534 30.3014 21.7808 30.7926C20.9082 31.278 20.2263 31.9656 19.7294 32.844C19.2324 33.7223 18.9839 34.7452 18.9839 35.9182C18.9839 37.0913 19.2382 38.1141 19.7525 38.9925C20.261 39.8708 20.966 40.5527 21.8617 41.0439C22.7574 41.5293 23.7744 41.7778 24.9186 41.7778C25.8779 41.7778 26.7389 41.6102 27.5016 41.2692C28.2587 40.9283 28.8885 40.4602 29.3855 39.8593C29.8825 39.2583 30.1887 38.5591 30.3101 37.7616H30.2985ZM23.3179 32.8844C23.7282 32.6822 24.1847 32.5782 24.6817 32.5782C25.1786 32.5782 25.6063 32.6706 26.0108 32.8613C26.4153 33.052 26.7446 33.3409 27.0047 33.7281C27.178 33.9997 27.2936 34.3233 27.3514 34.6989H22.0639C22.1275 34.3984 22.2142 34.1326 22.3298 33.913C22.5782 33.4334 22.9076 33.0925 23.3237 32.8902L23.3179 32.8844ZM34.9561 41.5466H31.8703V30.284H34.0546L34.6325 31.4398C34.9388 31.0988 35.3086 30.8099 35.742 30.573C36.3892 30.2263 37.1289 30.0529 37.9726 30.0529C38.8914 30.0529 39.7062 30.2436 40.4169 30.6134C41.1335 30.989 41.6998 31.5322 42.1216 32.2372C42.5435 32.9422 42.7515 33.7859 42.7515 34.7625V41.5408H39.6657V35.2363C39.6657 34.7278 39.5675 34.2886 39.371 33.9188C39.1745 33.549 38.9029 33.2716 38.5504 33.0751C38.1979 32.8787 37.7876 32.7804 37.3196 32.7804C36.5972 32.7804 36.0252 32.9942 35.5975 33.4218C35.1699 33.8495 34.9561 34.4562 34.9561 35.2363V41.5408V41.5466ZM55.817 30.284H53.6327L53.0548 31.4456C52.8121 31.1971 52.5405 30.9833 52.2516 30.7926C51.4946 30.3072 50.6105 30.0587 49.605 30.0587C48.5995 30.0587 47.698 30.3014 46.8543 30.7926C46.0107 31.278 45.3345 31.9656 44.8145 32.844C44.2944 33.7223 44.0344 34.7452 44.0344 35.9182C44.0344 37.0913 44.2944 38.1141 44.8145 38.9925C45.3345 39.8708 46.0107 40.5527 46.8543 41.0439C47.698 41.5293 48.611 41.7778 49.605 41.7778C50.5989 41.7778 51.4946 41.5351 52.2516 41.0439C52.5463 40.8532 52.8121 40.6394 53.0548 40.3909L53.6327 41.5524H55.817V30.2898V30.284ZM51.535 38.64C51.1016 38.8942 50.6047 39.0214 50.0499 39.0214C49.4952 39.0214 48.9982 38.8942 48.5648 38.64C48.1314 38.3857 47.7847 38.0216 47.5304 37.5594C47.2762 37.0971 47.149 36.5481 47.149 35.9182C47.149 35.2883 47.2762 34.7163 47.5304 34.254C47.7847 33.7917 48.1314 33.4276 48.5648 33.1734C48.9982 32.9191 49.4952 32.792 50.0499 32.792C50.6047 32.792 51.1016 32.9191 51.535 33.1734C51.9684 33.4276 52.3151 33.7917 52.5694 34.254C52.8237 34.722 52.9508 35.2768 52.9508 35.9182C52.9508 36.5597 52.8237 37.0971 52.5694 37.5594C52.3151 38.0274 51.9684 38.3857 51.535 38.64ZM65.2015 30.284H68.2873V36.993C68.2873 37.9523 68.062 38.796 67.6112 39.5183C67.1605 40.2406 66.5364 40.7954 65.7389 41.1826C64.9415 41.5755 64.0169 41.7662 62.9652 41.7662C61.3703 41.7662 60.0874 41.3444 59.1108 40.4949C58.1342 39.6454 57.6431 38.4782 57.6431 36.993V30.284H60.7289V36.6579C60.7289 37.438 60.9311 38.0274 61.3356 38.4262C61.7401 38.8249 62.2833 39.0214 62.9594 39.0214C63.6355 39.0214 64.196 38.8249 64.5948 38.4262C64.9935 38.0274 65.19 37.438 65.19 36.6579V30.284H65.2015ZM70.0498 27.1289H73.1356V41.5408H70.0498V27.1289ZM20.4575 49.683C20.4633 49.9025 20.469 50.1164 20.469 50.3244C20.469 51.7806 20.1454 53.0346 19.4982 54.0863C18.851 55.138 17.9784 55.947 16.8747 56.5075C15.771 57.0681 14.517 57.3512 13.1244 57.3512C12.0438 57.3512 11.0383 57.1663 10.1137 56.8022C9.18913 56.4324 8.3859 55.9123 7.70402 55.2362C7.02214 54.5601 6.48473 53.7742 6.10334 52.8728C5.72195 51.9713 5.53125 50.9889 5.53125 49.9199C5.53125 48.8508 5.71617 47.8685 6.09756 46.967C6.47317 46.0655 6.99903 45.2796 7.67513 44.6151C8.35123 43.9448 9.14868 43.4247 10.0675 43.0491C10.9863 42.6735 11.986 42.4885 13.0666 42.4885C14.4188 42.4885 15.5919 42.7312 16.5916 43.2109C17.5913 43.6905 18.3945 44.3204 19.0013 45.1005C19.608 45.8806 19.9894 46.7243 20.1397 47.62H16.8516C16.7476 47.2617 16.5338 46.9092 16.2102 46.5625C15.8866 46.2158 15.4647 45.9326 14.9504 45.7072C14.4304 45.4819 13.812 45.3663 13.0897 45.3663C12.246 45.3663 11.5006 45.557 10.8476 45.9268C10.1946 46.3024 9.68609 46.8283 9.31626 47.5044C8.94643 48.1805 8.76151 48.9837 8.76151 49.9141C8.76151 50.8445 8.94643 51.6535 9.32782 52.3469C9.70343 53.0403 10.2235 53.572 10.8938 53.9476C11.5642 54.3232 12.3269 54.5081 13.1822 54.5081C13.9796 54.5081 14.6731 54.3868 15.2683 54.1383C15.8635 53.8898 16.3258 53.52 16.6667 53.023C16.921 52.6532 17.0828 52.2198 17.1637 51.717H12.3038V49.0589H20.417C20.4459 49.2553 20.4633 49.4634 20.469 49.6772L20.4575 49.683ZM38.4811 46.3718C37.5623 45.8864 36.5279 45.6379 35.3722 45.6379C34.2164 45.6379 33.1821 45.8806 32.2748 46.3718C31.3676 46.8572 30.651 47.5449 30.1194 48.4232C29.5935 49.3016 29.3277 50.3244 29.3277 51.4974C29.3277 52.6705 29.5935 53.6933 30.1194 54.5717C30.6452 55.45 31.3618 56.1319 32.2748 56.6231C33.1821 57.1085 34.2164 57.357 35.3722 57.357C36.5279 57.357 37.5681 57.1143 38.4811 56.6231C39.3999 56.1377 40.1164 55.45 40.6481 54.5717C41.1739 53.6933 41.4397 52.6705 41.4397 51.4974C41.4397 50.3244 41.1739 49.3016 40.6481 48.4232C40.1222 47.5449 39.3999 46.863 38.4811 46.3718ZM37.9379 53.1386C37.6836 53.6066 37.3311 53.9649 36.8919 54.2192C36.447 54.4734 35.9385 54.6006 35.3722 54.6006C34.8059 54.6006 34.3147 54.4734 33.8755 54.2192C33.4305 53.9649 33.0838 53.6009 32.8296 53.1386C32.5753 52.6763 32.4482 52.1273 32.4482 51.4974C32.4482 50.8676 32.5753 50.2955 32.8296 49.8332C33.0838 49.3709 33.4363 49.0068 33.8755 48.7526C34.3205 48.4983 34.8174 48.3712 35.3722 48.3712C35.9269 48.3712 36.4528 48.4983 36.8919 48.7526C37.3369 49.0068 37.6836 49.3709 37.9379 49.8332C38.1921 50.3013 38.3193 50.856 38.3193 51.4974C38.3193 52.1389 38.1921 52.6763 37.9379 53.1386ZM50.2059 45.8633H53.2917V52.5723C53.2917 53.5315 53.0664 54.3752 52.6156 55.0975C52.1649 55.8199 51.5408 56.3746 50.7434 56.7618C49.9459 57.1547 49.0213 57.3454 47.9696 57.3454C46.3747 57.3454 45.0918 56.9236 44.1153 56.0741C43.1387 55.2247 42.6475 54.0574 42.6475 52.5723V45.8633H45.7333V52.2371C45.7333 53.0172 45.9355 53.6066 46.34 54.0054C46.7445 54.4041 47.2877 54.6006 47.9638 54.6006C48.6399 54.6006 49.2005 54.4041 49.5992 54.0054C49.9979 53.6066 50.1944 53.0172 50.1944 52.2371V45.8633H50.2059ZM64.1787 46.3718C63.335 45.8864 62.4104 45.6379 61.405 45.6379C60.3995 45.6379 59.5327 45.8806 58.7699 46.3718C58.481 46.5567 58.2151 46.7705 57.9667 47.0132L57.3946 45.8633H55.2102V61.402H58.296V56.1839C58.4752 56.3515 58.6717 56.5017 58.8797 56.6347C59.6136 57.1085 60.4573 57.3454 61.405 57.3454C62.4104 57.3454 63.335 57.1027 64.1787 56.6115C65.0224 56.1261 65.6985 55.4385 66.2186 54.5601C66.7386 53.6818 66.9987 52.6589 66.9987 51.4859C66.9987 50.3128 66.7386 49.29 66.2186 48.4116C65.6985 47.5333 65.0224 46.8514 64.1787 46.3602V46.3718ZM63.5026 53.1386C63.2483 53.6066 62.9016 53.9649 62.4682 54.2192C62.0348 54.4734 61.5379 54.6006 60.9831 54.6006C60.4284 54.6006 59.9314 54.4734 59.498 54.2192C59.0646 53.9649 58.7179 53.6009 58.4636 53.1386C58.2094 52.6763 58.0822 52.1273 58.0822 51.4974C58.0822 50.8676 58.2094 50.2955 58.4636 49.8332C58.7179 49.3709 59.0646 49.0068 59.498 48.7526C59.9314 48.4983 60.4284 48.3712 60.9831 48.3712C61.5379 48.3712 62.0348 48.4983 62.4682 48.7526C62.9016 49.0068 63.2483 49.3709 63.5026 49.8332C63.7569 50.3013 63.884 50.856 63.884 51.4974C63.884 52.1273 63.7569 52.6763 63.5026 53.1386ZM24.803 47.4755C25.8547 46.5625 27.1896 45.8517 28.825 45.8517V48.8277C26.8429 48.8277 25.849 49.6945 25.352 50.5093C25.0111 51.0698 24.855 51.717 24.855 52.3758V57.1258H21.7692V45.8633H24.3234L24.8088 47.4755H24.803ZM81.4106 38.7093V41.5466H79.4517C78.3711 41.5466 77.4927 41.4022 76.8166 41.1074C76.1405 40.8127 75.6435 40.3562 75.3315 39.7321C75.0137 39.108 74.8576 38.3164 74.8576 37.3571V27.1347H77.9434V30.2898H81.4164V32.8555H77.9434V37.1144C77.9434 37.6692 78.0706 38.0737 78.3248 38.3337C78.5791 38.588 78.9836 38.7151 79.5441 38.7151H81.4164L81.4106 38.7093Z" fill="#475569"/>
</svg>
