<svg width="448" height="496" viewBox="0 0 448 496" fill="none" xmlns="http://www.w3.org/2000/svg">
<g filter="url(#filter0_d_617_7951)">
<g clip-path="url(#clip0_617_7951)">
<path d="M197.559 180.272L194.21 180.272C188.064 180.272 182.586 184.475 180.534 190.769L119.422 377.828C117.963 382.278 114.096 385.249 109.753 385.249L20.7043 385.249L20.7043 389.981L109.883 389.98C114.161 389.98 117.996 387.092 119.497 382.736L180.437 205.669C181.236 203.356 183.343 201.337 185.665 199.716C189.76 196.863 194.556 195.419 199.417 195.419L427.316 195.419L427.316 180.272L197.549 180.272L197.559 180.272Z" fill="url(#paint0_linear_617_7951)"/>
<path d="M194.027 213.783L193.8 213.783C187.858 213.783 182.522 217.716 180.318 223.716L119.573 389.158C118.017 393.397 114.236 396.18 110.045 396.18L35.4935 396.18L35.4935 391.401L109.904 391.436C114.171 391.436 117.996 388.559 119.508 384.215L180.415 208.851C182.543 202.71 187.956 198.647 193.994 198.647L427.316 198.647L427.316 213.794L194.027 213.794L194.027 213.783Z" fill="url(#paint1_linear_617_7951)"/>
<path d="M194.027 232.138L193.541 232.138C187.729 232.138 182.478 235.907 180.199 241.72L119.659 395.702C118.05 399.811 114.333 402.477 110.217 402.477L39.2529 402.477L39.2529 397.745L110.055 397.745C114.247 397.745 118.006 394.974 119.573 390.758L180.285 226.89C182.5 220.913 187.826 217.003 193.746 217.003L427.316 217.003L427.316 232.15L194.027 232.15L194.027 232.138Z" fill="url(#paint2_linear_617_7951)"/>
<path d="M194.024 250.502L193.257 250.502C187.596 250.502 182.443 254.083 180.077 259.684L119.754 402.147C118.079 406.104 114.438 408.641 110.431 408.641L30.2079 408.641L30.2079 403.909L110.258 403.909C114.352 403.909 118.057 401.267 119.678 397.181L180.185 244.889C182.475 239.112 187.715 235.367 193.505 235.367L427.324 235.367L427.324 250.514L194.024 250.514L194.024 250.502Z" fill="url(#paint3_linear_617_7951)"/>
<path d="M194.027 268.862L192.936 268.862C187.437 268.862 182.403 272.244 179.951 277.586L119.832 408.507C118.093 412.288 114.539 414.684 110.65 414.684L25.1767 414.684L25.1767 409.952L110.455 409.952C114.441 409.952 118.071 407.439 119.756 403.505L180.048 262.827C182.435 257.273 187.567 253.715 193.206 253.715L427.316 253.715L427.316 268.862L194.027 268.862Z" fill="url(#paint4_linear_617_7951)"/>
<path d="M194.024 287.218L192.576 287.218C187.261 287.218 182.378 290.377 179.829 295.449L119.905 414.969C118.111 418.55 114.655 420.781 110.895 420.781L45.17 420.781L45.17 416.049L110.679 416.049C114.547 416.049 118.09 413.677 119.84 409.932L179.926 280.737C182.4 275.429 187.402 272.083 192.879 272.083L427.324 272.083L427.324 287.23L194.035 287.23L194.024 287.218Z" fill="url(#paint5_linear_617_7951)"/>
<path d="M194.024 305.582L192.176 305.582C187.077 305.582 182.357 308.494 179.731 313.238L119.991 421.403C118.133 424.762 114.795 426.816 111.187 426.816L42.2748 426.816L42.2748 422.084L110.938 422.084C114.676 422.084 118.111 419.877 119.916 416.331L179.807 298.584C182.357 293.559 187.229 290.447 192.511 290.447L427.324 290.447L427.324 305.594L194.024 305.594L194.024 305.582Z" fill="url(#paint6_linear_617_7951)"/>
<path d="M194.027 323.942L191.715 323.942C186.864 323.942 182.338 326.573 179.648 330.952L120.037 427.916C118.136 431.016 114.928 432.871 111.503 432.871L41.392 432.871L41.392 428.139L111.233 428.139C114.809 428.139 118.136 426.108 119.994 422.797L179.713 316.357C182.349 311.66 187.048 308.795 192.104 308.795L427.316 308.795L427.316 323.942L194.027 323.942Z" fill="url(#paint7_linear_617_7951)"/>
<path d="M193.368 452.199C187.135 452.199 180.944 453.268 175.014 455.381L118.547 475.448C117.52 475.812 116.44 476 115.36 476L20.6611 476L20.6611 471.268L114.712 471.268C116.224 471.268 117.715 470.904 119.076 470.211L175.003 441.644C180.901 438.626 187.351 437.064 193.865 437.064L427.316 437.064L427.316 452.211L193.368 452.211L193.368 452.199Z" fill="url(#paint8_linear_617_7951)"/>
<path d="M193.865 433.836L188.528 433.836C185.525 433.836 182.565 434.587 179.875 436.031L119.152 468.65C117.736 469.413 116.181 469.801 114.604 469.801L24.5394 469.836L24.5394 465.057L114.009 465.057C115.965 465.057 117.877 464.446 119.53 463.308L179.173 422.012C182.306 419.839 185.946 418.689 189.673 418.689L427.316 418.689L427.316 433.836L193.854 433.836L193.865 433.836Z" fill="url(#paint9_linear_617_7951)"/>
<path d="M193.862 415.468L189.821 415.468C185.997 415.468 182.259 416.689 179.062 418.979L119.559 461.649C117.885 462.846 115.918 463.492 113.909 463.492L27.3559 463.492L27.3559 458.76L113.38 458.76C115.713 458.76 117.982 457.891 119.808 456.306L178.597 405.006C182.065 401.977 186.375 400.333 190.826 400.333L427.324 400.333L427.324 415.48L193.862 415.48L193.862 415.468Z" fill="url(#paint10_linear_617_7951)"/>
<path d="M193.862 397.12L190.988 397.12C186.44 397.12 182.033 398.846 178.532 401.993L119.84 454.784C118.003 456.44 115.692 457.344 113.293 457.344L31.8499 457.344L31.8499 452.612L112.829 452.612C115.497 452.612 118.057 451.485 119.98 449.465L178.273 387.973C181.914 384.134 186.797 381.973 191.874 381.973L427.324 381.973L427.324 397.12L193.862 397.12Z" fill="url(#paint11_linear_617_7951)"/>
<path d="M169.439 394.478L119.994 448.033C118.071 450.123 115.468 451.285 112.745 451.285L35.2019 451.285L35.2019 446.553L112.346 446.553C115.306 446.553 118.115 445.168 120.059 442.761L178.125 370.842C181.83 366.251 187.189 363.609 192.806 363.609L427.316 363.609L427.316 378.756L192.028 378.756C186.854 378.756 181.906 380.987 178.244 384.944L169.439 394.478Z" fill="url(#paint12_linear_617_7951)"/>
<path d="M194.027 360.392L192.936 360.392C187.232 360.392 181.819 363.092 178.114 367.801L120.059 441.34C118.115 443.805 115.273 445.226 112.292 445.226L41.7053 445.414L41.7053 440.447L111.924 440.447C115.122 440.447 118.136 438.827 120.081 436.068L179.605 351.444C182.349 347.546 186.616 345.245 191.132 345.245L427.316 345.245L427.316 360.392L194.027 360.392Z" fill="url(#paint13_linear_617_7951)"/>
<path d="M194.027 342.04L191.218 342.04C186.648 342.04 182.349 344.376 179.605 348.357L120.07 434.694C118.136 437.501 115.09 439.156 111.86 439.156L38.27 439.156L38.27 434.424L111.546 434.424C114.949 434.424 118.136 432.593 120.048 429.516L179.637 333.821C182.338 329.488 186.843 326.893 191.661 326.893L427.316 326.893L427.316 342.04L194.027 342.04Z" fill="url(#paint14_linear_617_7951)"/>
</g>
</g>
<defs>
<filter id="filter0_d_617_7951" x="0.666016" y="-20" width="446.666" height="516" filterUnits="userSpaceOnUse" color-interpolation-filters="sRGB">
<feFlood flood-opacity="0" result="BackgroundImageFix"/>
<feColorMatrix in="SourceAlpha" type="matrix" values="0 0 0 0 0 0 0 0 0 0 0 0 0 0 0 0 0 0 127 0" result="hardAlpha"/>
<feMorphology radius="10" operator="erode" in="SourceAlpha" result="effect1_dropShadow_617_7951"/>
<feOffset/>
<feGaussianBlur stdDeviation="15"/>
<feComposite in2="hardAlpha" operator="out"/>
<feColorMatrix type="matrix" values="0 0 0 0 0 0 0 0 0 0 0 0 0 0 0 0 0 0 0.25 0"/>
<feBlend mode="normal" in2="BackgroundImageFix" result="effect1_dropShadow_617_7951"/>
<feBlend mode="normal" in="SourceGraphic" in2="effect1_dropShadow_617_7951" result="shape"/>
</filter>
<linearGradient id="paint0_linear_617_7951" x1="392.182" y1="281.107" x2="38.4854" y2="275.132" gradientUnits="userSpaceOnUse">
<stop stop-color="#F6F6F6"/>
<stop offset="0.533654" stop-color="#F9FAFB"/>
</linearGradient>
<linearGradient id="paint1_linear_617_7951" x1="393.46" y1="293.628" x2="52.6324" y2="287.737" gradientUnits="userSpaceOnUse">
<stop stop-color="#F6F6F6"/>
<stop offset="0.533654" stop-color="#F9FAFB"/>
</linearGradient>
<linearGradient id="paint2_linear_617_7951" x1="393.785" y1="306.185" x2="56.2387" y2="300.032" gradientUnits="userSpaceOnUse">
<stop stop-color="#F6F6F6"/>
<stop offset="0.533654" stop-color="#F9FAFB"/>
</linearGradient>
<linearGradient id="paint3_linear_617_7951" x1="393.011" y1="318.683" x2="47.6128" y2="311.786" gradientUnits="userSpaceOnUse">
<stop stop-color="#F6F6F6"/>
<stop offset="0.533654" stop-color="#F9FAFB"/>
</linearGradient>
<linearGradient id="paint4_linear_617_7951" x1="392.569" y1="331.114" x2="42.828" y2="323.502" gradientUnits="userSpaceOnUse">
<stop stop-color="#F6F6F6"/>
<stop offset="0.533654" stop-color="#F9FAFB"/>
</linearGradient>
<linearGradient id="paint5_linear_617_7951" x1="394.304" y1="343.582" x2="61.9533" y2="336.14" gradientUnits="userSpaceOnUse">
<stop stop-color="#F6F6F6"/>
<stop offset="0.533654" stop-color="#F9FAFB"/>
</linearGradient>
<linearGradient id="paint6_linear_617_7951" x1="394.053" y1="356.018" x2="59.22" y2="347.781" gradientUnits="userSpaceOnUse">
<stop stop-color="#F6F6F6"/>
<stop offset="0.533654" stop-color="#F9FAFB"/>
</linearGradient>
<linearGradient id="paint7_linear_617_7951" x1="393.97" y1="368.455" x2="58.419" y2="359.362" gradientUnits="userSpaceOnUse">
<stop stop-color="#F6F6F6"/>
<stop offset="0.533654" stop-color="#F9FAFB"/>
</linearGradient>
<linearGradient id="paint8_linear_617_7951" x1="392.179" y1="455.786" x2="41.2491" y2="423.852" gradientUnits="userSpaceOnUse">
<stop stop-color="#F6F6F6"/>
<stop offset="0.533654" stop-color="#F9FAFB"/>
</linearGradient>
<linearGradient id="paint9_linear_617_7951" x1="392.514" y1="443.282" x2="43.6948" y2="419.349" gradientUnits="userSpaceOnUse">
<stop stop-color="#F6F6F6"/>
<stop offset="0.533654" stop-color="#F9FAFB"/>
</linearGradient>
<linearGradient id="paint10_linear_617_7951" x1="392.764" y1="430.702" x2="45.8034" y2="411.558" gradientUnits="userSpaceOnUse">
<stop stop-color="#F6F6F6"/>
<stop offset="0.533654" stop-color="#F9FAFB"/>
</linearGradient>
<linearGradient id="paint11_linear_617_7951" x1="393.153" y1="418.214" x2="49.7635" y2="402.515" gradientUnits="userSpaceOnUse">
<stop stop-color="#F6F6F6"/>
<stop offset="0.533654" stop-color="#F9FAFB"/>
</linearGradient>
<linearGradient id="paint12_linear_617_7951" x1="393.435" y1="405.767" x2="52.7689" y2="392.492" gradientUnits="userSpaceOnUse">
<stop stop-color="#F6F6F6"/>
<stop offset="0.533654" stop-color="#F9FAFB"/>
</linearGradient>
<linearGradient id="paint13_linear_617_7951" x1="393.997" y1="393.41" x2="58.8493" y2="382.169" gradientUnits="userSpaceOnUse">
<stop stop-color="#F6F6F6"/>
<stop offset="0.533654" stop-color="#F9FAFB"/>
</linearGradient>
<linearGradient id="paint14_linear_617_7951" x1="393.7" y1="380.873" x2="55.4946" y2="370.661" gradientUnits="userSpaceOnUse">
<stop stop-color="#F6F6F6"/>
<stop offset="0.533654" stop-color="#F9FAFB"/>
</linearGradient>
<clipPath id="clip0_617_7951">
<rect x="20.666" width="406.667" height="476" rx="8" fill="white"/>
</clipPath>
</defs>
</svg>
