<svg width="1" height="2" viewBox="0 0 1 2" fill="none" xmlns="http://www.w3.org/2000/svg">
<path d="M0 0H0.0411624C0.0411624 0 0.0514556 0.0205813 0.0514556 0.027442C0.0720376 0.332742 0.106341 0.51112 0.147505 0.638043C0.185238 0.754674 0.229831 0.82671 0.288147 0.915899C0.288147 0.915899 0.288147 0.92619 0.298438 0.929621C0.380766 1.05654 0.432222 1.17661 0.452804 1.36184C0.452804 1.40301 0.463095 1.45103 0.463095 1.50249C0.473386 1.63284 0.463094 1.79407 0.445942 1.99989H0.40478V1.96901C0.418501 1.78034 0.42536 1.62941 0.42193 1.50935C0.42193 1.45446 0.42193 1.40301 0.411639 1.35841C0.391057 1.1869 0.343033 1.08056 0.267566 0.960494C0.257275 0.950203 0.253845 0.939912 0.246985 0.929621C0.192099 0.843862 0.147504 0.771825 0.109771 0.655194C0.0994797 0.61746 0.0857588 0.572866 0.0754678 0.524841C0.0480251 0.401349 0.0240119 0.236693 0.0102906 0" fill="#475569"/>
</svg>
