<svg width="16" height="12" viewBox="0 0 16 12" fill="none" xmlns="http://www.w3.org/2000/svg">
<path d="M1.6627 11.2941C1.59047 11.7516 1.1601 12.0616 0.705657 11.9893C0.248201 11.9171 -0.0617854 11.4867 0.0104445 11.0323C0.591293 7.39974 2.50538 4.45637 5.15983 2.52122C7.87146 0.546934 11.3475 -0.364968 14.953 0.134622C15.4104 0.197823 15.7325 0.622174 15.6693 1.07963C15.6633 1.12778 15.6512 1.17594 15.6362 1.22108L12.8312 11.3543C12.7078 11.7997 12.2474 12.0616 11.802 11.9382C11.6605 11.8991 11.5371 11.8238 11.4378 11.7275L7.0047 7.35159C6.67365 7.02655 6.67064 6.49687 6.99567 6.16882C7.32071 5.83777 7.85039 5.83476 8.17844 6.15979L11.5973 9.53353L13.7672 1.6996C10.9472 1.52806 8.27173 2.32559 6.14396 3.87553C3.83863 5.55487 2.17132 8.12505 1.66571 11.2971L1.6627 11.2941Z" fill="#454545"/>
</svg>
