<svg width="1" height="2" viewBox="0 0 1 2" fill="none" xmlns="http://www.w3.org/2000/svg">
<path d="M0 0H0.0422649C0.0422649 0 0.0610515 0.0140883 0.0657478 0.0140883C0.0939256 0.300562 0.159673 0.47902 0.230117 0.629302C0.281777 0.73262 0.338132 0.812458 0.399184 0.901688C0.399184 0.901688 0.399184 0.915776 0.413272 0.915776C0.497806 1.04258 0.568249 1.16938 0.610516 1.34784C0.624605 1.3948 0.629303 1.44176 0.638696 1.48872C0.662178 1.62961 0.671568 1.79398 0.662175 2.00062H0.61991L0.601125 1.98653C0.601125 1.79398 0.601124 1.6437 0.582339 1.51221C0.56825 1.45585 0.563554 1.40889 0.549465 1.36192C0.507199 1.19755 0.446147 1.08484 0.36631 0.96274C0.352221 0.948651 0.352221 0.943954 0.347525 0.934562C0.286473 0.845332 0.230118 0.765496 0.183155 0.662177C0.16437 0.624607 0.145583 0.58234 0.126798 0.535377C0.0751391 0.399185 0.0281762 0.234814 0.00939101 0.00469551" fill="#475569"/>
</svg>
