<svg width="1" height="2" viewBox="0 0 1 2" fill="none" xmlns="http://www.w3.org/2000/svg">
<path d="M0.00388063 0H0.0465913C0.0465913 0 0.058242 0.0155316 0.058242 0.0232971C0.0815386 0.32227 0.124248 0.500877 0.178607 0.632891C0.221317 0.745491 0.271793 0.819264 0.330034 0.91245L0.341682 0.924098C0.42322 1.04835 0.481462 1.17259 0.512525 1.35508C0.524173 1.39779 0.524173 1.44439 0.528056 1.49486C0.539704 1.63076 0.539704 1.78995 0.528056 1.99962H0.485345C0.485345 1.99962 0.473698 1.98409 0.473698 1.97633C0.485346 1.78607 0.485346 1.63464 0.473698 1.51039C0.473698 1.45604 0.462048 1.40556 0.454283 1.35897C0.427103 1.18813 0.372743 1.07941 0.295088 0.959043C0.28344 0.947395 0.283441 0.93963 0.275676 0.927982C0.217434 0.842561 0.170839 0.764905 0.128129 0.656188C0.112598 0.61736 0.100952 0.574649 0.0854213 0.528056C0.0504764 0.396042 0.0194138 0.232966 0 0" fill="#475569"/>
</svg>
