<svg width="1" height="2" viewBox="0 0 1 2" fill="none" xmlns="http://www.w3.org/2000/svg">
<path d="M0.715237 0.00415924C0.690286 0.191285 0.640387 0.424151 0.569695 0.586327C0.553062 0.627911 0.532269 0.661178 0.515636 0.694445C0.469894 0.773454 0.415836 0.831669 0.361778 0.889886C0.336827 0.914836 0.316035 0.943946 0.291085 0.968896C0.237026 1.03543 0.187126 1.11028 0.149701 1.22671C0.133067 1.2683 0.120593 1.3182 0.108118 1.37225C0.0873262 1.45958 0.0748502 1.57601 0.0665335 1.70908C0.0665335 1.79641 0.054059 1.89205 0.054059 1.98769C0.054059 1.98769 0.0415844 1.98769 0.0415844 2.00017H0C0 1.90037 1.07895e-06 1.79641 0.0124761 1.70076C0.0249512 1.5677 0.0374249 1.45126 0.0582166 1.35978C0.0706917 1.30988 0.0831668 1.26414 0.0956418 1.22256C0.141384 1.09365 0.195443 1.00632 0.25366 0.935628C0.274451 0.910678 0.295243 0.885728 0.320193 0.860778C0.374252 0.802561 0.424153 0.748504 0.465736 0.673654C0.548903 0.523953 0.619595 0.282768 0.65702 0.00831689H0.711077V0L0.715237 0.00415924Z" fill="#475569"/>
</svg>
