<svg width="1" height="2" viewBox="0 0 1 2" fill="none" xmlns="http://www.w3.org/2000/svg">
<path d="M0.546379 0.0107143C0.546379 0.0464254 0.510669 0.364254 0.460673 0.589234C0.44996 0.632087 0.442817 0.671369 0.432104 0.703509C0.403535 0.796358 0.360682 0.860638 0.310686 0.914205C0.289259 0.939202 0.264262 0.9642 0.242836 0.989198C0.189269 1.04991 0.139274 1.11776 0.103563 1.23561C0.0892781 1.27846 0.0785647 1.32488 0.0714225 1.38202C0.057138 1.46416 0.0499953 1.58915 0.0499953 1.71056V1.99982H0.0107129C0.0107129 1.92126 0 1.81412 0 1.70699C0 1.582 0.0107138 1.45701 0.0214271 1.37131C0.0321405 1.32131 0.0392814 1.27489 0.0535658 1.23561C0.092848 1.10347 0.149986 1.02134 0.207124 0.957058C0.22855 0.93206 0.249977 0.910634 0.271404 0.885636C0.317828 0.83207 0.360682 0.774932 0.389251 0.685654C0.442818 0.496385 0.48567 0.142845 0.499955 0.0178566V0H0.539237L0.549951 0.00714238L0.546379 0.0107143Z" fill="#475569"/>
</svg>
