<svg width="1" height="2" viewBox="0 0 1 2" fill="none" xmlns="http://www.w3.org/2000/svg">
<path d="M0 0.0104734H0.068074C0.0994935 0.288012 0.178044 0.466054 0.261829 0.623152C0.319431 0.722647 0.377033 0.801195 0.445108 0.895454C0.445108 0.895454 0.445107 0.911163 0.460817 0.911163C0.549839 1.03684 0.62315 1.16776 0.680752 1.34056C0.696462 1.38769 0.706935 1.43482 0.717408 1.48195C0.748828 1.62334 0.764538 1.79091 0.759302 2.00037H0.717408C0.717408 2.00037 0.691228 2.00037 0.691228 1.98466C0.691228 1.79091 0.675518 1.63381 0.654572 1.5029C0.638862 1.44529 0.633626 1.39816 0.617916 1.35104C0.570787 1.19394 0.497472 1.0735 0.418924 0.953056C0.418924 0.937347 0.403213 0.932109 0.397977 0.921636C0.335138 0.832614 0.277538 0.754067 0.219935 0.654572C0.198989 0.617916 0.178041 0.570786 0.157095 0.528893C0.0890194 0.392742 0.0366543 0.225173 0.0104714 0" fill="#475569"/>
</svg>
