<svg width="17" height="17" viewBox="0 0 17 17" fill="none" xmlns="http://www.w3.org/2000/svg">
<path d="M10.1809 10.2982C9.04022 10.7322 7.76201 10.733 6.62132 10.2984C6.19156 9.14632 6.19145 7.85412 6.62066 6.70182C7.76105 6.26706 9.04053 6.26699 10.1809 6.70175C10.6105 7.85371 10.6104 9.14621 10.1809 10.2982ZM16.696 7.0832H11.7858L15.2576 3.57469C14.7128 2.80127 14.0401 2.12186 13.2747 1.57125L9.80266 5.07975V0.118051C8.87601 -0.0394704 7.92566 -0.0392304 6.999 0.118051V5.07975L3.52693 1.57125C2.76175 2.12149 2.08886 2.80183 1.54396 3.57469L5.01629 7.0832H0.10618C-0.0150226 8.04766 -0.0544012 8.95407 0.10618 9.91654H5.01636L1.54402 13.425C2.09025 14.1996 2.76039 14.8768 3.52693 15.4288L6.999 11.92V16.882C7.92576 17.0389 8.87584 17.039 9.80259 16.882V11.92L13.275 15.4288C14.0407 14.8776 14.7122 14.1988 15.2576 13.425L11.7853 9.91654H16.696C16.8518 8.98097 16.8518 8.01877 16.696 7.0832Z" fill="white"/>
</svg>
