<svg width="23" height="24" viewBox="0 0 23 24" fill="none" xmlns="http://www.w3.org/2000/svg">
<path d="M8.2975 11.6016C8.2975 11.6016 8.53817 13.8479 9.47562 14.7854C10.4131 15.7228 12.6594 15.9635 12.6594 15.9635C12.6594 15.9635 10.4131 16.2042 9.47562 17.1416C8.53817 18.0791 8.2975 20.3255 8.2975 20.3255C8.2975 20.3255 8.05683 18.0791 7.11937 17.1416C6.18192 16.2042 3.93555 15.9635 3.93555 15.9635C3.93555 15.9635 6.18192 15.7228 7.11937 14.7854C8.05683 13.8479 8.2975 11.6016 8.2975 11.6016Z" fill="#5DC2E4"/>
<path d="M14.9172 0.867188C14.9172 0.867188 15.352 4.92538 17.0455 6.61894C18.7391 8.31249 22.7973 8.74728 22.7973 8.74728C22.7973 8.74728 18.7391 9.18206 17.0455 10.8756C15.352 12.5692 14.9172 16.6274 14.9172 16.6274C14.9172 16.6274 14.4824 12.5692 12.7889 10.8756C11.0953 9.18206 7.03711 8.74728 7.03711 8.74728C7.03711 8.74728 11.0953 8.31249 12.7889 6.61894C14.4824 4.92538 14.9172 0.867188 14.9172 0.867188Z" fill="#5DC2E4"/>
<path d="M19.6299 2.49414C19.6299 2.49414 19.7147 3.28624 20.0453 3.6168C20.3758 3.94735 21.1679 4.03222 21.1679 4.03222C21.1679 4.03222 20.3758 4.11708 20.0453 4.44764C19.7147 4.77819 19.6299 5.57029 19.6299 5.57029C19.6299 5.57029 19.545 4.77819 19.2145 4.44764C18.8839 4.11708 18.0918 4.03222 18.0918 4.03222C18.0918 4.03222 18.8839 3.94735 19.2145 3.6168C19.545 3.28624 19.6299 2.49414 19.6299 2.49414Z" fill="#5DC2E4"/>
<path d="M0.847656 18.9244V8.84979C0.847656 6.56181 2.70243 4.70703 4.99042 4.70703H11.17V5.89068H4.99042C3.35614 5.89068 2.0313 7.21552 2.0313 8.84979V18.9244C2.0313 20.5586 3.35614 21.8835 4.99042 21.8835H15.065C16.6993 21.8835 18.0241 20.5586 18.0241 18.9244V12.237H19.2078V18.9244C19.2078 21.2124 17.353 23.0671 15.065 23.0671H4.99042C2.70243 23.0671 0.847656 21.2124 0.847656 18.9244Z" fill="#5DC2E4"/>
</svg>