<svg width="11" height="12" viewBox="0 0 11 12" fill="none" xmlns="http://www.w3.org/2000/svg">
<path d="M3.73354 5.3796C3.73354 5.3796 3.85415 6.50539 4.32396 6.9752C4.79377 7.44501 5.91956 7.56563 5.91956 7.56563C5.91956 7.56563 4.79377 7.68624 4.32396 8.15605C3.85415 8.62586 3.73354 9.75165 3.73354 9.75165C3.73354 9.75165 3.61292 8.62586 3.14311 8.15605C2.6733 7.68624 1.54752 7.56563 1.54752 7.56563C1.54752 7.56563 2.6733 7.44501 3.14311 6.9752C3.61292 6.50539 3.73354 5.3796 3.73354 5.3796Z" fill="#5DC2E4"/>
<path d="M7.05105 0C7.05105 0 7.26894 2.03379 8.11768 2.88253C8.96642 3.73126 11.0002 3.94916 11.0002 3.94916C11.0002 3.94916 8.96642 4.16706 8.11768 5.01579C7.26894 5.86453 7.05105 7.89832 7.05105 7.89832C7.05105 7.89832 6.83315 5.86453 5.98442 5.01579C5.13568 4.16706 3.10189 3.94916 3.10189 3.94916C3.10189 3.94916 5.13568 3.73126 5.98442 2.88253C6.83315 2.03379 7.05105 0 7.05105 0Z" fill="#5DC2E4"/>
<path d="M9.41284 0.815359C9.41284 0.815359 9.45537 1.21232 9.62103 1.37799C9.78669 1.54365 10.1837 1.58618 10.1837 1.58618C10.1837 1.58618 9.78669 1.62871 9.62103 1.79437C9.45537 1.96003 9.41284 2.35699 9.41284 2.35699C9.41284 2.35699 9.37031 1.96003 9.20464 1.79437C9.03898 1.62871 8.64202 1.58618 8.64202 1.58618C8.64202 1.58618 9.03898 1.54365 9.20464 1.37799C9.37031 1.21232 9.41284 0.815359 9.41284 0.815359Z" fill="#5DC2E4"/>
<path d="M0 9.04948V4.00054C0 2.8539 0.929535 1.92436 2.07617 1.92436H5.17313V2.51756H2.07617C1.25715 2.51756 0.593192 3.18151 0.593192 4.00054V9.04948C0.593192 9.86851 1.25715 10.5325 2.07617 10.5325H7.12512C7.94414 10.5325 8.6081 9.86851 8.6081 9.04948V5.69807H9.20129V9.04948C9.20129 10.1961 8.27175 11.1257 7.12512 11.1257H2.07617C0.929534 11.1257 0 10.1961 0 9.04948Z" fill="#5DC2E4"/>
</svg>
