<svg width="87" height="88" viewBox="0 0 87 88" fill="none" xmlns="http://www.w3.org/2000/svg">
<g clip-path="url(#clip0_122_5712)">
<rect width="86.6796" height="86.6796" transform="translate(0.207031 0.927734)" fill="white"/>
<path d="M9.75391 49.2496V39.2988H11.8342V47.597H14.9547V49.2496H9.75391Z" fill="#475569"/>
<path d="M26.049 39.2988H23.9629V49.2554H26.049V39.2988Z" fill="#475569"/>
<path d="M27.2461 49.2496V39.2988H30.0545L32.7011 46.1927H32.73V39.2988H34.6716V49.2496H31.9326L29.2166 41.9686H29.1877V49.2496H27.2461Z" fill="#475569"/>
<path d="M5.34424 39.2987L0.207031 49.2496H2.47226L3.54131 47.0421H6.43641V49.2496H8.5225V39.293H5.35002L5.34424 39.2987ZM6.43641 45.5339H4.2752L6.34395 41.2173H6.43641V45.5339Z" fill="#475569"/>
<path d="M37.7682 39.3047L32.6367 49.2613H34.8962L35.9652 47.0538H38.8603V49.2613H40.9464V39.3047H37.7739H37.7682ZM38.8603 45.5341H36.6991L38.7679 41.2232H38.8603V45.5341Z" fill="#475569"/>
<path d="M18.1041 39.2988L15.3477 49.2554H17.3933L17.9596 47.048H20.82L21.369 49.2554H23.5591L20.8489 39.2988H18.1041ZM18.3814 45.534L19.3349 41.2173H19.3638L20.3693 45.534H18.3814Z" fill="#475569"/>
<path d="M42.0508 49.2425V39.3379H47.1938V40.8635H44.1195V43.4003H46.8528V44.9258H44.1195V49.2425H42.0508Z" fill="#475569"/>
<path d="M48.043 49.2425V39.3379H53.1802V40.8635H50.1059V43.4003H52.8392V44.9258H50.1059V49.2425H48.043Z" fill="#475569"/>
<path d="M53.9648 49.2425V39.3379H56.0336V47.5956H59.1367V49.2425H53.9648Z" fill="#475569"/>
<path d="M59.9863 49.2425V39.3379H65.3894V40.8635H62.0551V43.302H64.9213V44.8276H62.0551V47.7227H65.4992V49.2425H59.9863Z" fill="#475569"/>
<path d="M66.3555 49.2425V39.3379H68.43V47.5956H71.5274V49.2425H66.3555Z" fill="#475569"/>
<path d="M86.8863 39.3379V46.3532C86.8863 47.8383 86.0484 49.3985 83.5232 49.3985C81.2464 49.3985 80.1484 48.2197 80.1484 46.3532V39.3379H82.2172V46.226C82.2172 47.4511 82.7373 47.925 83.4943 47.925C84.4015 47.925 84.8118 47.3182 84.8118 46.226V39.3379H86.8921H86.8863Z" fill="#475569"/>
<path d="M75.3754 39.1133C72.9773 39.1133 71.4922 40.7891 71.4922 44.2736C71.4922 47.7581 72.9542 49.4224 75.3754 49.4224C77.7967 49.4224 79.2587 47.7408 79.2587 44.2736C79.2587 40.8064 77.7736 39.1133 75.3754 39.1133ZM75.3754 47.9199C74.2082 47.9199 73.7054 46.5157 73.7054 44.2794C73.7054 42.0431 74.2024 40.6042 75.3754 40.6042C76.5485 40.6042 77.0455 42.0084 77.0455 44.2794C77.0455 46.5504 76.5485 47.9199 75.3754 47.9199Z" fill="#475569"/>
</g>
<defs>
<clipPath id="clip0_122_5712">
<rect width="86.6796" height="86.6796" fill="white" transform="translate(0.207031 0.927734)"/>
</clipPath>
</defs>
</svg>
