<svg width="88" height="88" viewBox="0 0 88 88" fill="none" xmlns="http://www.w3.org/2000/svg">
<g clip-path="url(#clip0_122_5142)">
<rect width="86.6796" height="86.6796" transform="translate(0.808594 0.927734)" fill="white"/>
<path d="M1.83141 53.6857C1.20154 54.2751 0.837487 54.9801 0.808594 55.7717V56.2109C0.86638 57.0315 1.20154 57.7076 1.80252 58.2681C2.46706 58.8864 3.33964 59.21 4.45492 59.21C5.2986 59.21 6.14228 59.002 6.9224 58.5917V57.2106C6.32142 57.5053 5.89958 57.6787 5.59909 57.7712C5.2986 57.8578 4.99811 57.8867 4.66295 57.8867C3.9984 57.8867 3.48988 57.7134 3.06804 57.3262C2.6462 56.9737 2.43817 56.5056 2.43817 55.9451C2.43817 55.3846 2.6462 54.9165 3.06804 54.564C3.48988 54.2115 4.03308 54.0382 4.69184 54.0382C5.35061 54.0382 6.07872 54.2462 6.85883 54.6854V53.2754C6.22896 52.894 5.47196 52.7148 4.59938 52.7148C3.45521 52.7437 2.52485 53.0673 1.83141 53.6857Z" fill="#475569"/>
<path d="M8.4825 55.3908C8.03177 55.801 7.78906 56.3327 7.78906 57.0088C7.78906 57.6849 7.99709 58.2165 8.45361 58.6268C8.90434 59.0371 9.47643 59.2451 10.1699 59.2451C10.8633 59.2451 11.3718 59.0371 11.8572 58.6557C12.3369 58.2743 12.5507 57.7138 12.5507 57.0088C12.5507 56.3038 12.308 55.7433 11.8572 55.3619C11.4065 54.9805 10.8344 54.7724 10.1699 54.7724C9.50532 54.8013 8.93323 55.0094 8.4825 55.3908ZM9.20483 57.0088C9.20483 56.5407 9.29729 56.1882 9.47643 55.9513C9.65556 55.7144 9.89827 55.5699 10.1988 55.5699C10.8286 55.5699 11.1638 56.038 11.1638 56.951C11.1638 57.9218 10.8344 58.4188 10.1988 58.4188C9.53421 58.4477 9.20483 57.9796 9.20483 57.0088ZM17.8208 55.7144C17.5203 55.096 17.006 54.8013 16.2837 54.8013C15.7405 54.8013 15.2608 55.0094 14.8101 55.4485V54.888H13.4868V59.1815H14.8101V56.3038C15.1395 55.9224 15.4747 55.7144 15.8329 55.7144C16.0756 55.7144 16.2837 55.801 16.4339 55.9513C16.5842 56.0958 16.6477 56.3327 16.6477 56.6274V59.1527H17.971V56.4194C18.2715 55.9513 18.6356 55.6855 19.0227 55.6855C19.2654 55.6855 19.4735 55.7721 19.5948 55.9513C19.7451 56.1246 19.8086 56.3616 19.8086 56.6563V59.1527H21.1319V56.3905C21.1319 55.9224 20.9817 55.5063 20.6812 55.2174C20.3807 54.9227 19.9878 54.7782 19.4793 54.7782C18.8783 54.8071 18.3351 55.1018 17.8266 55.7201M23.5705 55.2405V54.8591H22.2472V61.2676H23.5705V58.9157C23.8999 59.1238 24.264 59.2104 24.6569 59.2104C25.2868 59.2104 25.8011 59.0024 26.1594 58.5921C26.5523 58.1818 26.7315 57.6213 26.7315 56.9452C26.7315 56.3269 26.5523 55.8299 26.1594 55.385C25.7664 54.9747 25.3157 54.7667 24.7725 54.7667C24.3218 54.7956 23.8999 54.9458 23.5705 55.2347M23.5705 58.0663V56.0958C23.8421 55.8588 24.1426 55.7433 24.3853 55.7433C24.7147 55.7433 24.9574 55.8588 25.1077 56.0958C25.2868 56.3327 25.3793 56.6563 25.3793 57.0377C25.3793 57.448 25.2868 57.7427 25.1077 57.9796C24.9285 58.2165 24.6569 58.3321 24.3275 58.3321C24.0848 58.361 23.8132 58.2454 23.5763 58.0663M27.5751 55.3041V56.3905C28.0548 55.9224 28.5691 55.6855 29.1411 55.6855C29.6554 55.6855 29.8924 55.9224 29.8635 56.3905C28.6615 56.743 27.9392 57.0377 27.6965 57.2746C27.4538 57.5115 27.3324 57.8062 27.3324 58.1876C27.3324 58.4534 27.4538 58.7193 27.6618 58.9215C27.9045 59.1295 28.1761 59.2451 28.5055 59.2451C28.9562 59.2451 29.4359 59.1006 29.8924 58.777C29.9848 59.1006 30.2218 59.2451 30.6436 59.2451C31.0365 59.2451 31.4584 59.1295 31.8802 58.8637V58.1298C31.6722 58.2743 31.4873 58.3668 31.3659 58.3668C31.2157 58.3668 31.1521 58.2801 31.1521 58.072V56.1304C31.1521 55.2463 30.5511 54.836 29.3434 54.836C28.7424 54.8071 28.1414 54.9805 27.5694 55.3041M28.8349 58.2974C28.7424 58.2107 28.7135 58.0894 28.7135 57.9738C28.7135 57.7658 28.806 57.6213 28.9562 57.5057C29.1354 57.3902 29.4359 57.2399 29.8577 57.0955V58.1241C29.615 58.3321 29.3781 58.4477 29.1354 58.4477C29.014 58.4477 28.9273 58.4188 28.8349 58.3032M34.1339 54.888C33.5329 54.888 33.0475 55.0325 32.7181 55.3561C32.3887 55.6797 32.2385 56.0322 32.2385 56.4425C32.2385 56.7661 32.3598 57.0608 32.5679 57.2977C32.7759 57.5346 33.0822 57.6791 33.4116 57.7369C32.8973 57.8525 32.6314 58.0605 32.6314 58.3841C32.6314 58.6499 32.8106 58.8233 33.1457 58.9446C32.3945 59.1527 32.0016 59.5051 32.0016 60.031C32.0016 60.4124 32.1807 60.7071 32.5737 60.944C32.9666 61.181 33.504 61.2965 34.261 61.2965C35.018 61.2965 35.5554 61.181 35.9195 60.9151C36.3124 60.6782 36.4916 60.3257 36.4916 59.8576C36.4916 59.5629 36.3702 59.2971 36.1622 59.0371C35.9484 58.7713 35.5323 58.6268 34.9602 58.569C34.3882 58.5112 34.0588 58.4823 33.9663 58.4245C33.8739 58.3668 33.845 58.309 33.845 58.2512C33.845 58.1645 33.8739 58.1067 33.9374 58.072C33.9952 58.0143 34.2668 57.9854 34.7522 57.9276C35.2318 57.8698 35.5959 57.7196 35.8386 57.4306C36.0813 57.1359 36.2026 56.8412 36.2026 56.5176C36.2026 56.2807 36.1449 56.0495 35.9946 55.8126H36.5956V54.8996H34.157L34.1339 54.888ZM33.7121 57.0088C33.5618 56.8643 33.4694 56.6852 33.4694 56.4771C33.4694 56.2691 33.5271 56.0669 33.6774 55.9166C33.8276 55.7722 34.0068 55.6797 34.2206 55.6797C34.4344 55.6797 34.6135 55.7375 34.7638 55.8877C34.914 56.0322 34.9718 56.2113 34.9718 56.4136C34.9718 56.6505 34.914 56.8239 34.7638 57.003C34.6135 57.1475 34.4344 57.2399 34.2206 57.2399C34.0414 57.2399 33.8565 57.1532 33.7063 57.003L33.7121 57.0088ZM33.2902 60.0021C33.2902 59.8576 33.3827 59.7363 33.5618 59.6207C33.7409 59.534 33.9837 59.4763 34.313 59.4763C35.0065 59.4763 35.3359 59.6207 35.3359 59.9443C35.3359 60.0888 35.2434 60.2101 35.0643 60.3257C34.8851 60.4413 34.6713 60.4702 34.3708 60.4702C33.6485 60.4991 33.2844 60.3257 33.2844 60.0021H33.2902ZM38.6528 55.4774V54.8591H37.3295V59.1527H38.6528V56.3905C38.9533 55.9224 39.2538 55.6855 39.5832 55.6855C40.0339 55.6855 40.2477 55.9802 40.2477 56.5349V59.1527H41.571V56.4194C41.571 55.8935 41.4208 55.4774 41.1203 55.1827C40.8198 54.888 40.4557 54.7435 40.005 54.7435C39.4907 54.8013 39.04 55.0383 38.6528 55.4774ZM42.8365 52.9522C42.6863 53.0966 42.6227 53.2758 42.6227 53.4838C42.6227 53.6918 42.6805 53.8652 42.8365 54.0154C42.9868 54.1599 43.137 54.2235 43.3508 54.2235C43.5646 54.2235 43.7438 54.1368 43.8651 54.0154C44.0154 53.871 44.0789 53.6918 44.0789 53.4838C44.0789 53.2758 44.0212 53.1024 43.8651 52.9522C43.7264 52.8193 43.5473 52.7441 43.3508 52.7441C43.1717 52.7441 42.9868 52.8019 42.8365 52.9522ZM42.6863 59.1527H44.0096V54.8591H42.6863V59.1527ZM45.5756 55.4197C45.1538 55.8299 44.9457 56.3905 44.9457 57.0377C44.9457 57.6849 45.1595 58.2454 45.6103 58.6557C46.061 59.066 46.662 59.274 47.3843 59.274C48.1067 59.274 48.7712 59.0949 49.2797 58.7135V57.8582C48.7365 58.2685 48.1933 58.4766 47.7137 58.4766C47.2919 58.4766 46.9625 58.361 46.7198 58.1529C46.4771 57.9449 46.3268 57.6502 46.2979 57.2399H49.3375C49.3664 56.506 49.1584 55.8877 48.7654 55.4485C48.3436 55.0094 47.8004 54.7724 47.1705 54.7724C46.5406 54.8013 45.9974 55.0094 45.5756 55.4197ZM47.263 55.593C47.8062 55.593 48.1067 55.9166 48.1991 56.5349H46.3615C46.4193 55.9166 46.7256 55.593 47.263 55.593ZM53.8275 52.8308V55.096C53.4981 54.9805 53.1976 54.9227 52.926 54.9227C52.3251 54.9227 51.8397 55.1307 51.4814 55.5121C51.0884 55.8935 50.9093 56.4251 50.9093 57.0377C50.9093 57.6502 51.0884 58.2107 51.4525 58.5979C51.8165 58.9793 52.2962 59.1873 52.8971 59.1873H54.6423V52.8366H53.8275V52.8308ZM52.4117 58.3899C52.2615 58.3321 52.1401 58.2454 52.0188 58.0952C51.805 57.8582 51.7183 57.5346 51.7183 57.0955C51.7183 56.6274 51.8397 56.2749 52.0824 56.0091C52.3251 55.7433 52.6544 55.5988 53.0474 55.5988C53.319 55.5988 53.5617 55.6566 53.8275 55.8068V58.4534H53.1976C52.8047 58.4534 52.5678 58.4534 52.4175 58.3956L52.4117 58.3899ZM55.9598 55.5063C55.5958 55.9166 55.4166 56.4194 55.4166 57.0666C55.4166 57.4768 55.5091 57.8582 55.6593 58.1818C55.8385 58.5054 56.0523 58.7713 56.3239 58.9446C56.5955 59.118 56.9884 59.2393 57.4392 59.2393C57.7685 59.2393 58.069 59.2104 58.3117 59.1238C58.5544 59.066 58.7914 58.9157 59.063 58.7713V57.9507C58.6122 58.2743 58.0979 58.4477 57.5894 58.4477C57.1965 58.4477 56.896 58.3321 56.6533 58.0952C56.4106 57.8582 56.2892 57.5346 56.2603 57.1532H59.1496V57.0377C59.1496 56.3905 58.9994 55.8646 58.67 55.4774C58.3406 55.096 57.9188 54.888 57.3756 54.888C56.7746 54.9169 56.3239 55.096 55.9598 55.5063ZM56.6244 55.8877C56.8035 55.7086 57.0462 55.6219 57.3467 55.6219C57.6472 55.6219 57.861 55.7086 58.0401 55.8877C58.2193 56.0611 58.3117 56.3269 58.3406 56.6505H56.2661C56.3239 56.3269 56.4452 56.0611 56.6301 55.8877M60.0858 55.2116C59.8431 55.4197 59.7217 55.6797 59.7217 56.0033C59.7217 56.2402 59.8142 56.4714 59.9644 56.6794C60.1147 56.8874 60.4787 57.1475 60.9872 57.4422C61.2588 57.5866 61.4091 57.708 61.5015 57.7947C61.594 57.8814 61.6229 57.968 61.6229 58.0894C61.6229 58.2107 61.5651 58.2974 61.4438 58.3841C61.3224 58.4708 61.1722 58.4997 60.993 58.4997C60.8428 58.4997 60.629 58.4419 60.392 58.3552C60.1493 58.2685 59.9124 58.1183 59.6986 57.9449V58.829C59.9991 58.9735 60.2418 59.066 60.4209 59.1238C60.6001 59.1815 60.8428 59.2104 61.0855 59.2104C61.5073 59.2104 61.8367 59.0949 62.1083 58.8868C62.3799 58.6788 62.5013 58.3899 62.5013 58.0374C62.5013 57.5693 62.1719 57.1243 61.4784 56.743L61.1779 56.5696C60.9699 56.454 60.8139 56.3327 60.7272 56.246C60.6348 56.1593 60.6059 56.0726 60.6059 55.9802C60.6059 55.8646 60.6636 55.7721 60.7561 55.7144C60.8486 55.6566 60.9699 55.6277 61.149 55.6277C61.4495 55.6277 61.8425 55.7721 62.3221 56.0669V55.2463C61.9003 55.0094 61.4784 54.8938 61.0855 54.8938C60.6636 54.9227 60.3343 55.0094 60.0916 55.2174" fill="#475569"/>
<path d="M66.1361 52.6582L63.7148 59.0263H65.304L65.7663 57.7607H68.4476L68.9387 59.0263H70.5568L67.9044 52.6582H66.1477H66.1361ZM67.0029 54.1607L67.9853 56.6397H66.1419L67.0087 54.1607H67.0029Z" fill="#475569"/>
<path fill-rule="evenodd" clip-rule="evenodd" d="M71.0371 52.6582H72.5049V59.0263H71.0371V52.6582Z" fill="#475569"/>
<path d="M74.9775 55.0969V54.704H73.6021V61.2627H74.9428V58.8588C75.2779 59.0669 75.6478 59.1593 76.0407 59.1593C76.6822 59.1593 77.2022 58.9513 77.5663 58.5294C77.965 58.1076 78.1441 57.5355 78.1441 56.8421C78.1441 56.2122 77.9592 55.6979 77.5663 55.2472C77.1676 54.8253 76.711 54.6173 76.1621 54.6173C75.7345 54.6462 75.3068 54.7964 74.9717 55.0969M74.9775 57.9863V55.9695C75.2548 55.7268 75.5553 55.6055 75.8038 55.6055C76.139 55.6055 76.3817 55.7268 76.5377 55.9695C76.7226 56.2122 76.8151 56.5416 76.8151 56.9345C76.8151 57.3564 76.7226 57.6569 76.5377 57.8996C76.3528 58.1423 76.0812 58.2579 75.746 58.2579C75.5033 58.2867 75.2259 58.1654 74.9832 57.9863M79.5541 55.2761C79.1265 55.6979 78.9127 56.27 78.9127 56.9288C78.9127 57.5875 79.1265 58.1596 79.583 58.5815C80.0395 59.0033 80.6521 59.2113 81.386 59.2113C82.1199 59.2113 82.7902 59.0322 83.3103 58.6392V57.7667C82.7613 58.1885 82.2123 58.3965 81.7211 58.3965C81.2935 58.3965 80.9583 58.2752 80.7156 58.0672C80.4729 57.8591 80.3169 57.5586 80.288 57.1368H83.368C83.3969 56.3856 83.1831 55.7557 82.7902 55.2992C82.3626 54.8485 81.8136 54.6058 81.1722 54.6058C80.5018 54.6346 79.9818 54.8485 79.5541 55.2703M81.2646 55.461C81.8136 55.461 82.1199 55.7904 82.2123 56.426H80.3516C80.4152 55.7962 80.7156 55.461 81.2646 55.461ZM84.5873 55.0103C84.2522 55.253 84.0962 55.5823 84.0962 55.9753C84.0962 56.2469 84.1886 56.4838 84.3389 56.6976C84.5238 56.9057 84.83 57.1195 85.2866 57.2986C85.7431 57.4777 86.0204 57.5991 86.1129 57.6915C86.2054 57.7493 86.2342 57.8418 86.2342 57.9342C86.2342 58.1423 86.0204 58.2636 85.5928 58.2636C85.2288 58.2636 84.7665 58.1423 84.2175 57.9054V58.8704C84.6971 59.09 85.2172 59.2055 85.7431 59.1998C86.292 59.1998 86.7485 59.0784 87.0259 58.8357C87.3033 58.593 87.4535 58.2636 87.4824 57.8418V57.7204C87.4824 57.4488 87.39 57.2119 87.2051 56.9692C87.0201 56.7265 86.685 56.5185 86.2285 56.3393C85.772 56.1602 85.5235 56.0389 85.4368 55.9811C85.3732 55.9233 85.3443 55.8597 85.3443 55.8019C85.3443 55.5592 85.4946 55.4725 85.8355 55.4725C86.2631 55.4725 86.7485 55.6228 87.2686 55.9522V54.9582C86.841 54.7502 86.3845 54.6289 85.8933 54.6289C85.3443 54.6578 84.9167 54.7791 84.5816 55.0218M64.8706 38.466C64.8417 38.4371 64.8417 38.4082 64.807 38.4082C64.7782 38.4371 64.7435 38.5007 64.6857 38.5296L64.6221 38.5585L64.5008 38.6798C64.183 38.9861 63.8593 39.2923 63.5242 39.5813C63.4317 39.6737 63.3393 39.7604 63.2179 39.7893C63.0966 39.9685 62.8828 40.032 62.7614 40.2112C62.4262 40.4539 62.12 40.7197 61.7559 40.9335C61.7559 40.9624 61.7848 40.9624 61.7559 40.9913C61.6924 41.0202 61.6635 41.0491 61.6057 41.0837C61.6057 41.1126 61.6346 41.1126 61.6346 41.1415C61.4843 41.2918 61.2705 41.3842 61.1145 41.4998V41.5287L60.7504 41.8003C60.7215 41.8292 60.7504 41.8581 60.7215 41.8927C60.4037 42.095 60.0859 42.3088 59.7739 42.5226C59.8374 42.6729 59.9877 42.4648 60.109 42.4302C60.1726 42.4013 60.2304 42.3724 60.2939 42.3088L60.4788 42.2163C60.6002 42.1586 60.6927 42.0372 60.814 41.9736C60.8776 41.9447 60.9065 41.9447 60.9642 41.9159C61.0567 41.8234 61.1145 41.7367 61.207 41.6443C61.3919 41.5229 61.571 41.4362 61.727 41.3149C61.9119 41.1935 62.0622 41.0433 62.2182 40.9566C61.7906 41.286 61.363 41.65 60.9065 41.9505C60.9257 41.9505 60.9469 41.9409 60.97 41.9216C60.9989 41.9216 60.9989 41.8927 61.0336 41.8927L61.0047 41.9216C61.0972 41.8638 61.1896 41.8003 61.2821 41.7714L61.311 41.8003C61.4612 41.7078 61.6461 41.5576 61.8022 41.4998C61.4034 41.8003 61.0105 42.1297 60.5829 42.4302C60.5829 42.4013 60.554 42.3724 60.554 42.3724C60.3113 42.4937 60.0339 42.644 59.8201 42.7942H59.8836C59.8201 42.8867 59.6698 42.9156 59.5485 42.9733C59.456 43.0022 59.3347 43.0947 59.2422 43.1525C58.9359 43.3027 58.6644 43.4819 58.387 43.6321C58.2772 43.6726 58.1789 43.7188 58.0807 43.7824C57.9883 43.8112 57.9305 43.8748 57.838 43.9037C57.6878 43.9962 57.474 44.054 57.3179 44.1117C56.9828 44.262 56.6765 44.47 56.3413 44.6203C56.22 44.678 56.0986 44.7127 55.9773 44.7705C55.8559 44.8283 55.7346 44.8919 55.6132 44.9207C55.4919 44.9785 55.3359 45.0132 55.2145 45.0421C55.0932 45.0999 54.9718 45.1634 54.8158 45.1923C54.7233 45.2212 54.602 45.2212 54.4806 45.2501C54.2668 45.279 54.053 45.3426 53.8681 45.3715H53.6543C53.4405 45.4004 53.2266 45.4293 53.0128 45.4293H52.6777C52.5563 45.4293 52.4003 45.4582 52.279 45.4293H52.0074C51.9149 45.4293 51.8224 45.4582 51.7647 45.4293C51.337 45.4004 50.8805 45.4004 50.4529 45.4004C49.9617 45.3715 49.5052 45.3426 49.0198 45.279C48.7771 45.2501 48.5633 45.1577 48.3495 45.1288C48.2281 45.0999 48.1068 45.0999 47.9854 45.071C47.7601 45.0074 47.5405 44.9496 47.3151 44.8919C47.1938 44.863 47.1013 44.7994 46.9799 44.7705C46.6332 44.6896 46.2923 44.5682 45.9745 44.4064C45.7722 44.3255 45.5757 44.2215 45.3966 44.106C45.2463 44.0135 45.1192 43.8344 44.9112 43.8979C44.8823 43.9268 44.9401 43.9557 44.9112 43.9904C44.8823 44.0828 44.8187 44.1117 44.7898 44.1695C44.7609 44.1984 44.7898 44.2273 44.7609 44.2909C44.7609 44.3487 44.732 44.3833 44.6974 44.4122C44.6974 44.47 44.6974 44.5047 44.6685 44.5625C44.6049 44.7416 44.4547 44.9843 44.4258 45.1635C44.4258 45.2212 44.4547 45.2212 44.4547 45.2848H44.5182L44.5471 45.3137C44.5471 45.4062 44.6396 45.435 44.6685 45.4928C44.7898 45.672 44.8534 45.8858 44.9748 46.0938C45.1886 46.5157 45.4948 46.9086 45.7086 47.2958C45.7375 47.2958 45.7375 47.3536 45.7722 47.3536V47.4113C45.9224 47.5616 46.0149 47.7118 46.1709 47.8621C46.2923 47.9545 46.3847 48.1048 46.4772 48.1915C46.691 48.3995 46.9048 48.6422 47.1475 48.8213C47.2111 48.8213 47.2111 48.8502 47.24 48.8502C47.3324 48.9716 47.4827 49.0005 47.604 49.0929L48.2455 49.4512C48.3957 49.509 48.5806 49.5726 48.7366 49.6303C48.8869 49.6881 49.0429 49.8095 49.1932 49.8384C49.3145 49.8673 49.407 49.8384 49.4705 49.8962C49.2278 49.8673 49.014 49.8673 48.7655 49.8037C48.7655 49.8326 48.8291 49.8326 48.7944 49.8615C48.3379 49.7401 47.8467 49.6535 47.5116 49.5321C47.5405 49.6246 47.6965 49.6823 47.789 49.7112L47.8178 49.769C48.1241 49.8904 48.3957 49.9771 48.6731 50.0984H48.7366C48.8869 50.1562 49.0718 50.1562 49.1932 50.2487C49.3434 50.2487 49.4705 50.3064 49.6208 50.3411C49.7132 50.37 49.8635 50.4336 49.9559 50.4336C50.0773 50.4336 50.1697 50.4047 50.2622 50.4914C50.2911 50.4914 50.2911 50.4625 50.3258 50.4625C50.5107 50.4914 50.7245 50.5202 50.9383 50.5549C51.3948 50.6127 51.8513 50.6763 52.279 50.6763C52.643 50.6763 53.0417 50.7341 53.4058 50.7052C53.7121 50.6763 54.0183 50.6763 54.3535 50.6763C54.6598 50.6763 54.966 50.6763 55.2087 50.6474C55.3012 50.6474 55.3936 50.6185 55.4861 50.6474C55.515 50.6185 55.5497 50.6185 55.5786 50.6185C55.6074 50.6185 55.6421 50.6185 55.671 50.5896C55.6421 50.5607 55.5786 50.5896 55.6075 50.5318C55.3936 50.5896 55.0874 50.5607 54.8447 50.5607C54.8447 50.5318 54.8158 50.5318 54.8158 50.5029C54.6309 50.474 54.4171 50.474 54.2668 50.4105C54.7869 50.4105 55.307 50.318 55.7635 50.2602V50.2313C55.8559 50.2313 55.9137 50.1735 56.0408 50.1735C55.9773 50.1157 55.8559 50.1446 55.7346 50.1735C55.6421 50.2024 55.5497 50.2024 55.4919 50.2024C55.827 50.1446 56.1622 50.0811 56.4396 49.9944C56.5898 49.9366 56.7458 49.9019 56.8672 49.8153C56.8961 49.7575 57.0521 49.7575 57.0174 49.6939C56.9539 49.7228 56.8961 49.7517 56.8036 49.7517C56.8672 49.6939 56.9885 49.6939 57.0463 49.6303C57.0174 49.6303 56.9828 49.6303 56.9539 49.6592C56.925 49.6592 56.8903 49.6881 56.8614 49.6881C57.0117 49.5957 57.2601 49.5668 57.4104 49.4454C57.289 49.4743 57.1388 49.5668 57.0117 49.5668C57.0406 49.509 57.133 49.509 57.1966 49.4743C57.1677 49.4165 57.3179 49.4454 57.289 49.3819C57.2601 49.353 57.1966 49.3819 57.1388 49.4108C57.1099 49.4396 57.0463 49.4396 57.0174 49.4396C57.1099 49.4396 57.2024 49.3472 57.2948 49.2894C57.4451 49.1969 57.63 49.168 57.7513 49.0814C57.7513 49.0525 57.7224 49.0525 57.7513 49.0236C57.8149 48.9947 57.8727 48.9947 57.8727 48.9311C57.8091 48.9022 57.7802 48.96 57.7224 48.96C57.7224 48.7809 57.5722 48.9311 57.4451 48.9311C57.1215 49.0929 56.769 49.2085 56.4049 49.2605C56.2084 49.3356 56.0062 49.3761 55.7924 49.3819C55.9137 49.3241 56.0697 49.2894 56.1911 49.2605C56.925 49.0814 57.6242 48.752 58.2656 48.4515C58.2656 48.4226 58.3292 48.4226 58.3292 48.3937H58.3003C58.3639 48.3648 58.4216 48.3648 58.4505 48.3359C58.5141 48.307 58.5719 48.307 58.5719 48.2435H58.5083C58.4794 48.2435 58.4448 48.2724 58.387 48.2435C58.5083 48.151 58.6643 48.0932 58.751 48.0008C58.6586 48.0008 58.6008 48.0586 58.5372 48.0932C58.5372 48.0643 58.5083 48.0008 58.5083 48.0008C58.5719 47.9719 58.6297 47.9719 58.6932 47.9083C58.6643 47.9083 58.6297 47.9083 58.6008 47.9372C58.5719 47.9661 58.5372 47.9661 58.4794 47.9372C58.2945 47.995 58.1443 48.0874 57.9594 48.1163C58.3581 47.9372 58.7857 47.787 59.1209 47.5442C59.1209 47.5154 59.092 47.5154 59.092 47.5154C59.1787 47.4922 59.248 47.4229 59.2769 47.3362C59.3982 47.2784 59.4907 47.2438 59.612 47.186C59.5832 47.1571 59.5832 47.186 59.5485 47.186C59.5138 47.186 59.5196 47.2149 59.4849 47.186C59.5138 47.1571 59.5485 47.1282 59.6063 47.1571C59.6063 47.0646 59.7276 47.0646 59.7276 47.0068C59.6063 47.0357 59.5138 47.1282 59.3636 47.1571C59.2422 47.186 59.1786 47.2495 59.0862 47.2784H58.9648C58.9937 47.2206 59.0862 47.2495 59.0862 47.1571C58.9013 47.2495 58.751 47.3362 58.5372 47.3998C58.2945 47.4922 58.046 47.6078 57.8033 47.7003C57.7398 47.7292 57.682 47.7581 57.6184 47.7292C57.7687 47.6367 57.9536 47.55 58.1385 47.4576C58.5661 47.2784 58.9937 47.0357 59.3925 46.8566C59.4214 46.7988 59.4849 46.7641 59.5774 46.7352L59.6698 46.6428C60.4615 46.2845 61.074 45.7413 61.7444 45.2617C61.8079 45.1692 61.8946 45.1114 62.0217 45.0537C62.5418 44.6318 63.1197 44.2389 63.5184 43.7303C63.4548 43.7303 63.4259 43.7881 63.3971 43.8228C63.3046 43.9153 63.2121 44.0308 63.1197 44.0944C63.1486 44.0019 63.241 43.973 63.3046 43.8864C63.1832 43.9153 63.1197 44.0366 63.0272 44.0655C63.0561 44.0077 63.1197 44.0077 63.1486 43.9442C63.0561 43.9442 63.0272 44.0655 62.9637 44.0655C62.9926 44.0366 63.0561 44.0077 63.0561 43.973C62.9926 44.0308 62.9059 44.0655 62.8712 44.1233C62.8423 44.0944 62.8076 44.1233 62.7787 44.1522C62.7498 44.1811 62.7152 44.1811 62.7152 44.1811C62.7152 44.0019 62.9001 43.973 62.929 43.8517C62.8365 43.9095 62.8076 44.0308 62.6516 44.0308C62.6227 44.0597 62.6227 44.0886 62.5881 44.0886C62.6516 43.9962 62.7383 43.9095 62.8308 43.817C62.7094 43.817 62.6458 43.9962 62.4956 43.9962C62.5245 43.9384 62.588 43.9384 62.6169 43.8748C62.4956 43.9037 62.4031 43.9962 62.2818 44.0828C62.1778 44.1637 62.0622 44.2331 61.9466 44.2909C61.7039 44.47 61.4554 44.6838 61.1549 44.7705C61.1261 44.7994 61.1261 44.8283 61.0914 44.8283C61.0567 44.8283 61.0278 44.8283 60.9989 44.8572C60.97 44.8861 60.9354 44.8861 60.9065 44.8861C61.0567 44.7069 61.3341 44.6145 61.519 44.4642C61.6692 44.3429 61.8253 44.2562 61.9466 44.1348C62.3107 43.8633 62.6169 43.5339 62.9868 43.2912L63.0503 43.2623C63.3855 42.9329 63.7207 42.5977 64.0905 42.2684C64.1541 42.2106 64.2118 42.1181 64.2754 42.0603C64.339 42.0025 64.4257 41.939 64.4257 41.8465C64.3621 41.8754 64.3332 41.9679 64.2754 42.0256C64.2176 42.0834 64.183 42.147 64.1252 42.1759C64.1887 42.0834 64.2754 41.9968 64.339 41.9043C64.3679 41.8465 64.4603 41.8465 64.4603 41.7541C64.3968 41.7541 64.3679 41.8118 64.339 41.8465C64.3794 41.8061 64.3968 41.7541 64.4025 41.6963C64.4314 41.6674 64.5528 41.6038 64.5239 41.5749C64.4314 41.6327 64.3101 41.7252 64.2176 41.7829C64.2176 41.6905 64.339 41.6616 64.4025 41.6038C64.4025 41.5113 64.5239 41.4825 64.5239 41.3958C64.4025 41.4247 64.3736 41.5749 64.2523 41.5749C64.2812 41.4825 64.3736 41.4825 64.4025 41.3958C64.3101 41.3958 64.3101 41.4882 64.2176 41.5171C64.2176 41.4882 64.2465 41.4882 64.2465 41.4593L64.2176 41.4304C64.1541 41.4304 64.1252 41.4882 64.0674 41.4882L64.1887 41.3669C64.1252 41.3091 64.2523 41.2744 64.2176 41.2455C64.1252 41.2744 64.0674 41.4247 63.9403 41.3958C64.2176 41.1531 64.4892 40.8815 64.7319 40.6446C64.8244 40.5521 64.9457 40.4943 64.9746 40.4018C64.8822 40.4943 64.7608 40.5521 64.6684 40.6099C64.7897 40.4596 64.9457 40.3672 65.0671 40.188C65.0035 40.188 64.9457 40.2805 64.9168 40.2805C65.0382 40.1303 65.1884 40.0378 65.2809 39.8875H65.252C65.2809 39.8298 65.3445 39.7951 65.3734 39.7373C65.2231 39.8587 65.0671 40.0089 64.9168 40.0956C64.9457 40.0031 65.0671 40.0031 65.1018 39.9164C64.8879 40.0956 64.6452 40.3961 64.339 40.4885L64.4314 40.3094C64.6452 40.1303 64.8591 39.8875 65.0729 39.6795C65.1942 39.5004 65.3502 39.3212 65.408 39.1363C65.3445 39.1652 65.3156 39.1941 65.2578 39.2288C65.2578 39.1363 65.3791 39.1074 65.3791 39.0496C65.2578 39.1421 65.1653 39.2577 65.0151 39.3212C65.044 39.2635 65.1075 39.2288 65.1075 39.1999C64.9862 39.3212 64.8648 39.4079 64.7435 39.5004C64.651 39.5293 64.6221 39.6217 64.5297 39.6506C64.5586 39.5582 64.6221 39.5004 64.6799 39.4426C64.8302 39.1421 65.1364 38.9919 65.2924 38.6914C65.4138 38.5989 65.5063 38.5122 65.5987 38.3909C65.4774 38.4833 65.3849 38.6336 65.2636 38.6914C65.356 38.5411 65.4774 38.4833 65.5987 38.362C65.5795 38.362 65.5583 38.3716 65.5352 38.3909C65.5063 38.3909 65.5063 38.4198 65.4716 38.4198C65.4427 38.362 65.5005 38.362 65.4716 38.3273C65.4427 38.2984 65.408 38.2984 65.3502 38.3273C65.3213 38.3562 65.2578 38.3562 65.2578 38.2984C65.1942 38.3273 65.1075 38.3562 65.0729 38.3909C65.0729 38.3331 65.1364 38.3331 65.1653 38.2695C65.044 38.3909 64.9804 38.3909 64.9226 38.4198M63.8016 41.5634C63.738 41.6847 63.5878 41.7714 63.4664 41.8638C63.53 41.7425 63.7091 41.6847 63.8016 41.5634ZM64.1425 42.0141C64.1425 41.9563 64.2061 41.9563 64.1425 42.0141V42.0141ZM60.45 42.644C60.4211 42.6729 60.3864 42.7017 60.3575 42.7017C60.3864 42.6729 60.4211 42.644 60.45 42.644ZM60.1437 42.8578C60.0512 42.9156 59.9588 43.0369 59.8374 43.0658C59.9299 42.9445 60.0512 42.9156 60.1437 42.8578ZM56.7863 49.8326C56.7863 49.8615 56.7227 49.8615 56.6938 49.8615C56.7227 49.8615 56.7574 49.8326 56.7863 49.8326Z" fill="#475569"/>
<path d="M53.4574 37.0497C52.0532 35.1254 50.6201 33.23 48.9385 31.5426C48.5745 31.2421 48.2393 30.9128 47.9331 30.5487C47.4765 30.1558 46.9276 29.4045 46.2226 28.7111C45.6736 28.2026 44.8473 27.2375 44.1769 27.2375C43.9631 27.2086 43.8129 27.2664 43.6569 27.4456C43.4026 27.7576 43.1137 28.0408 42.8016 28.2893C41.461 29.7339 40.1145 31.2075 38.7739 32.6521C38.1845 33.2936 37.5604 33.9061 36.9132 34.4897C36.1215 34.9983 35.8152 36.2927 34.7462 36.3216C33.9834 36.3505 33.3131 35.7495 32.6081 35.1196C31.8742 34.4897 31.1114 33.8252 30.2273 33.9465C29.4934 34.039 28.459 35.5126 27.9101 36.0846C26.3209 37.7373 24.8878 39.1531 23.4836 40.748C22.8422 41.4703 21.8078 42.4296 21.8656 43.516C22.507 43.5738 22.8422 43.0652 23.4201 42.915C23.7263 42.8225 24.1539 42.8861 24.518 42.7648C24.9167 42.6145 25.223 42.1927 25.6795 42.0135C25.8933 41.9211 26.1996 41.9557 26.4423 41.8633C26.9624 41.6553 27.1126 41.2912 27.5402 41.3201C27.9678 41.349 28.4244 42.1002 28.852 42.0713C29.5859 42.0424 30.1348 40.8405 31.019 40.9271C31.5102 40.956 31.8742 41.5281 32.2729 41.7708C32.5792 42.0135 32.8855 42.314 33.1282 42.6145C33.9198 43.1577 34.5959 44.1805 35.6303 44.3886C37.5546 44.7815 38.3752 43.4582 39.2015 42.4007C39.3864 42.3082 39.658 42.3082 39.8141 42.158C41.3396 40.5342 42.8652 38.9393 45.1882 38.0956C45.7661 38.6099 45.9221 40.1124 47.0489 40.1701C47.5054 40.199 47.9619 39.8985 48.4242 39.5981C48.9154 39.2687 49.3719 38.9682 49.8573 39.026C50.2214 39.0838 50.3485 39.4767 50.805 39.7772C51.3829 40.1701 52.2092 40.592 52.972 41.008C53.7637 41.4299 54.6478 41.6379 55.3817 42.002C56.0232 42.3025 56.3872 43.0248 57.3985 43.0826C56.5143 40.7076 54.8328 38.8988 53.4632 37.0381L53.4574 37.0497ZM43.9227 32.3112C42.8536 33.5883 41.5997 34.2933 41.1143 33.8888C40.6289 33.4843 41.1027 32.1205 42.166 30.8434C43.2292 29.5663 44.489 28.8613 44.9744 29.2658C45.4598 29.6703 44.9859 31.0341 43.9227 32.3112Z" fill="#475569"/>
</g>
<defs>
<clipPath id="clip0_122_5142">
<rect width="86.6796" height="86.6796" fill="white" transform="translate(0.808594 0.927734)"/>
</clipPath>
</defs>
</svg>
