<svg width="143" height="57" viewBox="0 0 143 57" fill="none" xmlns="http://www.w3.org/2000/svg">
<g clip-path="url(#clip0_55_1261)">
<path d="M14.6273 7.99315H21.4975V0.867188H14.6273C7.02903 0.867188 0.847656 7.02287 0.847656 14.5896C0.847656 22.1563 7.02903 28.3119 14.6273 28.3119H21.4975V21.186H14.6273C10.9748 21.186 8.00336 18.2268 8.00336 14.5896C8.00336 10.9523 10.9748 7.99315 14.6273 7.99315Z" fill="white"/>
<path d="M70.1088 7.6228V0.867188H51.0371V28.3119H58.1555V18.5039H66.9685V11.9703H58.1182V7.6228H70.1088Z" fill="white"/>
<path d="M47.1481 0.867188H38.783L33.8258 8.30987L28.8687 0.867188H20.5039L29.6433 14.5896L20.5039 28.3119H28.8687L33.8258 20.8693L38.783 28.3119H47.1481L38.0084 14.5896L47.1481 0.867188Z" fill="white"/>
<path d="M78.5444 0.867188H71.3887V28.3119H78.5444V0.867188Z" fill="white"/>
<path d="M121.695 0.867188V7.65995H128.732V28.3119H135.813V7.65995H142.847V0.867188H121.695Z" fill="white"/>
<path d="M100.339 22.0814C97.7401 22.0814 95.626 20.681 94.4377 18.5059C98.5167 17.4359 101.108 14.1217 101.108 9.87058C101.108 7.32954 100.15 5.03121 98.4096 3.39957C96.6679 1.76652 94.2043 0.867188 91.4726 0.867188H79.8223V28.3119H86.9034V19.1801C87.7164 21.8069 89.3305 24.1675 91.5063 25.891C93.9648 27.8383 96.9282 28.8672 100.076 28.8672H102.781V22.0917L100.339 22.0814H100.339ZM90.8781 12.6367H86.9407V7.14186H90.8781C92.85 7.14186 94.0271 8.17581 94.0271 9.90773C94.0271 11.6396 92.8205 12.6367 90.8781 12.6367Z" fill="white"/>
<path d="M110.84 7.67783L120.578 7.65883V0.867188H112.293C109.61 0.867188 107.128 1.65201 105.304 3.07754C103.934 4.14808 103.007 5.50406 102.559 7.06924C102.353 7.78843 102.248 8.55202 102.248 9.35248C102.248 13.5634 105.185 16.7399 109.915 17.6426L113.517 18.3081C114.219 18.4419 115.851 18.9083 115.851 20.3447C115.851 21.2893 115.083 22.0552 114.134 22.0568L103.911 22.0755V28.8672H112.664C116.557 28.8672 118.968 27.3607 120.305 26.0971C121.329 25.1291 122.092 23.9446 122.541 22.6654C122.846 21.7996 123.006 20.8902 123.006 19.975C123.006 15.6702 119.897 12.4225 114.895 11.5003L111.361 10.8333C109.606 10.5121 109.273 10.0228 109.273 9.23155C109.278 8.37299 109.978 7.67922 110.84 7.67783Z" fill="white"/>
</g>
<path d="M9.28352 52.1072C8.71018 52.1072 8.19018 52.0272 7.72352 51.8672C7.27018 51.6939 6.87018 51.4672 6.52352 51.1872C6.17685 50.9072 5.89018 50.5805 5.66352 50.2072L5.52352 51.8672H4.00352V37.4672H5.68352V43.4472C6.00352 42.9272 6.46352 42.4805 7.06352 42.1072C7.66352 41.7339 8.40352 41.5472 9.28352 41.5472C10.2568 41.5472 11.1102 41.7805 11.8435 42.2472C12.5768 42.7005 13.1435 43.3272 13.5435 44.1272C13.9568 44.9139 14.1635 45.8139 14.1635 46.8272C14.1635 47.8405 13.9568 48.7472 13.5435 49.5472C13.1435 50.3472 12.5768 50.9739 11.8435 51.4272C11.1102 51.8805 10.2568 52.1072 9.28352 52.1072ZM9.08352 50.6472C9.73685 50.6472 10.3168 50.4872 10.8235 50.1672C11.3302 49.8472 11.7235 49.4072 12.0035 48.8472C12.2968 48.2739 12.4435 47.6005 12.4435 46.8272C12.4435 46.0672 12.2968 45.4005 12.0035 44.8272C11.7235 44.2539 11.3302 43.8072 10.8235 43.4872C10.3168 43.1672 9.73685 43.0072 9.08352 43.0072C8.41685 43.0072 7.83018 43.1672 7.32352 43.4872C6.81685 43.8072 6.42352 44.2539 6.14352 44.8272C5.86352 45.4005 5.72352 46.0672 5.72352 46.8272C5.72352 47.6005 5.86352 48.2739 6.14352 48.8472C6.42352 49.4072 6.81685 49.8472 7.32352 50.1672C7.83018 50.4872 8.41685 50.6472 9.08352 50.6472ZM16.8223 56.2672L19.2823 50.7472H18.7023L14.7423 41.7872H16.5623L19.8423 49.4872L23.2823 41.7872H25.0223L18.5823 56.2672H16.8223ZM42.208 53.7672L37.508 46.4072H39.448L44.148 53.7672H42.208ZM38.488 52.1072C37.1414 52.1072 35.9547 51.8072 34.928 51.2072C33.9147 50.5939 33.1214 49.7472 32.548 48.6672C31.988 47.5739 31.708 46.3072 31.708 44.8672C31.708 43.4405 31.988 42.1872 32.548 41.1072C33.1214 40.0139 33.9147 39.1605 34.928 38.5472C35.9547 37.9339 37.1414 37.6272 38.488 37.6272C39.8614 37.6272 41.0547 37.9339 42.068 38.5472C43.0814 39.1605 43.868 40.0139 44.428 41.1072C45.0014 42.1872 45.288 43.4405 45.288 44.8672C45.288 46.3072 45.0014 47.5739 44.428 48.6672C43.868 49.7472 43.0814 50.5939 42.068 51.2072C41.0547 51.8072 39.8614 52.1072 38.488 52.1072ZM38.488 50.6272C39.5014 50.6272 40.388 50.4005 41.148 49.9472C41.9214 49.4805 42.5147 48.8205 42.928 47.9672C43.3547 47.1005 43.568 46.0672 43.568 44.8672C43.568 43.6672 43.3547 42.6405 42.928 41.7872C42.5147 40.9205 41.9214 40.2605 41.148 39.8072C40.388 39.3539 39.5014 39.1272 38.488 39.1272C37.488 39.1272 36.6014 39.3539 35.828 39.8072C35.068 40.2605 34.4747 40.9205 34.048 41.7872C33.6347 42.6405 33.428 43.6672 33.428 44.8672C33.428 46.0672 33.6347 47.1005 34.048 47.9672C34.4747 48.8205 35.068 49.4805 35.828 49.9472C36.6014 50.4005 37.488 50.6272 38.488 50.6272ZM51.2963 52.1072C50.523 52.1072 49.843 51.9539 49.2563 51.6472C48.683 51.3405 48.2363 50.8672 47.9163 50.2272C47.6097 49.5872 47.4563 48.7872 47.4563 47.8272V41.7872H49.1363V47.6472C49.1363 48.6472 49.3563 49.4005 49.7963 49.9072C50.2363 50.4139 50.8563 50.6672 51.6563 50.6672C52.2163 50.6672 52.723 50.5339 53.1763 50.2672C53.6297 49.9872 53.983 49.5939 54.2363 49.0872C54.503 48.5672 54.6363 47.9339 54.6363 47.1872V41.7872H56.3163V51.8672H54.7963L54.6963 50.1072C54.3897 50.7339 53.9363 51.2272 53.3363 51.5872C52.7363 51.9339 52.0563 52.1072 51.2963 52.1072ZM62.3812 52.1072C61.5678 52.1072 60.8878 51.9672 60.3412 51.6872C59.7945 51.3939 59.3878 51.0139 59.1212 50.5472C58.8545 50.0672 58.7212 49.5472 58.7212 48.9872C58.7212 48.3072 58.8945 47.7339 59.2412 47.2672C59.6012 46.7872 60.1012 46.4272 60.7412 46.1872C61.3945 45.9339 62.1612 45.8072 63.0412 45.8072H65.7012C65.7012 45.1805 65.6012 44.6605 65.4012 44.2472C65.2145 43.8205 64.9345 43.5005 64.5612 43.2872C64.2012 43.0739 63.7478 42.9672 63.2012 42.9672C62.5612 42.9672 62.0078 43.1272 61.5412 43.4472C61.0745 43.7672 60.7878 44.2405 60.6812 44.8672H58.9612C59.0412 44.1472 59.2812 43.5472 59.6812 43.0672C60.0945 42.5739 60.6145 42.2005 61.2412 41.9472C61.8678 41.6805 62.5212 41.5472 63.2012 41.5472C64.1345 41.5472 64.9078 41.7205 65.5212 42.0672C66.1478 42.4005 66.6145 42.8739 66.9212 43.4872C67.2278 44.0872 67.3812 44.8005 67.3812 45.6272V51.8672H65.8812L65.7812 50.0872C65.6478 50.3672 65.4745 50.6339 65.2612 50.8872C65.0612 51.1272 64.8212 51.3405 64.5412 51.5272C64.2612 51.7005 63.9412 51.8405 63.5812 51.9472C63.2345 52.0539 62.8345 52.1072 62.3812 52.1072ZM62.6412 50.6872C63.1078 50.6872 63.5278 50.5939 63.9012 50.4072C64.2878 50.2072 64.6145 49.9405 64.8812 49.6072C65.1478 49.2605 65.3478 48.8805 65.4812 48.4672C65.6278 48.0539 65.7012 47.6205 65.7012 47.1672V47.1072H63.1812C62.5278 47.1072 62.0012 47.1872 61.6012 47.3472C61.2012 47.4939 60.9145 47.7072 60.7412 47.9872C60.5678 48.2539 60.4812 48.5605 60.4812 48.9072C60.4812 49.2672 60.5612 49.5805 60.7212 49.8472C60.8945 50.1139 61.1412 50.3205 61.4612 50.4672C61.7945 50.6139 62.1878 50.6872 62.6412 50.6872ZM69.9801 51.8672V37.4672H71.6601V51.8672H69.9801ZM74.5932 51.8672V41.7872H76.2732V51.8672H74.5932ZM75.4332 39.6472C75.0999 39.6472 74.8199 39.5405 74.5932 39.3272C74.3799 39.1005 74.2732 38.8205 74.2732 38.4872C74.2732 38.1539 74.3799 37.8872 74.5932 37.6872C74.8199 37.4739 75.0999 37.3672 75.4332 37.3672C75.7532 37.3672 76.0265 37.4739 76.2532 37.6872C76.4799 37.8872 76.5932 38.1539 76.5932 38.4872C76.5932 38.8205 76.4799 39.1005 76.2532 39.3272C76.0265 39.5405 75.7532 39.6472 75.4332 39.6472ZM79.2379 51.8672V41.7872H80.7579L80.8579 43.2272C81.1779 42.7072 81.6046 42.3005 82.1379 42.0072C82.6846 41.7005 83.2779 41.5472 83.9179 41.5472C84.4379 41.5472 84.9046 41.6205 85.3179 41.7672C85.7446 41.9005 86.1179 42.1139 86.4379 42.4072C86.7579 42.6872 87.0179 43.0472 87.2179 43.4872C87.5646 42.8739 88.0379 42.4005 88.6379 42.0672C89.2512 41.7205 89.9046 41.5472 90.5979 41.5472C91.3712 41.5472 92.0446 41.7072 92.6179 42.0272C93.2046 42.3339 93.6512 42.8072 93.9579 43.4472C94.2779 44.0739 94.4379 44.8739 94.4379 45.8472V51.8672H92.7779V46.0272C92.7779 45.0139 92.5712 44.2539 92.1579 43.7472C91.7446 43.2405 91.1646 42.9872 90.4179 42.9872C89.8979 42.9872 89.4312 43.1272 89.0179 43.4072C88.6046 43.6739 88.2779 44.0672 88.0379 44.5872C87.7979 45.1072 87.6779 45.7472 87.6779 46.5072V51.8672H85.9979V46.0272C85.9979 45.0139 85.7912 44.2539 85.3779 43.7472C84.9646 43.2405 84.3779 42.9872 83.6179 42.9872C83.1112 42.9872 82.6512 43.1272 82.2379 43.4072C81.8379 43.6739 81.5179 44.0672 81.2779 44.5872C81.0379 45.1072 80.9179 45.7472 80.9179 46.5072V51.8672H79.2379ZM101.47 52.1072C100.524 52.1072 99.6837 51.8872 98.9504 51.4472C98.2304 51.0072 97.6637 50.3939 97.2504 49.6072C96.8371 48.8072 96.6304 47.8805 96.6304 46.8272C96.6304 45.7605 96.8304 44.8339 97.2304 44.0472C97.6437 43.2605 98.2171 42.6472 98.9504 42.2072C99.6971 41.7672 100.55 41.5472 101.51 41.5472C102.497 41.5472 103.33 41.7672 104.01 42.2072C104.704 42.6472 105.23 43.2272 105.59 43.9472C105.964 44.6539 106.15 45.4339 106.15 46.2872C106.15 46.4205 106.15 46.5605 106.15 46.7072C106.15 46.8539 106.144 47.0205 106.13 47.2072H97.8904V45.9072H104.51C104.47 44.9872 104.164 44.2672 103.59 43.7472C103.03 43.2272 102.324 42.9672 101.47 42.9672C100.897 42.9672 100.364 43.1005 99.8704 43.3672C99.3904 43.6205 99.0037 44.0005 98.7104 44.5072C98.4171 45.0005 98.2704 45.6205 98.2704 46.3672V46.9272C98.2704 47.7539 98.4171 48.4472 98.7104 49.0072C99.0171 49.5672 99.4104 49.9872 99.8904 50.2672C100.384 50.5472 100.91 50.6872 101.47 50.6872C102.177 50.6872 102.757 50.5339 103.21 50.2272C103.677 49.9072 104.01 49.4805 104.21 48.9472H105.87C105.71 49.5472 105.43 50.0872 105.03 50.5672C104.63 51.0472 104.13 51.4272 103.53 51.7072C102.944 51.9739 102.257 52.1072 101.47 52.1072ZM112.046 51.8672C111.446 51.8672 110.926 51.7739 110.486 51.5872C110.046 51.4005 109.706 51.0872 109.466 50.6472C109.239 50.1939 109.126 49.5872 109.126 48.8272V43.2072H107.366V41.7872H109.126L109.346 39.3472H110.806V41.7872H113.726V43.2072H110.806V48.8272C110.806 49.4539 110.932 49.8805 111.186 50.1072C111.439 50.3205 111.886 50.4272 112.526 50.4272H113.606V51.8672H112.046ZM115.918 51.8672V41.7872H117.438L117.558 43.7072C117.784 43.2539 118.071 42.8672 118.418 42.5472C118.778 42.2272 119.204 41.9805 119.698 41.8072C120.204 41.6339 120.778 41.5472 121.418 41.5472V43.3072H120.798C120.371 43.3072 119.964 43.3672 119.578 43.4872C119.191 43.5939 118.844 43.7739 118.538 44.0272C118.244 44.2805 118.011 44.6272 117.838 45.0672C117.678 45.4939 117.598 46.0272 117.598 46.6672V51.8672H115.918ZM123.48 51.8672V41.7872H125.16V51.8672H123.48ZM124.32 39.6472C123.987 39.6472 123.707 39.5405 123.48 39.3272C123.267 39.1005 123.16 38.8205 123.16 38.4872C123.16 38.1539 123.267 37.8872 123.48 37.6872C123.707 37.4739 123.987 37.3672 124.32 37.3672C124.64 37.3672 124.913 37.4739 125.14 37.6872C125.367 37.8872 125.48 38.1539 125.48 38.4872C125.48 38.8205 125.367 39.1005 125.14 39.3272C124.913 39.5405 124.64 39.6472 124.32 39.6472ZM132.545 52.1072C131.598 52.1072 130.758 51.8872 130.025 51.4472C129.305 51.0072 128.738 50.3939 128.325 49.6072C127.911 48.8072 127.705 47.8805 127.705 46.8272C127.705 45.7605 127.905 44.8339 128.305 44.0472C128.718 43.2605 129.291 42.6472 130.025 42.2072C130.771 41.7672 131.625 41.5472 132.585 41.5472C133.571 41.5472 134.405 41.7672 135.085 42.2072C135.778 42.6472 136.305 43.2272 136.665 43.9472C137.038 44.6539 137.225 45.4339 137.225 46.2872C137.225 46.4205 137.225 46.5605 137.225 46.7072C137.225 46.8539 137.218 47.0205 137.205 47.2072H128.965V45.9072H135.585C135.545 44.9872 135.238 44.2672 134.665 43.7472C134.105 43.2272 133.398 42.9672 132.545 42.9672C131.971 42.9672 131.438 43.1005 130.945 43.3672C130.465 43.6205 130.078 44.0005 129.785 44.5072C129.491 45.0005 129.345 45.6205 129.345 46.3672V46.9272C129.345 47.7539 129.491 48.4472 129.785 49.0072C130.091 49.5672 130.485 49.9872 130.965 50.2672C131.458 50.5472 131.985 50.6872 132.545 50.6872C133.251 50.6872 133.831 50.5339 134.285 50.2272C134.751 49.9072 135.085 49.4805 135.285 48.9472H136.945C136.785 49.5472 136.505 50.0872 136.105 50.5672C135.705 51.0472 135.205 51.4272 134.605 51.7072C134.018 51.9739 133.331 52.1072 132.545 52.1072Z" fill="white"/>
<defs>
<clipPath id="clip0_55_1261">
<rect width="142" height="28" fill="white" transform="translate(0.847656 0.867188)"/>
</clipPath>
</defs>
</svg>