<svg width="1238" height="575" viewBox="0 0 1238 575" fill="none" xmlns="http://www.w3.org/2000/svg">
<rect x="0.03125" y="199.494" width="42.9079" height="43.3846" rx="10" fill="white"/>
<path d="M25.0754 231.706C24.4146 231.706 23.8789 231.183 23.8789 230.537V221.198C23.8789 220.553 24.4146 220.029 25.0754 220.029C25.7361 220.029 26.2719 220.553 26.2719 221.198V230.537C26.2719 231.183 25.7361 231.706 25.0754 231.706Z" fill="#34A853"/>
<path d="M14.3059 231.705C13.6451 231.705 13.1094 231.182 13.1094 230.536V217.69C13.1094 217.045 13.6451 216.521 14.3059 216.521C14.9666 216.521 15.5023 217.045 15.5023 217.69V230.536C15.5023 231.182 14.9666 231.705 14.3059 231.705Z" fill="#34A853"/>
<path d="M19.6906 232.887C19.0299 232.887 18.4941 232.364 18.4941 231.718V214.185C18.4941 213.539 19.0299 213.016 19.6906 213.016C20.3514 213.016 20.8871 213.539 20.8871 214.185V231.718C20.8871 232.364 20.3514 232.887 19.6906 232.887Z" fill="#34A853"/>
<path d="M19.6911 232.886C12.1041 232.886 5.93164 226.856 5.93164 219.443H8.32459C8.32459 225.566 13.4236 230.548 19.6911 230.548C25.9586 230.548 31.0576 225.566 31.0576 219.443H33.4506C33.4506 226.856 27.2781 232.886 19.6911 232.886Z" fill="#FBBC04"/>
<path d="M33.4506 219.444H31.0576C31.0576 213.321 25.9586 208.34 19.6911 208.34C13.4236 208.34 8.32459 213.321 8.32459 219.444H5.93164C5.93164 212.032 12.1041 206.002 19.6911 206.002C27.2781 206.002 33.4506 212.032 33.4506 219.444Z" fill="#EA4335"/>
<path d="M35.8424 236.394C35.5362 236.394 35.2301 236.28 34.9965 236.052L27.7274 228.951C27.2601 228.494 27.2601 227.754 27.7274 227.297C28.1947 226.841 28.9522 226.841 29.4195 227.297L36.6885 234.399C37.1558 234.856 37.1558 235.596 36.6885 236.052C36.4548 236.28 36.1487 236.395 35.8424 236.395V236.394Z" fill="#4285F4"/>
<path d="M29.4206 228.95L27.7285 227.297C32.1603 222.967 32.1603 215.922 27.7285 211.593L29.4206 209.939C32.0194 212.478 33.4507 215.854 33.4507 219.445C33.4507 223.035 32.0194 226.411 29.4206 228.95Z" fill="#4285F4"/>
<mask id="mask0_55_1261" style="mask-type:luminance" maskUnits="userSpaceOnUse" x="5" y="206" width="29" height="27">
<path d="M19.6892 232.887C12.1022 232.887 5.92969 226.857 5.92969 219.444C5.92969 212.032 12.1022 206.002 19.6892 206.002C27.2762 206.002 33.4486 212.032 33.4486 219.444C33.4486 226.857 27.2762 232.887 19.6892 232.887ZM19.6892 208.34C13.4216 208.34 8.32264 213.321 8.32264 219.444C8.32264 225.568 13.4216 230.549 19.6892 230.549C25.9567 230.549 31.0557 225.568 31.0557 219.444C31.0557 213.321 25.9567 208.34 19.6892 208.34Z" fill="white"/>
</mask>
<g mask="url(#mask0_55_1261)">
<path d="M35.8417 236.393C35.5355 236.393 35.2293 236.279 34.9957 236.051L24.2274 225.531C23.7601 225.074 23.7601 224.334 24.2274 223.878C24.6947 223.421 25.4522 223.421 25.9195 223.878L36.6877 234.398C37.155 234.854 37.155 235.594 36.6877 236.051C36.4541 236.279 36.1479 236.393 35.8418 236.393L35.8417 236.393Z" fill="#4285F4"/>
</g>
<rect x="0.03125" y="94.3145" width="42.9079" height="43.3846" rx="10" fill="#34E0A1"/>
<path d="M39.5228 115.907C39.5228 126.032 31.3993 134.246 21.3854 134.246C11.3715 134.246 3.24805 126.032 3.24805 115.907C3.24805 105.782 11.3715 97.5684 21.3854 97.5684C31.3993 97.5684 39.5228 105.782 39.5228 115.907Z" fill="#34E0A1"/>
<path d="M32.5745 112.291L34.7715 109.863H29.9178C27.5165 108.21 24.5532 107.229 21.3856 107.229C18.2179 107.229 15.3057 108.21 12.9044 109.863H8.05078L10.2477 112.291C8.91933 113.531 8.05078 115.287 8.05078 117.302C8.05078 121.021 11.0141 124.069 14.7437 124.069C16.4808 124.069 18.0647 123.398 19.2908 122.261L21.4367 124.638L23.5825 122.261C24.7576 123.398 26.3414 124.069 28.1296 124.069C31.8082 124.069 34.8226 121.073 34.8226 117.302C34.7204 115.287 33.9029 113.531 32.5745 112.291ZM14.6926 121.848C12.1892 121.848 10.1966 119.782 10.1966 117.302C10.1966 114.771 12.2403 112.756 14.6926 112.756C17.1961 112.756 19.1887 114.822 19.1887 117.302C19.2397 119.782 17.1961 121.848 14.6926 121.848ZM21.3856 117.147C21.3856 114.151 19.2397 111.568 16.3786 110.483C17.9114 109.811 19.5974 109.45 21.3856 109.45C23.1738 109.45 24.8598 109.811 26.3925 110.483C23.5314 111.568 21.3856 114.151 21.3856 117.147ZM28.0785 121.848C25.5751 121.848 23.5825 119.782 23.5825 117.302C23.5825 114.771 25.6261 112.756 28.0785 112.756C30.582 112.756 32.5745 114.822 32.5745 117.302C32.5745 119.782 30.5309 121.848 28.0785 121.848ZM28.0785 114.874C26.7502 114.874 25.7283 115.959 25.7283 117.25C25.7283 118.542 26.8012 119.627 28.0785 119.627C29.4069 119.627 30.4287 118.542 30.4287 117.25C30.4287 115.959 29.3558 114.874 28.0785 114.874ZM17.0939 117.25C17.0939 118.593 16.021 119.627 14.7437 119.627C13.4154 119.627 12.3935 118.542 12.3935 117.25C12.3935 115.959 13.4664 114.874 14.7437 114.874C16.021 114.874 17.0939 115.959 17.0939 117.25Z" fill="#000D1B"/>
<rect x="409.482" y="31.959" width="42.9079" height="43.3846" rx="10" fill="#03363D"/>
<path d="M429.805 47.4258V66.3413H414.309L429.805 47.4258Z" fill="white"/>
<path d="M429.805 40.6367C429.805 42.7143 428.988 44.7069 427.535 46.176C426.082 47.6451 424.112 48.4704 422.057 48.4704C420.002 48.4704 418.031 47.6451 416.578 46.176C415.125 44.7069 414.309 42.7143 414.309 40.6367H429.805Z" fill="white"/>
<path d="M432.357 66.3415C432.357 64.2639 433.174 62.2714 434.627 60.8023C436.08 59.3331 438.051 58.5078 440.105 58.5078C442.16 58.5078 444.131 59.3331 445.584 60.8023C447.037 62.2714 447.854 64.2639 447.854 66.3415H432.357Z" fill="white"/>
<path d="M432.357 59.5522V40.6367H447.855L432.357 59.5522Z" fill="white"/>
<rect x="545.965" y="0.867188" width="42.9079" height="43.3846" rx="10" fill="white"/>
<path d="M581.427 22.9495C581.427 21.9074 581.334 20.9053 581.162 19.9434H567.473V25.6284H575.295C574.958 27.4655 573.934 29.0221 572.395 30.0642V33.7518H577.092C579.841 31.1932 581.427 27.4254 581.427 22.9495Z" fill="#4285F4"/>
<path d="M567.474 37.3127C571.398 37.3127 574.689 35.9967 577.094 33.752L572.396 30.0645C571.094 30.9463 569.429 31.4673 567.474 31.4673C563.688 31.4673 560.484 28.882 559.341 25.4082H554.484V29.216C556.876 34.0193 561.792 37.3127 567.474 37.3127Z" fill="#34A853"/>
<path d="M559.34 25.4083C559.049 24.5265 558.884 23.5845 558.884 22.6159C558.884 21.6472 559.049 20.7053 559.34 19.8235V16.0156H554.484C553.466 18.0637 552.937 20.324 552.938 22.6159C552.938 24.9874 553.499 27.2321 554.484 29.2161L559.34 25.4083Z" fill="#FBBC05"/>
<path d="M567.474 13.7633C569.608 13.7633 571.524 14.5049 573.03 15.9612L577.199 11.7458C574.682 9.3743 571.392 7.91797 567.474 7.91797C561.792 7.91797 556.876 11.2114 554.484 16.0146L559.341 19.8225C560.484 16.3487 563.688 13.7633 567.474 13.7633Z" fill="#EA4335"/>
<g clip-path="url(#clip0_55_1261)">
<path fill-rule="evenodd" clip-rule="evenodd" d="M678.397 29.9772C675.905 29.9772 673.884 27.9625 673.884 25.4776C673.884 22.9922 675.905 20.9775 678.397 20.9775C680.89 20.9775 682.911 22.9922 682.911 25.4776C682.911 27.9625 680.89 29.9772 678.397 29.9772ZM679.749 16.8143V12.8112C680.797 12.3177 681.531 11.2606 681.531 10.0339V9.94154C681.531 8.24851 680.141 6.86335 678.443 6.86335H678.351C676.653 6.86335 675.264 8.24851 675.264 9.94154V10.0339C675.264 11.2606 675.998 12.3181 677.046 12.8116V16.8143C675.485 17.0548 674.06 17.6964 672.884 18.6407L661.86 10.0909C661.933 9.81244 661.984 9.52573 661.985 9.22435C661.986 7.30722 660.43 5.75064 658.506 5.74805C656.583 5.74589 655.022 7.29816 655.02 9.21571C655.017 11.1333 656.574 12.6899 658.498 12.692C659.124 12.6929 659.704 12.5154 660.213 12.227L671.056 20.6377C670.134 22.0255 669.594 23.6878 669.594 25.4776C669.594 27.3511 670.188 29.0843 671.191 30.5096L667.893 33.7976C667.633 33.7195 667.362 33.6651 667.076 33.6651C665.495 33.6651 664.214 34.9423 664.214 36.5179C664.214 38.0939 665.495 39.3711 667.076 39.3711C668.656 39.3711 669.937 38.0939 669.937 36.5179C669.937 36.2329 669.883 35.963 669.804 35.7031L673.066 32.4509C674.547 33.5774 676.391 34.2545 678.397 34.2545C683.259 34.2545 687.2 30.3248 687.2 25.4776C687.2 21.0894 683.967 17.4641 679.749 16.8143Z" fill="white"/>
</g>
<rect x="921.789" y="77.8672" width="42.9079" height="43.3846" rx="10" fill="#51CA5E"/>
<path fill-rule="evenodd" clip-rule="evenodd" d="M943.225 115.829C951.805 115.829 958.761 108.796 958.761 100.12C958.761 91.4449 951.805 84.4121 943.225 84.4121C934.645 84.4121 927.689 91.4449 927.689 100.12C927.689 102.938 928.423 105.582 929.707 107.868L927.689 115.829L935.807 113.925C938.011 115.139 940.538 115.829 943.225 115.829ZM943.225 113.412C950.485 113.412 956.371 107.461 956.371 100.12C956.371 92.7796 950.485 86.8288 943.225 86.8288C935.965 86.8288 930.08 92.7796 930.08 100.12C930.08 102.955 930.957 105.582 932.452 107.739L931.275 112.204L935.768 111.068C937.887 112.546 940.456 113.412 943.225 113.412Z" fill="#BFC8D0"/>
<path d="M956.541 98.9993C956.541 106.435 950.579 112.464 943.224 112.464C940.419 112.464 937.817 111.587 935.67 110.089L931.119 111.24L932.312 106.717C930.797 104.532 929.908 101.87 929.908 98.9993C929.908 91.5633 935.87 85.5352 943.224 85.5352C950.579 85.5352 956.541 91.5633 956.541 98.9993Z" fill="url(#paint0_linear_55_1261)"/>
<path fill-rule="evenodd" clip-rule="evenodd" d="M943.225 114.707C951.805 114.707 958.761 107.675 958.761 98.9992C958.761 90.3238 951.805 83.291 943.225 83.291C934.645 83.291 927.689 90.3238 927.689 98.9992C927.689 101.816 928.423 104.461 929.707 106.747L927.689 114.707L935.807 112.804C938.011 114.018 940.538 114.707 943.225 114.707ZM943.225 112.291C950.485 112.291 956.371 106.34 956.371 98.9992C956.371 91.6585 950.485 85.7077 943.225 85.7077C935.965 85.7077 930.08 91.6585 930.08 98.9992C930.08 101.834 930.957 104.461 932.452 106.618L931.275 111.082L935.768 109.947C937.887 111.425 940.456 112.291 943.225 112.291Z" fill="white"/>
<path d="M939.342 91.7067C938.972 90.9566 938.405 91.023 937.833 91.023C936.81 91.023 935.215 92.262 935.215 94.5679C935.215 96.4578 936.038 98.5265 938.814 101.621C941.492 104.608 945.011 106.153 947.933 106.1C950.854 106.047 951.456 103.505 951.456 102.647C951.456 102.266 951.222 102.077 951.061 102.025C950.066 101.542 948.229 100.642 947.812 100.472C947.394 100.303 947.176 100.532 947.04 100.657C946.661 101.022 945.91 102.098 945.653 102.34C945.396 102.582 945.012 102.459 944.853 102.368C944.266 102.129 942.674 101.413 941.405 100.17C939.836 98.6317 939.744 98.1025 939.448 97.6314C939.211 97.2546 939.385 97.0234 939.472 96.9224C939.81 96.5279 940.277 95.9189 940.486 95.6163C940.695 95.3136 940.529 94.8541 940.429 94.5679C940 93.3372 939.637 92.3069 939.342 91.7067Z" fill="white"/>
<rect x="136.514" y="173.338" width="42.9079" height="43.3846" rx="10" fill="white"/>
<path d="M161.558 196.487L159.164 178.762H158.985C154.805 178.769 150.798 180.449 147.839 183.435C144.881 186.42 143.212 190.468 143.197 194.695V194.876L161.558 196.487Z" fill="#ED6C47"/>
<path d="M159.345 178.762H159.166V194.876L167.148 198.098L175.131 194.876V194.695C175.116 190.469 173.447 186.421 170.489 183.435C167.531 180.449 163.525 178.769 159.345 178.762Z" fill="#FF8F6B"/>
<path d="M175.129 194.875V195.052C175.113 199.279 173.444 203.328 170.485 206.314C167.526 209.3 163.519 210.981 159.339 210.989H158.987C154.807 210.98 150.8 209.299 147.842 206.313C144.883 203.327 143.213 199.279 143.197 195.052V194.875H175.129Z" fill="#D35230"/>
<path opacity="0.1" d="M159.962 186.681V203.874C159.959 204.167 159.872 204.452 159.71 204.695C159.548 204.937 159.319 205.126 159.052 205.238C158.877 205.311 158.69 205.349 158.5 205.351H146.966C146.742 205.091 146.529 204.822 146.327 204.545C144.294 201.808 143.196 198.477 143.197 195.054V194.699C143.193 191.612 144.087 188.591 145.768 186.013C145.943 185.736 146.129 185.467 146.327 185.207H158.5C158.886 185.21 159.256 185.366 159.53 185.641C159.803 185.917 159.958 186.29 159.962 186.681Z" fill="#000D1B"/>
<path opacity="0.2" d="M159.164 187.489V204.682C159.162 204.873 159.124 205.061 159.052 205.238C158.941 205.508 158.755 205.739 158.515 205.902C158.275 206.066 157.993 206.154 157.704 206.156H147.693C147.44 205.897 147.198 205.628 146.966 205.35C146.742 205.091 146.529 204.822 146.327 204.545C144.294 201.808 143.196 198.477 143.197 195.054V194.699C143.193 191.612 144.087 188.591 145.768 186.014H157.702C158.089 186.016 158.458 186.172 158.732 186.448C159.005 186.724 159.16 187.098 159.164 187.489Z" fill="#000D1B"/>
<path opacity="0.2" d="M159.164 187.489V203.071C159.16 203.461 159.005 203.835 158.731 204.11C158.458 204.386 158.088 204.542 157.702 204.545H146.327C144.294 201.808 143.196 198.477 143.197 195.054V194.699C143.193 191.612 144.087 188.591 145.768 186.014H157.702C158.089 186.016 158.458 186.172 158.732 186.448C159.005 186.724 159.16 187.098 159.164 187.489Z" fill="#000D1B"/>
<path opacity="0.2" d="M158.366 187.489V203.071C158.362 203.461 158.207 203.835 157.933 204.11C157.66 204.386 157.29 204.542 156.904 204.545H146.327C144.294 201.808 143.196 198.477 143.197 195.054V194.699C143.193 191.612 144.087 188.591 145.768 186.014H156.904C157.291 186.016 157.66 186.172 157.934 186.448C158.207 186.724 158.362 187.098 158.366 187.489Z" fill="#000D1B"/>
<path d="M142.268 186.014H156.903C157.291 186.013 157.663 186.169 157.937 186.445C158.212 186.722 158.366 187.098 158.367 187.49V202.263C158.366 202.655 158.212 203.03 157.937 203.307C157.663 203.584 157.291 203.739 156.903 203.739H142.268C142.076 203.74 141.886 203.702 141.708 203.628C141.531 203.554 141.369 203.445 141.233 203.308C141.097 203.171 140.989 203.008 140.916 202.829C140.842 202.649 140.805 202.457 140.805 202.263V187.49C140.805 187.296 140.842 187.103 140.916 186.924C140.989 186.745 141.097 186.582 141.233 186.444C141.369 186.307 141.531 186.199 141.708 186.125C141.886 186.051 142.076 186.013 142.268 186.014Z" fill="url(#paint1_linear_55_1261)"/>
<path d="M149.745 189.952C150.697 189.889 151.642 190.168 152.41 190.741C152.726 191.025 152.973 191.378 153.134 191.773C153.295 192.169 153.364 192.596 153.337 193.023C153.347 193.623 153.189 194.215 152.88 194.728C152.566 195.233 152.115 195.635 151.581 195.887C150.971 196.174 150.304 196.315 149.631 196.301H147.776V199.772H145.881V189.952H149.745ZM147.775 194.801H149.407C149.924 194.838 150.437 194.684 150.849 194.366C151.018 194.204 151.149 194.005 151.234 193.786C151.319 193.566 151.355 193.331 151.34 193.096C151.34 192.014 150.717 191.473 149.47 191.472H147.775V194.801Z" fill="white"/>
<rect x="136.514" y="65.8672" width="42.9079" height="43.3846" rx="10" fill="white"/>
<path d="M173.592 84.0806H161.481L157.74 72.375L153.988 84.0806L141.877 84.0687L151.685 91.3105L147.932 103.004L157.74 95.7743L167.536 103.004L163.796 91.3105L173.592 84.0806Z" fill="#00B67A"/>
<path d="M164.637 93.958L163.796 91.3105L157.74 95.7743L164.637 93.958Z" fill="#005128"/>
<rect x="785.307" y="31.959" width="42.9079" height="43.3846" rx="10" fill="#FF4A00"/>
<path d="M810.157 57.0942C807.973 57.9249 805.527 57.9264 803.344 57.0947C802.521 54.8894 802.521 52.4161 803.342 50.2105C805.525 49.3784 807.974 49.3782 810.157 50.2104C810.979 52.4153 810.979 54.8892 810.157 57.0942ZM822.627 50.9405H813.229L819.874 44.225C818.831 42.7446 817.544 41.4442 816.079 40.3903L809.433 47.1058V37.6088C807.659 37.3073 805.84 37.3077 804.066 37.6088V47.1058L797.421 40.3903C795.956 41.4435 794.668 42.7457 793.625 44.225L800.271 50.9405H790.873C790.641 52.7865 790.566 54.5215 790.873 56.3637H800.272L793.625 63.0792C794.671 64.5618 795.953 65.8579 797.421 66.9144L804.066 60.1984V69.6959C805.84 69.9963 807.659 69.9965 809.433 69.6959V60.1984L816.079 66.9144C817.545 65.8595 818.83 64.5601 819.874 63.0792L813.228 56.3637H822.627C822.925 54.5729 822.925 52.7312 822.627 50.9405Z" fill="white"/>
<path d="M1234.53 114.944L1217.83 98.6088L1216.21 97.0254L1203.64 109.322L1197.89 114.944C1197.29 115.531 1197.29 116.482 1197.89 117.068L1209.38 128.303L1216.21 134.987L1228.79 122.691L1228.98 122.5L1234.53 117.068C1235.13 116.482 1235.13 115.531 1234.53 114.944ZM1216.21 121.618L1210.47 116.006L1216.21 110.394L1221.95 116.006L1216.21 121.618Z" fill="#2684FF"/>
<path fill-rule="evenodd" clip-rule="evenodd" d="M1216.21 110.394C1212.46 106.719 1212.44 100.767 1216.17 97.0703L1203.61 109.347L1210.45 116.031L1216.21 110.394Z" fill="url(#paint2_linear_55_1261)"/>
<path fill-rule="evenodd" clip-rule="evenodd" d="M1221.96 115.99L1216.21 121.617C1218.02 123.39 1219.04 125.794 1219.04 128.302C1219.04 130.809 1218.02 133.214 1216.21 134.986L1228.8 122.675L1221.96 115.99Z" fill="url(#paint3_linear_55_1261)"/>
<rect x="1194.76" y="199.494" width="42.9079" height="43.3846" rx="10" fill="white"/>
<path d="M1220.19 220.417L1207.89 218.227V234.413C1207.89 234.589 1207.92 234.763 1207.99 234.925C1208.06 235.088 1208.16 235.236 1208.28 235.36C1208.4 235.484 1208.55 235.583 1208.71 235.65C1208.87 235.717 1209.04 235.751 1209.22 235.751H1230.44C1230.61 235.751 1230.78 235.717 1230.94 235.65C1231.1 235.583 1231.25 235.485 1231.37 235.361C1231.5 235.236 1231.6 235.089 1231.66 234.926C1231.73 234.763 1231.76 234.589 1231.76 234.413V228.449L1220.19 220.417Z" fill="#185C37"/>
<path d="M1220.19 206.543H1209.22C1209.04 206.543 1208.87 206.577 1208.71 206.644C1208.55 206.711 1208.4 206.809 1208.28 206.934C1208.16 207.058 1208.06 207.206 1207.99 207.368C1207.92 207.531 1207.89 207.705 1207.89 207.881V213.845L1220.19 221.146L1226.7 223.337L1231.76 221.146V213.845L1220.19 206.543Z" fill="#21A366"/>
<path d="M1207.89 213.844H1220.19V221.145H1207.89V213.844Z" fill="#107C41"/>
<path opacity="0.1" d="M1216.69 212.385H1207.89V230.639H1216.69C1217.04 230.637 1217.38 230.496 1217.63 230.245C1217.88 229.995 1218.02 229.656 1218.02 229.301V213.723C1218.02 213.368 1217.88 213.029 1217.63 212.778C1217.38 212.528 1217.04 212.387 1216.69 212.385Z" fill="#000D1B"/>
<path opacity="0.2" d="M1215.97 213.113H1207.89V231.367H1215.97C1216.32 231.366 1216.66 231.224 1216.9 230.974C1217.15 230.723 1217.29 230.384 1217.3 230.03V214.451C1217.29 214.097 1217.15 213.757 1216.9 213.507C1216.66 213.256 1216.32 213.115 1215.97 213.113Z" fill="#000D1B"/>
<path opacity="0.2" d="M1215.97 213.113H1207.89V229.907H1215.97C1216.32 229.905 1216.66 229.764 1216.9 229.514C1217.15 229.263 1217.29 228.924 1217.3 228.569V214.451C1217.29 214.097 1217.15 213.757 1216.9 213.507C1216.66 213.256 1216.32 213.115 1215.97 213.113Z" fill="#000D1B"/>
<path opacity="0.2" d="M1215.25 213.113H1207.89V229.907H1215.25C1215.6 229.905 1215.93 229.764 1216.18 229.514C1216.43 229.263 1216.57 228.924 1216.57 228.569V214.451C1216.57 214.097 1216.43 213.757 1216.18 213.507C1215.93 213.256 1215.6 213.115 1215.25 213.113Z" fill="#000D1B"/>
<path d="M1201.98 213.113H1215.25C1215.6 213.113 1215.93 213.254 1216.18 213.505C1216.43 213.755 1216.57 214.096 1216.57 214.451V227.839C1216.57 228.194 1216.43 228.535 1216.18 228.786C1215.93 229.037 1215.6 229.177 1215.25 229.177H1201.98C1201.81 229.178 1201.64 229.143 1201.48 229.076C1201.31 229.009 1201.17 228.911 1201.04 228.787C1200.92 228.662 1200.82 228.515 1200.76 228.352C1200.69 228.189 1200.66 228.015 1200.66 227.839V214.451C1200.66 214.275 1200.69 214.101 1200.76 213.938C1200.82 213.776 1200.92 213.628 1201.04 213.504C1201.17 213.379 1201.31 213.281 1201.48 213.214C1201.64 213.147 1201.81 213.113 1201.98 213.113Z" fill="url(#paint4_linear_55_1261)"/>
<path d="M1204.77 225.496L1207.56 221.133L1205 216.795H1207.05L1208.45 219.573C1208.58 219.836 1208.67 220.031 1208.71 220.162H1208.73C1208.82 219.951 1208.92 219.747 1209.02 219.548L1210.51 216.799H1212.4L1209.78 221.113L1212.47 225.5H1210.46L1208.85 222.454C1208.77 222.323 1208.71 222.186 1208.66 222.044H1208.63C1208.58 222.182 1208.52 222.315 1208.44 222.439L1206.78 225.496H1204.77Z" fill="white"/>
<path d="M1230.44 206.543H1220.19V213.845H1231.76V207.881C1231.77 207.705 1231.73 207.531 1231.66 207.368C1231.6 207.205 1231.5 207.058 1231.38 206.933C1231.25 206.809 1231.11 206.711 1230.95 206.644C1230.78 206.577 1230.61 206.542 1230.44 206.543Z" fill="#33C481"/>
<path d="M1220.19 221.146H1231.76V228.448H1220.19V221.146Z" fill="#107C41"/>
<rect x="272.998" y="77.8672" width="42.9079" height="43.3846" rx="10" fill="#1877F2"/>
<path d="M312.688 96.5782C312.688 86.2452 304.403 77.8686 294.184 77.8686C283.964 77.8686 275.68 86.2452 275.68 96.5782C275.68 105.917 282.446 113.657 291.292 115.061V101.986H286.594V96.5782H291.292V92.4563C291.292 87.7672 294.055 85.1771 298.282 85.1771C300.306 85.1771 302.424 85.5425 302.424 85.5425V90.1468H300.09C297.792 90.1468 297.075 91.589 297.075 93.0686V96.5782H302.207L301.387 101.986H297.075V115.061C305.921 113.657 312.688 105.917 312.688 96.5782Z" fill="#1877F2"/>
<path d="M301.386 101.986L302.207 96.5775H297.075V93.0679C297.075 91.5883 297.791 90.1461 300.09 90.1461H302.423V85.5417C302.423 85.5417 300.306 85.1763 298.281 85.1763C294.055 85.1763 291.292 87.7664 291.292 92.4555V96.5775H286.594V101.986H291.292V115.06C292.234 115.209 293.2 115.287 294.183 115.287C295.167 115.287 296.132 115.209 297.075 115.06V101.986H301.386Z" fill="white"/>
<rect x="1058.27" y="173.338" width="42.9079" height="43.3846" rx="10" fill="white"/>
<mask id="mask1_55_1261" style="mask-type:luminance" maskUnits="userSpaceOnUse" x="1062" y="183" width="35" height="25">
<path d="M1062.56 183.1H1096.37V207.02H1062.56V183.1Z" fill="white"/>
</mask>
<g mask="url(#mask1_55_1261)">
<path fill-rule="evenodd" clip-rule="evenodd" d="M1076.63 185.709C1077.72 184.561 1079.23 183.848 1080.91 183.848C1083.15 183.848 1085.09 185.106 1086.13 186.975C1087.06 186.556 1088.06 186.34 1089.08 186.341C1093.1 186.341 1096.37 189.669 1096.37 193.775C1096.37 197.881 1093.1 201.21 1089.08 201.21C1088.59 201.21 1088.11 201.16 1087.64 201.065C1086.73 202.712 1084.99 203.824 1082.99 203.824C1082.18 203.826 1081.39 203.64 1080.66 203.282C1079.73 205.484 1077.58 207.027 1075.06 207.027C1072.45 207.027 1070.22 205.353 1069.36 203.004C1068.98 203.086 1068.59 203.127 1068.2 203.126C1065.08 203.126 1062.56 200.545 1062.56 197.361C1062.56 195.227 1063.69 193.364 1065.38 192.367C1065.02 191.535 1064.84 190.638 1064.84 189.73C1064.84 186.068 1067.78 183.1 1071.4 183.1C1073.53 183.1 1075.43 184.123 1076.63 185.709Z" fill="#00A1E0"/>
</g>
<path fill-rule="evenodd" clip-rule="evenodd" d="M1067.45 195.507C1067.43 195.563 1067.46 195.575 1067.47 195.585C1067.53 195.631 1067.6 195.665 1067.66 195.703C1068.01 195.887 1068.33 195.941 1068.67 195.941C1069.37 195.941 1069.8 195.569 1069.8 194.968V194.956C1069.8 194.401 1069.31 194.2 1068.86 194.054L1068.8 194.035C1068.45 193.922 1068.16 193.824 1068.16 193.595V193.583C1068.16 193.387 1068.33 193.243 1068.6 193.243C1068.9 193.243 1069.25 193.344 1069.48 193.471C1069.48 193.471 1069.55 193.515 1069.57 193.449C1069.58 193.414 1069.7 193.1 1069.71 193.066C1069.72 193.029 1069.7 193.001 1069.68 192.987C1069.42 192.826 1069.06 192.717 1068.68 192.717L1068.62 192.717C1067.98 192.717 1067.54 193.105 1067.54 193.661V193.673C1067.54 194.258 1068.03 194.448 1068.48 194.58L1068.56 194.604C1068.89 194.707 1069.18 194.796 1069.18 195.034V195.046C1069.18 195.263 1068.99 195.424 1068.69 195.424C1068.57 195.424 1068.2 195.422 1067.8 195.164C1067.75 195.136 1067.72 195.115 1067.68 195.092C1067.66 195.079 1067.61 195.057 1067.59 195.123L1067.45 195.507ZM1077.61 195.507C1077.59 195.563 1077.62 195.575 1077.62 195.585C1077.69 195.631 1077.75 195.665 1077.82 195.703C1078.16 195.887 1078.49 195.941 1078.83 195.941C1079.52 195.941 1079.95 195.569 1079.95 194.968V194.956C1079.95 194.401 1079.46 194.2 1079.01 194.054L1078.95 194.035C1078.61 193.922 1078.31 193.824 1078.31 193.595V193.583C1078.31 193.387 1078.48 193.243 1078.75 193.243C1079.05 193.243 1079.4 193.344 1079.63 193.471C1079.63 193.471 1079.7 193.515 1079.72 193.449C1079.74 193.414 1079.85 193.1 1079.86 193.066C1079.88 193.029 1079.85 193.001 1079.83 192.987C1079.57 192.826 1079.21 192.717 1078.84 192.717L1078.77 192.717C1078.13 192.717 1077.69 193.105 1077.69 193.661V193.673C1077.69 194.258 1078.18 194.448 1078.64 194.58L1078.71 194.604C1079.04 194.707 1079.33 194.796 1079.33 195.034V195.046C1079.33 195.263 1079.14 195.424 1078.84 195.424C1078.73 195.424 1078.35 195.422 1077.95 195.164C1077.9 195.136 1077.87 195.116 1077.84 195.092C1077.82 195.084 1077.76 195.06 1077.74 195.123L1077.61 195.507ZM1084.54 194.331C1084.54 194.67 1084.48 194.938 1084.35 195.127C1084.23 195.314 1084.05 195.405 1083.79 195.405C1083.53 195.405 1083.35 195.314 1083.23 195.127C1083.11 194.938 1083.05 194.67 1083.05 194.331C1083.05 193.992 1083.11 193.725 1083.23 193.538C1083.35 193.353 1083.53 193.263 1083.79 193.263C1084.05 193.263 1084.23 193.353 1084.35 193.539C1084.48 193.725 1084.54 193.992 1084.54 194.331ZM1085.12 193.702C1085.06 193.508 1084.97 193.336 1084.85 193.194C1084.74 193.05 1084.59 192.935 1084.41 192.852C1084.23 192.768 1084.02 192.726 1083.79 192.726C1083.55 192.726 1083.35 192.768 1083.17 192.852C1082.99 192.935 1082.84 193.05 1082.72 193.194C1082.61 193.337 1082.52 193.508 1082.46 193.702C1082.4 193.895 1082.38 194.107 1082.38 194.331C1082.38 194.555 1082.4 194.767 1082.46 194.96C1082.52 195.154 1082.61 195.325 1082.72 195.469C1082.84 195.612 1082.99 195.726 1083.17 195.808C1083.35 195.889 1083.55 195.93 1083.79 195.93C1084.02 195.93 1084.23 195.889 1084.41 195.808C1084.59 195.726 1084.74 195.612 1084.85 195.469C1084.97 195.326 1085.06 195.154 1085.12 194.96C1085.17 194.767 1085.2 194.555 1085.2 194.331C1085.2 194.107 1085.17 193.895 1085.12 193.702ZM1089.87 195.314C1089.85 195.257 1089.8 195.279 1089.8 195.279C1089.71 195.311 1089.62 195.341 1089.53 195.357C1089.43 195.372 1089.33 195.379 1089.21 195.379C1088.93 195.379 1088.71 195.295 1088.55 195.129C1088.39 194.962 1088.3 194.693 1088.3 194.328C1088.3 193.997 1088.38 193.748 1088.52 193.558C1088.66 193.369 1088.88 193.272 1089.17 193.272C1089.4 193.272 1089.59 193.3 1089.78 193.36C1089.78 193.36 1089.82 193.38 1089.84 193.32C1089.9 193.178 1089.93 193.076 1089.99 192.92C1090 192.875 1089.96 192.857 1089.95 192.851C1089.88 192.822 1089.7 192.773 1089.56 192.752C1089.44 192.733 1089.29 192.723 1089.13 192.723C1088.89 192.723 1088.67 192.765 1088.48 192.849C1088.3 192.932 1088.14 193.047 1088.02 193.19C1087.89 193.333 1087.8 193.504 1087.74 193.699C1087.67 193.892 1087.64 194.104 1087.64 194.329C1087.64 194.814 1087.77 195.206 1088.03 195.494C1088.28 195.782 1088.67 195.929 1089.17 195.929C1089.47 195.929 1089.77 195.868 1089.99 195.781C1089.99 195.781 1090.03 195.76 1090.01 195.711L1089.87 195.314ZM1090.88 194.006C1090.91 193.817 1090.96 193.661 1091.04 193.538C1091.16 193.353 1091.35 193.251 1091.6 193.251C1091.86 193.251 1092.03 193.353 1092.15 193.539C1092.23 193.661 1092.27 193.824 1092.28 194.006L1090.88 194.006ZM1092.83 193.592C1092.78 193.404 1092.66 193.215 1092.58 193.128C1092.46 192.99 1092.33 192.894 1092.21 192.841C1092.03 192.765 1091.84 192.726 1091.65 192.726C1091.41 192.726 1091.18 192.768 1091 192.853C1090.82 192.939 1090.67 193.056 1090.55 193.201C1090.43 193.347 1090.34 193.52 1090.29 193.716C1090.23 193.911 1090.2 194.124 1090.2 194.348C1090.2 194.577 1090.23 194.789 1090.29 194.981C1090.35 195.174 1090.44 195.343 1090.57 195.484C1090.7 195.626 1090.87 195.737 1091.07 195.814C1091.26 195.892 1091.5 195.932 1091.78 195.931C1092.34 195.929 1092.64 195.801 1092.76 195.733C1092.79 195.72 1092.81 195.699 1092.78 195.638L1092.65 195.275C1092.63 195.221 1092.58 195.241 1092.58 195.241C1092.44 195.294 1092.24 195.388 1091.77 195.387C1091.47 195.387 1091.25 195.296 1091.1 195.154C1090.96 195.009 1090.89 194.796 1090.88 194.495L1092.84 194.496C1092.84 194.496 1092.89 194.496 1092.89 194.445C1092.89 194.424 1092.96 194.038 1092.83 193.592ZM1075.19 194.006C1075.22 193.817 1075.27 193.661 1075.35 193.538C1075.47 193.353 1075.65 193.251 1075.91 193.251C1076.17 193.251 1076.34 193.353 1076.46 193.539C1076.54 193.661 1076.57 193.824 1076.59 194.006L1075.19 194.006ZM1077.14 193.592C1077.09 193.404 1076.97 193.215 1076.89 193.128C1076.76 192.99 1076.64 192.894 1076.52 192.841C1076.34 192.765 1076.15 192.726 1075.96 192.726C1075.71 192.726 1075.49 192.768 1075.31 192.853C1075.13 192.939 1074.98 193.056 1074.86 193.201C1074.74 193.347 1074.65 193.52 1074.59 193.716C1074.53 193.911 1074.51 194.124 1074.51 194.348C1074.51 194.577 1074.54 194.789 1074.59 194.981C1074.65 195.174 1074.75 195.343 1074.88 195.484C1075.01 195.626 1075.17 195.737 1075.37 195.814C1075.57 195.892 1075.81 195.932 1076.08 195.931C1076.65 195.929 1076.95 195.801 1077.07 195.733C1077.09 195.72 1077.11 195.699 1077.09 195.638L1076.96 195.275C1076.94 195.221 1076.88 195.241 1076.88 195.241C1076.74 195.294 1076.54 195.388 1076.08 195.387C1075.78 195.387 1075.55 195.296 1075.41 195.154C1075.26 195.009 1075.19 194.796 1075.18 194.495L1077.14 194.496C1077.14 194.496 1077.19 194.496 1077.2 194.445C1077.2 194.424 1077.27 194.038 1077.14 193.592ZM1070.95 195.303C1070.88 195.241 1070.87 195.226 1070.84 195.186C1070.8 195.125 1070.78 195.039 1070.78 194.928C1070.78 194.754 1070.84 194.629 1070.96 194.545C1070.96 194.545 1071.13 194.396 1071.53 194.401C1071.7 194.405 1071.88 194.42 1072.06 194.447V195.348H1072.06C1072.06 195.348 1071.81 195.402 1071.53 195.419C1071.13 195.443 1070.95 195.303 1070.95 195.303ZM1071.73 193.911C1071.65 193.905 1071.55 193.902 1071.43 193.902C1071.26 193.902 1071.1 193.923 1070.95 193.965C1070.79 194.006 1070.66 194.071 1070.54 194.156C1070.42 194.242 1070.32 194.354 1070.25 194.483C1070.18 194.614 1070.15 194.768 1070.15 194.94C1070.15 195.116 1070.18 195.268 1070.24 195.392C1070.3 195.515 1070.38 195.622 1070.49 195.702C1070.6 195.783 1070.74 195.841 1070.89 195.877C1071.05 195.913 1071.22 195.931 1071.41 195.931C1071.61 195.931 1071.81 195.914 1072.01 195.881C1072.17 195.852 1072.34 195.82 1072.5 195.784C1072.57 195.768 1072.64 195.749 1072.64 195.749C1072.69 195.736 1072.68 195.684 1072.68 195.684L1072.68 193.872C1072.68 193.474 1072.58 193.18 1072.37 192.997C1072.16 192.815 1071.86 192.723 1071.47 192.723C1071.32 192.723 1071.09 192.743 1070.94 192.772C1070.94 192.772 1070.52 192.856 1070.34 192.995C1070.34 192.995 1070.3 193.02 1070.32 193.074L1070.46 193.451C1070.48 193.5 1070.53 193.483 1070.53 193.483C1070.53 193.483 1070.54 193.477 1070.56 193.467C1070.93 193.26 1071.41 193.266 1071.41 193.266C1071.62 193.266 1071.79 193.309 1071.9 193.394C1072 193.477 1072.06 193.602 1072.06 193.866V193.95C1071.89 193.925 1071.73 193.911 1071.73 193.911ZM1087.54 192.89C1087.54 192.884 1087.54 192.876 1087.54 192.869C1087.54 192.862 1087.54 192.855 1087.54 192.848C1087.54 192.841 1087.53 192.835 1087.53 192.83C1087.52 192.825 1087.52 192.821 1087.51 192.819C1087.48 192.806 1087.31 192.77 1087.18 192.762C1086.94 192.747 1086.8 192.789 1086.68 192.845C1086.56 192.9 1086.42 192.989 1086.35 193.092L1086.35 192.85C1086.35 192.817 1086.32 192.79 1086.29 192.79H1085.79C1085.75 192.79 1085.73 192.817 1085.73 192.85V195.806C1085.73 195.822 1085.74 195.837 1085.75 195.848C1085.76 195.859 1085.77 195.866 1085.79 195.866H1086.31C1086.32 195.866 1086.34 195.859 1086.35 195.848C1086.36 195.837 1086.36 195.822 1086.36 195.806V194.329C1086.36 194.131 1086.39 193.933 1086.43 193.809C1086.47 193.686 1086.53 193.588 1086.6 193.518C1086.67 193.45 1086.75 193.399 1086.84 193.37C1086.93 193.346 1087.02 193.333 1087.11 193.333C1087.21 193.333 1087.32 193.36 1087.32 193.36C1087.36 193.364 1087.38 193.341 1087.39 193.306C1087.43 193.216 1087.52 192.944 1087.54 192.89Z" fill="#FFFFFE"/>
<path fill-rule="evenodd" clip-rule="evenodd" d="M1082.71 191.521C1082.64 191.501 1082.58 191.486 1082.51 191.474C1082.42 191.459 1082.33 191.452 1082.25 191.453C1081.89 191.453 1081.61 191.554 1081.42 191.754C1081.22 191.953 1081.09 192.255 1081.02 192.653L1081 192.787H1080.55C1080.55 192.787 1080.5 192.785 1080.49 192.845L1080.41 193.257C1080.41 193.296 1080.43 193.321 1080.48 193.321H1080.91L1080.47 195.801C1080.44 196 1080.4 196.165 1080.35 196.289C1080.31 196.412 1080.27 196.504 1080.22 196.571C1080.17 196.635 1080.12 196.683 1080.04 196.711C1079.97 196.734 1079.89 196.744 1079.81 196.744C1079.76 196.744 1079.7 196.736 1079.65 196.727C1079.6 196.718 1079.58 196.707 1079.54 196.692C1079.54 196.692 1079.49 196.673 1079.47 196.724C1079.46 196.766 1079.34 197.087 1079.33 197.127C1079.31 197.166 1079.33 197.197 1079.36 197.206C1079.42 197.227 1079.46 197.24 1079.54 197.259C1079.65 197.285 1079.74 197.286 1079.82 197.286C1080 197.286 1080.17 197.261 1080.31 197.211C1080.44 197.161 1080.56 197.074 1080.67 196.955C1080.78 196.828 1080.85 196.694 1080.92 196.512C1080.99 196.332 1081.05 196.108 1081.09 195.846L1081.54 193.321H1082.18C1082.18 193.321 1082.24 193.323 1082.25 193.263L1082.32 192.851C1082.33 192.812 1082.31 192.787 1082.26 192.787H1081.63C1081.63 192.773 1081.66 192.55 1081.73 192.34C1081.76 192.251 1081.82 192.179 1081.87 192.129C1081.92 192.082 1081.97 192.046 1082.03 192.026C1082.1 192.004 1082.17 191.994 1082.25 191.995C1082.3 191.995 1082.36 192.002 1082.41 192.012C1082.47 192.025 1082.49 192.031 1082.51 192.036C1082.57 192.056 1082.58 192.037 1082.59 192.006L1082.74 191.59C1082.76 191.545 1082.72 191.526 1082.71 191.521ZM1073.95 195.806C1073.95 195.839 1073.93 195.866 1073.89 195.866H1073.37C1073.34 195.866 1073.32 195.839 1073.32 195.806V191.577C1073.32 191.544 1073.34 191.517 1073.37 191.517H1073.89C1073.93 191.517 1073.95 191.544 1073.95 191.577V195.806Z" fill="#FFFFFE"/>
<g clip-path="url(#clip1_55_1261)">
<path d="M1055.54 69.0545C1053.9 72.3026 1053.9 76.5546 1053.9 85.0586V89.6139C1053.9 98.1179 1053.9 102.37 1055.54 105.618C1056.98 108.475 1059.27 110.798 1062.1 112.254C1065.31 113.909 1069.52 113.909 1077.93 113.909H1082.43C1090.84 113.909 1095.05 113.909 1098.26 112.254C1101.09 110.798 1103.38 108.475 1104.82 105.618C1106.46 102.37 1106.46 98.1179 1106.46 89.6139V85.0586C1106.46 76.5546 1106.46 72.3026 1104.82 69.0545C1103.38 66.1973 1101.09 63.8744 1098.26 62.4187C1095.05 60.7637 1090.84 60.7637 1082.43 60.7637H1077.93C1069.52 60.7637 1065.31 60.7637 1062.1 62.4187C1059.27 63.8744 1056.98 66.1973 1055.54 69.0545Z" fill="url(#paint5_linear_55_1261)"/>
<path d="M1054.4 72.683C1053.9 75.5439 1053.9 79.3399 1053.9 85.059V89.6143C1053.9 98.1184 1053.9 102.37 1055.54 105.618C1056.98 108.476 1059.27 110.798 1062.1 112.254C1065.31 113.909 1069.52 113.909 1077.93 113.909H1082.43C1090.84 113.909 1095.05 113.909 1098.26 112.254C1101.09 110.798 1103.38 108.476 1104.82 105.618C1106.46 102.37 1106.46 98.1184 1106.46 89.6143V85.059C1106.46 76.555 1106.46 72.303 1104.82 69.0549C1103.43 66.2972 1101.24 64.0372 1098.55 62.5742L1054.4 72.683Z" fill="url(#paint6_linear_55_1261)"/>
<path d="M1105.92 102.244C1105.67 103.527 1105.33 104.62 1104.82 105.619C1103.38 108.476 1101.09 110.799 1098.26 112.254C1095.14 113.86 1091.09 113.908 1083.18 113.909H1080.29V107.905L1105.92 102.244Z" fill="url(#paint7_linear_55_1261)"/>
<path d="M1082.43 60.7637H1077.93C1076.29 60.7637 1074.81 60.7637 1073.47 60.7759V68.2999L1098.55 62.5711C1098.45 62.5193 1098.36 62.4685 1098.26 62.4187C1096.48 61.4999 1094.39 61.0912 1091.44 60.9094C1089.08 60.7637 1086.17 60.7637 1082.43 60.7637Z" fill="url(#paint8_linear_55_1261)"/>
<path d="M1106.46 89.9424C1106.46 95.6471 1106.45 99.4074 1105.91 102.243L1097 104.212V90.7822L1106.46 88.5586V89.9424Z" fill="url(#paint9_linear_55_1261)"/>
<path fill-rule="evenodd" clip-rule="evenodd" d="M1078.19 82.3591C1078.19 81.1392 1079.18 80.6701 1080.81 80.6701C1083.15 80.6701 1086.11 81.3894 1088.46 82.6718V75.3216C1085.9 74.2894 1083.37 73.8828 1080.81 73.8828C1074.55 73.8828 1070.39 77.1982 1070.39 82.7344C1070.39 91.367 1082.11 89.9908 1082.11 93.7128C1082.11 95.1516 1080.87 95.6208 1079.15 95.6208C1076.59 95.6208 1073.32 94.5573 1070.73 93.1186V100.563C1073.6 101.814 1076.5 102.345 1079.15 102.345C1085.56 102.345 1089.97 99.1239 1089.97 93.5252C1089.93 84.2044 1078.19 85.8621 1078.19 82.3591Z" fill="white"/>
</g>
<rect x="293.348" y="152.879" width="615.165" height="422" fill="url(#paint10_linear_55_1261)"/>
<g filter="url(#filter0_d_55_1261)">
<path d="M218.184 252.879C218.184 248.461 221.765 244.879 226.184 244.879H314.184C318.602 244.879 322.184 248.461 322.184 252.879V336.879C322.184 341.297 318.602 344.879 314.184 344.879H226.184C221.765 344.879 218.184 341.297 218.184 336.879V252.879Z" fill="white" shape-rendering="crispEdges"/>
<path d="M257.46 296.959C256.894 296.959 256.404 296.876 255.99 296.709C255.577 296.542 255.257 296.306 255.03 295.999C254.804 295.686 254.69 295.319 254.69 294.899C254.69 294.486 254.797 294.136 255.01 293.849C255.23 293.556 255.547 293.336 255.96 293.189C256.374 293.036 256.874 292.959 257.46 292.959C258.047 292.959 258.547 293.036 258.96 293.189C259.38 293.336 259.7 293.556 259.92 293.849C260.14 294.142 260.25 294.492 260.25 294.899C260.25 295.319 260.137 295.686 259.91 295.999C259.684 296.306 259.36 296.542 258.94 296.709C258.52 296.876 258.027 296.959 257.46 296.959ZM257.46 296.149C258.02 296.149 258.457 296.036 258.77 295.809C259.09 295.576 259.25 295.262 259.25 294.869C259.25 294.482 259.09 294.179 258.77 293.959C258.457 293.732 258.02 293.619 257.46 293.619C256.907 293.619 256.474 293.732 256.16 293.959C255.847 294.179 255.69 294.482 255.69 294.869C255.69 295.262 255.847 295.576 256.16 295.809C256.474 296.036 256.907 296.149 257.46 296.149ZM257.46 293.499C256.927 293.499 256.474 293.429 256.1 293.289C255.727 293.142 255.44 292.936 255.24 292.669C255.04 292.396 254.94 292.072 254.94 291.699C254.94 291.306 255.044 290.969 255.25 290.689C255.464 290.402 255.76 290.182 256.14 290.029C256.52 289.876 256.96 289.799 257.46 289.799C257.967 289.799 258.41 289.876 258.79 290.029C259.17 290.182 259.467 290.402 259.68 290.689C259.894 290.969 260 291.306 260 291.699C260 292.072 259.9 292.396 259.7 292.669C259.5 292.936 259.21 293.142 258.83 293.289C258.45 293.429 257.994 293.499 257.46 293.499ZM257.46 292.859C257.947 292.859 258.327 292.759 258.6 292.559C258.88 292.359 259.02 292.086 259.02 291.739C259.02 291.386 258.877 291.109 258.59 290.909C258.304 290.709 257.927 290.609 257.46 290.609C256.994 290.609 256.62 290.709 256.34 290.909C256.067 291.109 255.93 291.386 255.93 291.739C255.93 292.086 256.064 292.359 256.33 292.559C256.604 292.759 256.98 292.859 257.46 292.859ZM263.946 296.959C263.379 296.959 262.889 296.876 262.476 296.709C262.063 296.542 261.743 296.306 261.516 295.999C261.289 295.686 261.176 295.319 261.176 294.899C261.176 294.486 261.283 294.136 261.496 293.849C261.716 293.556 262.033 293.336 262.446 293.189C262.859 293.036 263.359 292.959 263.946 292.959C264.533 292.959 265.033 293.036 265.446 293.189C265.866 293.336 266.186 293.556 266.406 293.849C266.626 294.142 266.736 294.492 266.736 294.899C266.736 295.319 266.623 295.686 266.396 295.999C266.169 296.306 265.846 296.542 265.426 296.709C265.006 296.876 264.513 296.959 263.946 296.959ZM263.946 296.149C264.506 296.149 264.943 296.036 265.256 295.809C265.576 295.576 265.736 295.262 265.736 294.869C265.736 294.482 265.576 294.179 265.256 293.959C264.943 293.732 264.506 293.619 263.946 293.619C263.393 293.619 262.959 293.732 262.646 293.959C262.333 294.179 262.176 294.482 262.176 294.869C262.176 295.262 262.333 295.576 262.646 295.809C262.959 296.036 263.393 296.149 263.946 296.149ZM263.946 293.499C263.413 293.499 262.959 293.429 262.586 293.289C262.213 293.142 261.926 292.936 261.726 292.669C261.526 292.396 261.426 292.072 261.426 291.699C261.426 291.306 261.529 290.969 261.736 290.689C261.949 290.402 262.246 290.182 262.626 290.029C263.006 289.876 263.446 289.799 263.946 289.799C264.453 289.799 264.896 289.876 265.276 290.029C265.656 290.182 265.953 290.402 266.166 290.689C266.379 290.969 266.486 291.306 266.486 291.699C266.486 292.072 266.386 292.396 266.186 292.669C266.986 292.936 265.696 293.142 265.316 293.289C264.936 293.429 264.479 293.499 263.946 293.499ZM263.946 292.859C264.433 292.859 264.813 292.759 265.086 292.559C265.366 292.359 265.506 292.086 265.506 291.739C265.506 291.386 265.363 291.109 265.076 290.909C264.789 290.709 264.413 290.609 263.946 290.609C263.479 290.609 263.106 290.709 262.826 290.909C262.553 291.109 262.416 291.386 262.416 291.739C262.416 292.086 262.549 292.359 262.816 292.559C263.089 292.759 263.466 292.859 263.946 292.859ZM267.849 298.359L268.349 296.339L268.479 296.919C268.286 296.919 268.122 296.859 267.989 296.739C267.862 296.619 267.799 296.456 267.799 296.249C267.799 296.049 267.862 295.886 267.989 295.759C268.122 295.632 268.282 295.569 268.469 295.569C268.662 295.569 268.819 295.636 268.939 295.769C269.059 295.896 269.119 296.056 269.119 296.249C269.119 296.316 269.112 296.382 269.099 296.449C269.092 296.509 269.076 296.582 269.049 296.669C269.029 296.749 268.996 296.849 268.949 296.969L268.479 298.359H267.849ZM270.102 296.879V296.199L272.952 293.449C273.206 293.209 273.392 292.999 273.512 292.819C273.639 292.632 273.722 292.462 273.762 292.309C273.809 292.149 273.832 291.996 273.832 291.849C273.832 291.489 273.706 291.206 273.452 290.999C273.199 290.792 272.829 290.689 272.342 290.689C271.969 290.689 271.632 290.752 271.332 290.879C271.032 290.999 270.772 291.189 270.552 291.449L269.872 290.859C270.139 290.519 270.496 290.259 270.942 290.079C271.396 289.892 271.892 289.799 272.432 289.799C272.919 289.799 273.342 289.879 273.702 290.039C274.062 290.192 274.339 290.416 274.532 290.709C274.732 291.002 274.832 291.349 274.832 291.749C274.832 291.976 274.802 292.199 274.742 292.419C274.682 292.639 274.569 292.872 274.402 293.119C274.236 293.366 273.996 293.642 273.682 293.949L271.142 296.399L270.902 296.009H275.132V296.879H270.102ZM277.601 297.279L278.921 293.511H279.269L277.949 297.279H277.601ZM279.924 296.879V294.239L280.096 294.427H279.292V294.079H280.32V296.879H279.924ZM282.097 296.911C281.878 296.911 281.682 296.855 281.509 296.743C281.338 296.631 281.202 296.468 281.101 296.255C281.002 296.042 280.953 295.783 280.953 295.479C280.953 295.175 281.002 294.916 281.101 294.703C281.202 294.49 281.338 294.327 281.509 294.215C281.682 294.103 281.878 294.047 282.097 294.047C282.313 294.047 282.508 294.103 282.681 294.215C282.854 294.327 282.99 294.49 283.089 294.703C283.188 294.916 283.237 295.175 283.237 295.479C283.237 295.783 283.188 296.042 283.089 296.255C282.99 296.468 282.854 296.631 282.681 296.743C282.508 296.855 282.313 296.911 282.097 296.911ZM282.097 296.555C282.244 296.555 282.372 296.515 282.481 296.435C282.593 296.355 282.68 296.235 282.741 296.075C282.805 295.915 282.837 295.716 282.837 295.479C282.837 295.242 282.805 295.043 282.741 294.883C282.68 294.723 282.593 294.603 282.481 294.523C282.372 294.443 282.244 294.403 282.097 294.403C281.95 294.403 281.821 294.443 281.709 294.523C281.597 294.603 281.509 294.723 281.445 294.883C281.384 295.043 281.353 295.242 281.353 295.479C281.353 295.716 281.384 295.915 281.445 296.075C281.509 296.235 281.597 296.355 281.709 296.435C281.821 296.515 281.95 296.555 282.097 296.555ZM284.785 296.911C284.566 296.911 284.37 296.855 284.197 296.743C284.026 296.631 283.89 296.468 283.789 296.255C283.69 296.042 283.641 295.783 283.641 295.479C283.641 295.175 283.69 294.916 283.789 294.703C283.89 294.49 284.026 294.327 284.197 294.215C284.37 294.103 284.566 294.047 284.785 294.047C285.001 294.047 285.195 294.103 285.369 294.215C285.542 294.327 285.678 294.49 285.777 294.703C285.875 294.916 285.925 295.175 285.925 295.479C285.925 295.783 285.875 296.042 285.777 296.255C285.678 296.468 285.542 296.631 285.369 296.743C285.195 296.855 285.001 296.911 284.785 296.911ZM284.785 296.555C284.931 296.555 285.059 296.515 285.169 296.435C285.281 296.355 285.367 296.235 285.429 296.075C285.493 295.915 285.525 295.716 285.525 295.479C285.525 295.242 285.493 295.043 285.429 294.883C285.367 294.723 285.281 294.603 285.169 294.523C285.059 294.443 284.931 294.403 284.785 294.403C284.638 294.403 284.509 294.443 284.397 294.523C284.285 294.603 284.197 294.723 284.133 294.883C284.071 295.043 284.041 295.242 284.041 295.479C284.041 295.716 284.071 295.915 284.133 296.075C284.197 296.235 284.285 296.355 284.397 296.435C284.509 296.515 284.638 296.555 284.785 296.555Z" fill="#49BA78"/>
<circle cx="270.184" cy="294.879" r="26.2015" transform="rotate(-145.02 270.184 294.879)" stroke="#FF485E" stroke-width="9.35"/>
<mask id="path-79-inside-1_55_1261" fill="white">
<path d="M262.727 264.916C258.109 266.065 253.819 268.267 250.192 271.348C246.565 274.43 243.7 278.308 241.82 282.68C239.94 287.052 239.095 291.799 239.353 296.551C239.611 301.303 240.964 305.931 243.306 310.074C245.648 314.217 248.916 317.762 252.855 320.433C256.794 323.104 261.297 324.829 266.012 325.472C270.727 326.115 275.528 325.659 280.038 324.141C284.548 322.622 288.646 320.081 292.012 316.717L285.429 310.13C283.078 312.48 280.216 314.254 277.066 315.315C273.916 316.375 270.564 316.694 267.271 316.244C263.977 315.795 260.833 314.591 258.082 312.726C255.331 310.86 253.049 308.384 251.413 305.491C249.777 302.598 248.832 299.365 248.652 296.047C248.472 292.728 249.062 289.412 250.375 286.359C251.688 283.306 253.689 280.597 256.222 278.445C258.755 276.293 261.751 274.756 264.976 273.953L262.727 264.916Z"/>
</mask>
<path d="M262.727 264.916C258.109 266.065 253.819 268.267 250.192 271.348C246.565 274.43 243.7 278.308 241.82 282.68C239.94 287.052 239.095 291.799 239.353 296.551C239.611 301.303 240.964 305.931 243.306 310.074C245.648 314.217 248.916 317.762 252.855 320.433C256.794 323.104 261.297 324.829 266.012 325.472C270.727 326.115 275.528 325.659 280.038 324.141C284.548 322.622 288.646 320.081 292.012 316.717L285.429 310.13C283.078 312.48 280.216 314.254 277.066 315.315C273.916 316.375 270.564 316.694 267.271 316.244C263.977 315.795 260.833 314.591 258.082 312.726C255.331 310.86 253.049 308.384 251.413 305.491C249.777 302.598 248.832 299.365 248.652 296.047C248.472 292.728 249.062 289.412 250.375 286.359C251.688 283.306 253.689 280.597 256.222 278.445C258.755 276.293 261.751 274.756 264.976 273.953L262.727 264.916Z" stroke="#FF962E" stroke-width="48" mask="url(#path-79-inside-1_55_1261)"/>
<mask id="path-80-inside-2_55_1261" fill="white">
<path d="M270.183 264.003C277.063 264.003 283.745 266.3 289.17 270.531C294.595 274.761 298.452 280.682 300.129 287.354C301.805 294.026 301.206 301.067 298.425 307.36C295.644 313.652 290.842 318.836 284.779 322.088C278.717 325.34 271.742 326.475 264.962 325.311C258.181 324.148 251.984 320.753 247.352 315.666C242.721 310.579 239.921 304.091 239.396 297.232C238.872 290.372 240.654 283.534 244.459 277.803L252.261 282.982C249.611 286.975 248.369 291.739 248.735 296.518C249.1 301.297 251.05 305.817 254.277 309.361C257.504 312.905 261.822 315.27 266.545 316.081C271.269 316.891 276.128 316.101 280.352 313.835C284.576 311.569 287.921 307.958 289.859 303.574C291.796 299.19 292.214 294.285 291.046 289.637C289.878 284.989 287.191 280.863 283.411 277.916C279.632 274.969 274.976 273.368 270.183 273.368L270.183 264.003Z"/>
</mask>
<path d="M270.183 264.003C277.063 264.003 283.745 266.3 289.17 270.531C294.595 274.761 298.452 280.682 300.129 287.354C301.805 294.026 301.206 301.067 298.425 307.36C295.644 313.652 290.842 318.836 284.779 322.088C278.717 325.34 271.742 326.475 264.962 325.311C258.181 324.148 251.984 320.753 247.352 315.666C242.721 310.579 239.921 304.091 239.396 297.232C238.872 290.372 240.654 283.534 244.459 277.803L252.261 282.982C249.611 286.975 248.369 291.739 248.735 296.518C249.1 301.297 251.05 305.817 254.277 309.361C257.504 312.905 261.822 315.27 266.545 316.081C271.269 316.891 276.128 316.101 280.352 313.835C284.576 311.569 287.921 307.958 289.859 303.574C291.796 299.19 292.214 294.285 291.046 289.637C289.878 284.989 287.191 280.863 283.411 277.916C279.632 274.969 274.976 273.368 270.183 273.368L270.183 264.003Z" stroke="#49BA78" stroke-width="48" mask="url(#path-80-inside-2_55_1261)"/>
</g>
<g filter="url(#filter1_d_55_1261)">
<path d="M883.787 345.879C883.787 341.461 887.369 337.879 891.787 337.879H979.787C984.205 337.879 987.787 341.461 987.787 345.879V429.879C987.787 434.297 984.205 437.879 979.787 437.879H891.787C887.369 437.879 883.787 434.297 883.787 429.879V345.879Z" fill="white" shape-rendering="crispEdges"/>
<path d="M923.064 389.959C922.497 389.959 922.007 389.876 921.594 389.709C921.181 389.542 920.861 389.306 920.634 388.999C920.407 388.686 920.294 388.319 920.294 387.899C920.294 387.486 920.401 387.136 920.614 386.849C920.834 386.556 921.151 386.336 921.564 386.189C921.977 386.036 922.477 385.959 923.064 385.959C923.651 385.959 924.151 386.036 924.564 386.189C924.984 386.336 925.304 386.556 925.524 386.849C925.744 387.142 925.854 387.492 925.854 387.899C925.854 388.319 925.741 388.686 925.514 388.999C925.287 389.306 924.964 389.542 924.544 389.709C924.124 389.876 923.631 389.959 923.064 389.959ZM923.064 389.149C923.624 389.149 924.061 389.036 924.374 388.809C924.694 388.576 924.854 388.262 924.854 387.869C924.854 387.482 924.694 387.179 924.374 386.959C924.061 386.732 923.624 386.619 923.064 386.619C922.511 386.619 922.077 386.732 921.764 386.959C921.451 387.179 921.294 387.482 921.294 387.869C921.294 388.262 921.451 388.576 921.764 388.809C922.077 389.036 922.511 389.149 923.064 389.149ZM923.064 386.499C922.531 386.499 922.077 386.429 921.704 386.289C921.331 386.142 921.044 385.936 920.844 385.669C920.644 385.396 920.544 385.072 920.544 384.699C920.544 384.306 920.647 383.969 920.854 383.689C921.067 383.402 921.364 383.182 921.744 383.029C922.124 382.876 922.564 382.799 923.064 382.799C923.571 382.799 924.014 382.876 924.394 383.029C924.774 383.182 925.071 383.402 925.284 383.689C925.497 383.969 925.604 384.306 925.604 384.699C925.604 385.072 925.504 385.396 925.304 385.669C925.104 385.936 924.814 386.142 924.434 386.289C924.054 386.429 923.597 386.499 923.064 386.499ZM923.064 385.859C923.551 385.859 923.931 385.759 924.204 385.559C924.484 385.359 924.624 385.086 924.624 384.739C924.624 384.386 924.481 384.109 924.194 383.909C923.907 383.709 923.531 383.609 923.064 383.609C922.597 383.609 922.224 383.709 921.944 383.909C921.671 384.109 921.534 384.386 921.534 384.739C921.534 385.086 921.667 385.359 921.934 385.559C922.207 385.759 922.584 385.859 923.064 385.859ZM929.549 389.959C928.983 389.959 928.493 389.876 928.079 389.709C927.666 389.542 927.346 389.306 927.119 388.999C926.893 388.686 926.779 388.319 926.779 387.899C926.779 387.486 926.886 387.136 927.099 386.849C927.319 386.556 927.636 386.336 928.049 386.189C928.463 386.036 928.963 385.959 929.549 385.959C930.136 385.959 930.636 386.036 931.049 386.189C931.469 386.336 931.789 386.556 932.009 386.849C932.229 387.142 932.339 387.492 932.339 387.899C932.339 388.319 932.226 388.686 931.999 388.999C931.773 389.306 931.449 389.542 931.029 389.709C930.609 389.876 930.116 389.959 929.549 389.959ZM929.549 389.149C930.109 389.149 930.546 389.036 930.859 388.809C931.179 388.576 931.339 388.262 931.339 387.869C931.339 387.482 931.179 387.179 930.859 386.959C930.546 386.732 930.109 386.619 929.549 386.619C928.996 386.619 928.563 386.732 928.249 386.959C927.936 387.179 927.779 387.482 927.779 387.869C927.779 388.262 927.936 388.576 928.249 388.809C928.563 389.036 928.996 389.149 929.549 389.149ZM929.549 386.499C929.016 386.499 928.563 386.429 928.189 386.289C927.816 386.142 927.529 385.936 927.329 385.669C927.129 385.396 927.029 385.072 927.029 384.699C927.029 384.306 927.133 383.969 927.339 383.689C927.553 383.402 927.849 383.182 928.229 383.029C928.609 382.876 929.049 382.799 929.549 382.799C930.056 382.799 930.499 382.876 930.879 383.029C931.259 383.182 931.556 383.402 931.769 383.689C931.983 383.969 932.089 384.306 932.089 384.699C932.089 385.072 931.989 385.396 931.789 385.669C931.589 385.936 931.299 386.142 930.919 386.289C930.539 386.429 930.083 386.499 929.549 386.499ZM929.549 385.859C930.036 385.859 930.416 385.759 930.689 385.559C930.969 385.359 931.109 385.086 931.109 384.739C931.109 384.386 930.966 384.109 930.679 383.909C930.393 383.709 930.016 383.609 929.549 383.609C929.083 383.609 928.709 383.709 928.429 383.909C928.156 384.109 928.019 384.386 928.019 384.739C928.019 385.086 928.153 385.359 928.419 385.559C928.693 385.759 929.069 385.859 929.549 385.859ZM933.453 391.359L933.953 389.339L934.083 389.919C933.889 389.919 933.726 389.859 933.593 389.739C933.466 389.619 933.403 389.456 933.403 389.249C933.403 389.049 933.466 388.886 933.593 388.759C933.726 388.632 933.886 388.569 934.073 388.569C934.266 388.569 934.423 388.636 934.543 388.769C934.663 388.896 934.723 389.056 934.723 389.249C934.723 389.316 934.716 389.382 934.703 389.449C934.696 389.509 934.679 389.582 934.653 389.669C934.633 389.749 934.599 389.849 934.553 389.969L934.083 391.359H933.453ZM935.706 389.879V389.199L938.556 386.449C938.809 386.209 938.996 385.999 939.116 385.819C939.243 385.632 939.326 385.462 939.366 385.309C939.413 385.149 939.436 384.996 939.436 384.849C939.436 384.489 939.309 384.206 939.056 383.999C938.803 383.792 938.433 383.689 937.946 383.689C937.573 383.689 937.236 383.752 936.936 383.879C936.636 383.999 936.376 384.189 936.156 384.449L935.476 383.859C935.743 383.519 936.099 383.259 936.546 383.079C936.999 382.892 937.496 382.799 938.036 382.799C938.523 382.799 938.946 382.879 939.306 383.039C939.666 383.192 939.943 383.416 940.136 383.709C940.336 384.002 940.436 384.349 940.436 384.749C940.436 384.976 940.406 385.199 940.346 385.419C940.286 385.639 940.173 385.872 940.006 386.119C939.839 386.366 939.599 386.642 939.286 386.949L936.746 389.399L936.506 389.009H940.736V389.879H935.706ZM943.205 390.279L944.525 386.511H944.873L943.553 390.279H943.205ZM945.528 389.879V387.239L945.7 387.427H944.896V387.079H945.924V389.879H945.528ZM947.7 389.911C947.482 389.911 947.286 389.855 947.112 389.743C946.942 389.631 946.806 389.468 946.704 389.255C946.606 389.042 946.556 388.783 946.556 388.479C946.556 388.175 946.606 387.916 946.704 387.703C946.806 387.49 946.942 387.327 947.112 387.215C947.286 387.103 947.482 387.047 947.7 387.047C947.916 387.047 948.111 387.103 948.284 387.215C948.458 387.327 948.594 387.49 948.692 387.703C948.791 387.916 948.84 388.175 948.84 388.479C948.84 388.783 948.791 389.042 948.692 389.255C948.594 389.468 948.458 389.631 948.284 389.743C948.111 389.855 947.916 389.911 947.7 389.911ZM947.7 389.555C947.847 389.555 947.975 389.515 948.084 389.435C948.196 389.355 948.283 389.235 948.344 389.075C948.408 388.915 948.44 388.716 948.44 388.479C948.44 388.242 948.408 388.043 948.344 387.883C948.283 387.723 948.196 387.603 948.084 387.523C947.975 387.443 947.847 387.403 947.7 387.403C947.554 387.403 947.424 387.443 947.312 387.523C947.2 387.603 947.112 387.723 947.048 387.883C946.987 388.043 946.956 388.242 946.956 388.479C946.956 388.716 946.987 388.915 947.048 389.075C947.112 389.235 947.2 389.355 947.312 389.435C947.424 389.515 947.554 389.555 947.7 389.555ZM950.388 389.911C950.17 389.911 949.974 389.855 949.8 389.743C949.63 389.631 949.494 389.468 949.392 389.255C949.294 389.042 949.244 388.783 949.244 388.479C949.244 388.175 949.294 387.916 949.392 387.703C949.494 387.49 949.63 387.327 949.8 387.215C949.974 387.103 950.17 387.047 950.388 387.047C950.604 387.047 950.799 387.103 950.972 387.215C951.146 387.327 951.282 387.49 951.38 387.703C951.479 387.916 951.528 388.175 951.528 388.479C951.528 388.783 951.479 389.042 951.38 389.255C951.282 389.468 951.146 389.631 950.972 389.743C950.799 389.855 950.604 389.911 950.388 389.911ZM950.388 389.555C950.535 389.555 950.663 389.515 950.772 389.435C950.884 389.355 950.971 389.235 951.032 389.075C951.096 388.915 951.128 388.716 951.128 388.479C951.128 388.242 951.096 388.043 951.032 387.883C950.971 387.723 950.884 387.603 950.772 387.523C950.663 387.443 950.535 387.403 950.388 387.403C950.242 387.403 950.112 387.443 950 387.523C949.888 387.603 949.8 387.723 949.736 387.883C949.675 388.043 949.644 388.242 949.644 388.479C949.644 388.716 949.675 388.915 949.736 389.075C949.8 389.235 949.888 389.355 950 389.435C950.112 389.515 950.242 389.555 950.388 389.555Z" fill="#49BA78"/>
<circle cx="935.787" cy="387.879" r="26.2015" transform="rotate(-145.02 935.787 387.879)" stroke="#FF485E" stroke-width="9.35"/>
<mask id="path-84-inside-3_55_1261" fill="white">
<path d="M928.331 357.916C923.712 359.065 919.422 361.267 915.796 364.348C912.169 367.43 909.304 371.308 907.423 375.68C905.543 380.052 904.699 384.799 904.957 389.551C905.215 394.303 906.567 398.931 908.909 403.074C911.252 407.217 914.52 410.762 918.458 413.433C922.397 416.104 926.9 417.829 931.616 418.472C936.331 419.115 941.131 418.659 945.641 417.141C950.152 415.622 954.25 413.081 957.616 409.717L951.032 403.13C948.681 405.48 945.819 407.254 942.67 408.315C939.52 409.375 936.167 409.694 932.874 409.244C929.581 408.795 926.436 407.591 923.685 405.726C920.934 403.86 918.652 401.384 917.016 398.491C915.381 395.598 914.436 392.365 914.256 389.047C914.076 385.728 914.665 382.412 915.978 379.359C917.292 376.306 919.293 373.597 921.826 371.445C924.358 369.293 927.355 367.756 930.58 366.953L928.331 357.916Z"/>
</mask>
<path d="M928.331 357.916C923.712 359.065 919.422 361.267 915.796 364.348C912.169 367.43 909.304 371.308 907.423 375.68C905.543 380.052 904.699 384.799 904.957 389.551C905.215 394.303 906.567 398.931 908.909 403.074C911.252 407.217 914.52 410.762 918.458 413.433C922.397 416.104 926.9 417.829 931.616 418.472C936.331 419.115 941.131 418.659 945.641 417.141C950.152 415.622 954.25 413.081 957.616 409.717L951.032 403.13C948.681 405.48 945.819 407.254 942.67 408.315C939.52 409.375 936.167 409.694 932.874 409.244C929.581 408.795 926.436 407.591 923.685 405.726C920.934 403.86 918.652 401.384 917.016 398.491C915.381 395.598 914.436 392.365 914.256 389.047C914.076 385.728 914.665 382.412 915.978 379.359C917.292 376.306 919.293 373.597 921.826 371.445C924.358 369.293 927.355 367.756 930.58 366.953L928.331 357.916Z" stroke="#FF962E" stroke-width="48" mask="url(#path-84-inside-3_55_1261)"/>
<mask id="path-85-inside-4_55_1261" fill="white">
<path d="M935.787 357.003C942.666 357.003 949.349 359.3 954.774 363.531C960.199 367.761 964.056 373.682 965.732 380.354C967.409 387.026 966.809 394.067 964.028 400.36C961.248 406.652 956.445 411.836 950.383 415.088C944.32 418.34 937.346 419.475 930.565 418.311C923.785 417.148 917.587 413.753 912.956 408.666C908.324 403.579 905.524 397.091 905 390.232C904.476 383.372 906.257 376.534 910.062 370.803L917.865 375.982C915.214 379.975 913.973 384.739 914.338 389.518C914.703 394.297 916.654 398.817 919.881 402.361C923.107 405.905 927.425 408.27 932.149 409.081C936.873 409.891 941.732 409.101 945.956 406.835C950.179 404.569 953.525 400.958 955.462 396.574C957.4 392.19 957.817 387.285 956.649 382.637C955.481 377.989 952.794 373.863 949.015 370.916C945.235 367.969 940.58 366.368 935.787 366.368L935.787 357.003Z"/>
</mask>
<path d="M935.787 357.003C942.666 357.003 949.349 359.3 954.774 363.531C960.199 367.761 964.056 373.682 965.732 380.354C967.409 387.026 966.809 394.067 964.028 400.36C961.248 406.652 956.445 411.836 950.383 415.088C944.32 418.34 937.346 419.475 930.565 418.311C923.785 417.148 917.587 413.753 912.956 408.666C908.324 403.579 905.524 397.091 905 390.232C904.476 383.372 906.257 376.534 910.062 370.803L917.865 375.982C915.214 379.975 913.973 384.739 914.338 389.518C914.703 394.297 916.654 398.817 919.881 402.361C923.107 405.905 927.425 408.27 932.149 409.081C936.873 409.891 941.732 409.101 945.956 406.835C950.179 404.569 953.525 400.958 955.462 396.574C957.4 392.19 957.817 387.285 956.649 382.637C955.481 377.989 952.794 373.863 949.015 370.916C945.235 367.969 940.58 366.368 935.787 366.368L935.787 357.003Z" stroke="#49BA78" stroke-width="48" mask="url(#path-85-inside-4_55_1261)"/>
</g>
<defs>
<filter id="filter0_d_55_1261" x="214.184" y="240.879" width="112" height="108" filterUnits="userSpaceOnUse" color-interpolation-filters="sRGB">
<feFlood flood-opacity="0" result="BackgroundImageFix"/>
<feColorMatrix in="SourceAlpha" type="matrix" values="0 0 0 0 0 0 0 0 0 0 0 0 0 0 0 0 0 0 127 0" result="hardAlpha"/>
<feOffset/>
<feGaussianBlur stdDeviation="2"/>
<feComposite in2="hardAlpha" operator="out"/>
<feColorMatrix type="matrix" values="0 0 0 0 0.364706 0 0 0 0 0.760784 0 0 0 0 0.894118 0 0 0 1 0"/>
<feBlend mode="normal" in2="BackgroundImageFix" result="effect1_dropShadow_55_1261"/>
<feBlend mode="normal" in="SourceGraphic" in2="effect1_dropShadow_55_1261" result="shape"/>
</filter>
<filter id="filter1_d_55_1261" x="879.787" y="333.879" width="112" height="108" filterUnits="userSpaceOnUse" color-interpolation-filters="sRGB">
<feFlood flood-opacity="0" result="BackgroundImageFix"/>
<feColorMatrix in="SourceAlpha" type="matrix" values="0 0 0 0 0 0 0 0 0 0 0 0 0 0 0 0 0 0 127 0" result="hardAlpha"/>
<feOffset/>
<feGaussianBlur stdDeviation="2"/>
<feComposite in2="hardAlpha" operator="out"/>
<feColorMatrix type="matrix" values="0 0 0 0 0.364706 0 0 0 0 0.760784 0 0 0 0 0.894118 0 0 0 1 0"/>
<feBlend mode="normal" in2="BackgroundImageFix" result="effect1_dropShadow_55_1261"/>
<feBlend mode="normal" in="SourceGraphic" in2="effect1_dropShadow_55_1261" result="shape"/>
</filter>
<linearGradient id="paint0_linear_55_1261" x1="954.876" y1="88.9012" x2="929.652" y2="112.185" gradientUnits="userSpaceOnUse">
<stop stop-color="#5BD066"/>
<stop offset="1" stop-color="#27B43E"/>
</linearGradient>
<linearGradient id="paint1_linear_55_1261" x1="143.862" y1="184.853" x2="155.5" y2="204.788" gradientUnits="userSpaceOnUse">
<stop stop-color="#CA4C28"/>
<stop offset="0.5" stop-color="#C5401E"/>
<stop offset="1" stop-color="#B62F14"/>
</linearGradient>
<linearGradient id="paint2_linear_55_1261" x1="1215.19" y1="104.717" x2="1205.58" y2="108.865" gradientUnits="userSpaceOnUse">
<stop offset="0.18" stop-color="#0052CC"/>
<stop offset="1" stop-color="#2684FF"/>
</linearGradient>
<linearGradient id="paint3_linear_55_1261" x1="1217.31" y1="127.229" x2="1226.9" y2="123.111" gradientUnits="userSpaceOnUse">
<stop offset="0.18" stop-color="#0052CC"/>
<stop offset="1" stop-color="#2684FF"/>
</linearGradient>
<linearGradient id="paint4_linear_55_1261" x1="1203.43" y1="212.062" x2="1213.97" y2="230.127" gradientUnits="userSpaceOnUse">
<stop stop-color="#18884F"/>
<stop offset="0.5" stop-color="#117E43"/>
<stop offset="1" stop-color="#0B6631"/>
</linearGradient>
<linearGradient id="paint5_linear_55_1261" x1="1053.9" y1="60.7637" x2="1071.29" y2="72.9237" gradientUnits="userSpaceOnUse">
<stop stop-color="#392993"/>
<stop offset="1" stop-color="#4B47B9"/>
</linearGradient>
<linearGradient id="paint6_linear_55_1261" x1="1055.88" y1="73.2427"  x2="1094.33" y2="104.611" gradientUnits="userSpaceOnUse">
<stop stop-color="#594BB9"/>
<stop offset="1" stop-color="#60A8F2"/>
</linearGradient>
<linearGradient id="paint7_linear_55_1261" x1="1080.29" y1="108.128" x2="1106.49" y2="113.789" gradientUnits="userSpaceOnUse">
<stop stop-color="#61A2EF"/>
<stop offset="1" stop-color="#58E6FD"/>
</linearGradient>
<linearGradient id="paint8_linear_55_1261" x1="1073.47" y1="64.5439" x2="1106.47" y2="60.8453" gradientUnits="userSpaceOnUse">
<stop stop-color="#534EBE"/>
<stop offset="1" stop-color="#6875E2"/>
</linearGradient>
<linearGradient id="paint9_linear_55_1261" x1="1097" y1="90.8934" x2="1106.58" y2="102.241" gradientUnits="userSpaceOnUse">
<stop stop-color="#71A5F3"/>
<stop offset="1" stop-color="#6CC3FA"/>
</linearGradient>
<linearGradient id="paint10_linear_55_1261" x1="600.93" y1="152.879" x2="600.93" y2="679.379" gradientUnits="userSpaceOnUse">
<stop offset="0.495645" stop-color="white" stop-opacity="0"/>
<stop offset="0.789602" stop-color="white"/>
</linearGradient>
<clipPath id="clip0_55_1261">
<rect width="32.1809" height="33.6231" fill="white" transform="translate(655.02 5.74805)"/>
</clipPath>
<clipPath id="clip1_55_1261">
<rect x="1058.72" y="65.8672" width="42.907" height="43.3838" rx="10" fill="white"/>
</clipPath>
</defs>
</svg>