<svg width="88" height="88" viewBox="0 0 88 88" fill="none" xmlns="http://www.w3.org/2000/svg">
<g clip-path="url(#clip0_122_5151)">
<rect width="86.6796" height="86.6796" transform="translate(0.488281 0.927734)" fill="white"/>
<path d="M3.99644 57.4202C2.79448 57.0561 2.26862 56.825 2.26862 56.1373C2.26862 55.5248 3.08919 55.3052 3.78841 55.3052C4.40094 55.3052 5.05971 55.4901 5.51044 55.779C5.61446 55.8484 5.74737 55.8715 5.86872 55.8368C5.99007 55.8021 6.09409 55.7212 6.15187 55.6057L6.35412 55.1954C6.45236 54.9931 6.3888 54.7504 6.1981 54.6233C5.55089 54.2014 4.63787 53.9414 3.80574 53.9414C2.06637 53.9414 0.893307 54.8371 0.893307 56.1662C0.893307 57.894 2.3553 58.3332 3.52837 58.6857C4.75922 59.0555 5.29085 59.2924 5.28508 60.0205C5.28508 60.7544 4.42406 61.0145 3.61505 61.0145C2.80604 61.0145 1.99703 60.6042 1.48851 60.1303C1.38449 60.0379 1.25736 59.9801 1.11867 59.9974C0.979987 60.0148 0.858636 60.0899 0.789292 60.2112L0.552368 60.61C0.448352 60.7833 0.477245 61.0087 0.621711 61.1532C1.37871 61.8986 2.52288 62.3667 3.60927 62.3667C5.43532 62.3667 6.66039 61.419 6.66039 60.0148C6.67195 58.2292 5.19262 57.7784 3.99644 57.4202Z" fill="#475569"/>
<path d="M12.0396 54.2249C11.9645 54.0689 11.8085 53.9648 11.6351 53.9648H11.1497C10.9763 53.9648 10.8203 54.0689 10.7452 54.2249L7.34157 61.7313C7.278 61.87 7.28956 62.026 7.37046 62.1532C7.45136 62.2803 7.59583 62.3554 7.74607 62.3554H8.23726C8.41062 62.3554 8.57242 62.2514 8.64176 62.0954L9.49122 60.2173H13.3109L14.1719 62.0954C14.247 62.2514 14.4031 62.3554 14.5764 62.3554H15.0734C15.2236 62.3554 15.3623 62.2803 15.449 62.1532C15.5299 62.026 15.5415 61.8642 15.4779 61.7313L12.0396 54.2249ZM10.0922 58.8825L11.3924 55.9989L12.7099 58.8825H10.0922Z" fill="#475569"/>
<path d="M17.7043 53.9648H17.2535C17.0108 53.9648 16.8086 54.1613 16.8086 54.4098V61.9163C16.8086 62.159 17.0051 62.3612 17.2535 62.3612H17.7043C17.947 62.3612 18.1492 62.1647 18.1492 61.9163V54.4098C18.1492 54.1671 17.9528 53.9648 17.7043 53.9648Z" fill="#475569"/>
<path d="M27.0704 53.9648H26.6312C26.3827 53.9648 26.1862 54.1612 26.1862 54.4097V59.8763L21.9736 54.1439C21.8869 54.0283 21.7598 53.9648 21.6153 53.9648H21.0895C20.8468 53.9648 20.6445 54.1612 20.6445 54.4097V61.9162C20.6445 62.1589 20.841 62.3611 21.0895 62.3611H21.5402C21.7829 62.3611 21.9852 62.1647 21.9852 61.9162V56.4496L26.1862 62.1762C26.2671 62.2918 26.4001 62.3554 26.5445 62.3554H27.0704C27.3131 62.3554 27.5153 62.1589 27.5153 61.9104V54.4039C27.5153 54.1612 27.3189 53.959 27.0704 53.959" fill="#475569"/>
<path d="M34.8132 53.9648H29.2946C29.0519 53.9648 28.8496 54.1613 28.8496 54.4098V54.849C28.8496 55.0917 29.0461 55.2939 29.2946 55.2939H31.3864V61.9163C31.3864 62.159 31.5829 62.3612 31.8314 62.3612H32.2821C32.5306 62.3612 32.7271 62.1647 32.7271 61.9163V55.2939H34.8189C35.0616 55.2939 35.2639 55.0975 35.2639 54.849V54.4098C35.2639 54.1671 35.0674 53.9648 34.8189 53.9648" fill="#475569"/>
<path d="M38.1126 58.0566H35.7145C35.4718 58.0566 35.2695 58.2531 35.2695 58.5016V58.8657C35.2695 59.1084 35.466 59.3106 35.7145 59.3106H38.1126C38.3553 59.3106 38.5576 59.1141 38.5576 58.8657V58.5016C38.5576 58.2589 38.3611 58.0566 38.1126 58.0566Z" fill="#475569"/>
<path d="M47.4394 57.7902H47.0291C47.0291 57.7902 47.0291 57.7902 47.0234 57.7902H45.6885C45.4458 57.7902 45.2435 57.9867 45.2435 58.2352V58.6859C45.2435 58.9286 45.44 59.1309 45.6885 59.1309H46.5842V60.5004C46.0641 60.8587 45.4342 61.0552 44.7928 61.0552C43.1343 61.0552 41.7879 59.755 41.7879 58.1601C41.7879 56.5652 43.1343 55.2765 44.7928 55.2765C45.5614 55.2765 46.3184 55.5597 46.8673 56.0566C46.9598 56.1375 47.0811 56.178 47.1967 56.1664C47.3181 56.1549 47.4279 56.0971 47.5088 56.0046L47.7746 55.6695C47.9248 55.4845 47.9017 55.213 47.7226 55.0569C46.9136 54.3519 45.8734 53.959 44.787 53.959C42.3947 53.959 40.4473 55.8428 40.4473 58.1601C40.4473 60.4773 42.3831 62.3727 44.7697 62.3727C45.8445 62.3727 46.9251 61.9797 47.7226 61.2863C47.8208 61.1996 47.8786 61.0783 47.8786 60.9511V58.2352C47.8786 57.9925 47.6763 57.7902 47.4336 57.7902" fill="#475569"/>
<path d="M53.7325 53.9531C51.3459 53.9531 49.4043 55.837 49.4043 58.1542C49.4043 60.4714 51.3459 62.3668 53.7325 62.3668C56.1191 62.3668 58.0665 60.4772 58.0665 58.1542C58.0665 55.8312 56.1249 53.9531 53.7325 53.9531ZM53.7325 61.0435C52.0856 61.0435 50.7507 59.7491 50.7507 58.16C50.7507 56.5708 52.0856 55.288 53.7325 55.288C55.3794 55.288 56.7143 56.5766 56.7143 58.16C56.7143 59.7433 55.3794 61.0435 53.7325 61.0435Z" fill="#475569"/>
<path d="M65.1757 57.9232C65.6264 57.536 65.8807 56.964 65.8807 56.2647C65.8807 54.8432 64.8116 53.9648 63.0954 53.9648H60.0211C59.7784 53.9648 59.5762 54.1613 59.5762 54.4098V61.9163C59.5762 62.159 59.7726 62.3612 60.0211 62.3612H63.1127C65.0774 62.3612 66.2505 61.4424 66.2505 59.8995C66.2505 59.0269 65.8576 58.3335 65.1699 57.929M63.078 57.3685H60.911V55.2939H63.078C63.7426 55.2939 64.5342 55.4731 64.5342 56.3225C64.5342 57.016 64.0431 57.3742 63.078 57.3742M60.911 58.6976H63.078C63.7599 58.6976 64.9099 58.8478 64.9099 59.8417C64.9099 60.8356 63.9159 61.0321 63.078 61.0321H60.911V58.6976Z" fill="#475569"/>
<path d="M71.6993 54.2249C71.6242 54.0689 71.4682 53.9648 71.2948 53.9648H70.8094C70.636 53.9648 70.4742 54.0689 70.4049 54.2249L67.0013 61.7313C66.9377 61.87 66.9493 62.026 67.036 62.1532C67.1169 62.2803 67.2555 62.3554 67.4116 62.3554H67.9027C68.0761 62.3554 68.2379 62.2514 68.3073 62.0954L69.1567 60.2173H72.9764L73.8374 62.0954C73.9125 62.2514 74.0686 62.3554 74.2419 62.3554H74.7331C74.8833 62.3554 75.0278 62.2803 75.1087 62.1532C75.1896 62.026 75.2012 61.8642 75.1376 61.7313L71.6993 54.2249ZM69.7461 58.8825L71.0463 55.9989L72.3639 58.8825H69.7461Z" fill="#475569"/>
<path d="M77.3625 53.9648H76.9118C76.6691 53.9648 76.4668 54.1613 76.4668 54.4098V61.9163C76.4668 62.159 76.6691 62.3612 76.9118 62.3612H77.3625C77.6052 62.3612 77.8074 62.1647 77.8074 61.9163V54.4098C77.8074 54.1671 77.6052 53.9648 77.3625 53.9648Z" fill="#475569"/>
<path d="M86.7227 53.9648H86.2835C86.0408 53.9648 85.8386 54.1612 85.8386 54.4097V59.8763L81.626 54.1439C81.5451 54.0283 81.4121 53.9648 81.2677 53.9648H80.7418C80.4991 53.9648 80.2969 54.1612 80.2969 54.4097V61.9162C80.2969 62.1589 80.4934 62.3611 80.7418 62.3611H81.1926C81.4353 62.3611 81.6375 62.1647 81.6375 61.9162V56.4496L85.8386 62.1762C85.9195 62.2918 86.0524 62.3554 86.1969 62.3554H86.7227C86.9654 62.3554 87.1677 62.1589 87.1677 61.9104V54.4039C87.1677 54.1612 86.9712 53.959 86.7227 53.959" fill="#475569"/>
<path d="M49.2148 42.1879V49.5672H47.8569V41.1708L49.2148 42.1879ZM75.5539 49.5441H70.2086L70.1682 49.5094L65.4702 44.8576C65.2795 44.6669 64.9848 44.6091 64.7363 44.7132C64.482 44.8172 64.3202 45.0657 64.3202 45.3372V49.5672H62.9218V39.0963C62.9218 38.9114 62.8467 38.7323 62.708 38.6051L58.8016 34.9184C58.6745 34.797 58.5127 34.7334 58.3393 34.7334H56.3861C56.0105 34.7334 55.71 35.0397 55.71 35.4095V49.5672H54.3232V26.8398C54.3232 26.5624 54.1556 26.3197 53.9013 26.2157C53.6528 26.1117 53.3523 26.1753 53.1617 26.366L46.6954 32.9305C46.5682 33.0576 46.4989 33.2252 46.4989 33.4044V38.4722L43.8523 36.4959C43.6096 36.3168 43.2571 36.3226 43.0259 36.5075L37.0046 41.3326C36.8428 41.4598 36.7503 41.6563 36.7503 41.8585V49.5614H35.3865V45.3141C35.3865 43.8232 34.358 42.2399 32.4568 42.2399C30.5556 42.2399 29.527 43.829 29.527 45.3315V49.5614H28.1459V46.6837C28.1459 45.5164 27.3427 44.274 25.8518 44.274C24.3609 44.274 23.5577 45.5164 23.5577 46.6837V49.5614H22.1824V49.4343C22.1824 48.8564 22.1824 48.111 22.1824 47.8105C22.1824 46.8166 21.2462 45.9498 20.1772 45.9498C19.1081 45.9498 18.172 46.8166 18.172 47.799V49.5557H12.1449C11.7692 49.5557 11.4688 49.8561 11.4688 50.2318C11.4688 50.4109 11.5381 50.5843 11.6652 50.7114C11.7924 50.8385 11.9599 50.9079 12.1449 50.9079H18.8539C19.033 50.9079 19.2064 50.8385 19.3335 50.7114C19.4606 50.5843 19.53 50.4167 19.53 50.2318V47.9203C19.53 47.6718 19.8016 47.2962 20.1772 47.2962C20.5528 47.2962 20.8301 47.6371 20.8301 47.9376C20.8301 48.111 20.8359 50.2318 20.8359 50.2318C20.8359 50.6016 21.1422 50.9079 21.512 50.9079H24.2395C24.6094 50.9079 24.9156 50.6016 24.9156 50.2318V46.6779C24.9156 46.3138 25.1121 45.6204 25.8576 45.6204C26.603 45.6204 26.7995 46.3081 26.7995 46.6721V50.226C26.7995 50.6016 27.1 50.9021 27.4756 50.9021H30.2089C30.388 50.9021 30.5614 50.8327 30.6885 50.7056C30.8156 50.5785 30.885 50.4051 30.885 50.226V45.3199C30.885 44.7189 31.2144 43.5805 32.4626 43.5805C33.6183 43.5805 34.0343 44.6091 34.0343 45.3026V50.226C34.0343 50.5958 34.3406 50.9021 34.7104 50.9021H37.4264C37.802 50.9021 38.1025 50.5958 38.1025 50.226V42.1706L38.1487 42.1301L43.4593 37.8712L46.4989 40.1422V50.226C46.4989 50.5958 46.8051 50.9021 47.175 50.9021H49.8852C50.255 50.9021 50.5613 50.5958 50.5613 50.226V41.8296C50.5613 41.6158 50.4572 41.4135 50.2897 41.2864L47.8511 39.4661V33.6644L47.8857 33.6239L52.9652 28.4694V50.226C52.9652 50.5958 53.2714 50.9021 53.6413 50.9021H56.3804C56.7502 50.9021 57.0565 50.5958 57.0565 50.226V36.0683H58.0619L58.0966 36.103L61.558 39.3737V50.226C61.558 50.5958 61.8643 50.9021 62.2341 50.9021H64.9848C65.3604 50.9021 65.6609 50.5958 65.6609 50.226V46.9379L69.4459 50.6825C69.573 50.8096 69.7406 50.879 69.9197 50.879H75.5423C75.9179 50.879 76.2184 50.5727 76.2184 50.2029C76.2184 49.833 75.9122 49.5268 75.5423 49.5268" fill="#475569"/>
</g>
<defs>
<clipPath id="clip0_122_5151">
<rect width="86.6796" height="86.6796" fill="white" transform="translate(0.488281 0.927734)"/>
</clipPath>
</defs>
</svg>
