<svg width="447" height="496" viewBox="0 0 447 496" fill="none" xmlns="http://www.w3.org/2000/svg">
<g filter="url(#filter0_d_617_7950)">
<g clip-path="url(#clip0_617_7950)">
<g opacity="0.1">
<path d="M196.614 180.268L193.265 180.268C187.118 180.268 181.641 184.472 179.589 190.765L118.476 377.824C117.018 382.274 113.15 385.245 108.808 385.245L19.759 385.245L19.759 389.977L108.937 389.977C113.215 389.977 117.05 387.088 118.552 382.732L179.491 205.666C180.291 203.352 182.397 201.333 184.72 199.712C188.814 196.859 193.611 195.415 198.472 195.415L426.371 195.415L426.371 180.268L196.603 180.268L196.614 180.268Z" fill="url(#paint0_linear_617_7950)"/>
<path d="M193.081 213.775L192.855 213.775C186.913 213.775 181.576 217.708 179.373 223.708L118.628 389.15C117.072 393.389 113.291 396.172 109.099 396.172L34.5482 396.172L34.5482 391.393L108.959 391.428C113.226 391.428 117.05 388.551 118.563 384.207L179.47 208.843C181.598 202.702 187.01 198.64 193.049 198.64L426.371 198.639L426.371 213.786L193.081 213.786L193.081 213.775Z" fill="url(#paint1_linear_617_7950)"/>
<path d="M193.081 232.13L192.595 232.13C186.783 232.13 181.533 235.9 179.254 241.712L118.714 395.694C117.104 399.803 113.388 402.469 109.272 402.469L38.3076 402.469L38.3076 397.737L109.11 397.737C113.302 397.737 117.061 394.966 118.627 390.75L179.34 226.882C181.555 220.905 186.881 216.995 192.801 216.995L426.371 216.995L426.371 232.142L193.081 232.142L193.081 232.13Z" fill="url(#paint2_linear_617_7950)"/>
<path d="M193.078 250.498L192.311 250.498C186.651 250.498 181.498 254.079 179.132 259.68L118.808 402.144C117.134 406.101 113.493 408.637 109.485 408.637L29.2626 408.637L29.2626 403.905L109.312 403.905C113.407 403.905 117.112 401.263 118.733 397.177L179.24 244.886C181.53 239.109 186.77 235.363 192.56 235.363L426.379 235.363L426.379 250.51L193.078 250.51L193.078 250.498Z" fill="url(#paint3_linear_617_7950)"/>
<path d="M193.081 268.858L191.99 268.858C186.492 268.858 181.457 272.24 179.005 277.582L118.887 408.504C117.148 412.284 113.593 414.68 109.704 414.68L24.2314 414.68L24.2314 409.948L109.51 409.948C113.496 409.948 117.126 407.435 118.811 403.502L179.102 262.823C181.49 257.269 186.621 253.711 192.26 253.711L426.371 253.711L426.371 268.858L193.081 268.858Z" fill="url(#paint4_linear_617_7950)"/>
<path d="M193.078 287.21L191.631 287.21C186.316 287.21 181.433 290.369 178.883 295.441L118.959 414.961C117.166 418.543 113.709 420.773 109.95 420.773L44.2247 420.773L44.2247 416.042L109.734 416.042C113.601 416.042 117.145 413.67 118.895 409.924L178.981 280.729C181.454 275.422 186.456 272.075 191.933 272.075L426.379 272.075L426.379 287.222L193.089 287.222L193.078 287.21Z" fill="url(#paint5_linear_617_7950)"/>
<path d="M193.078 305.578L191.231 305.578C186.132 305.578 181.411 308.49 178.786 313.234L119.046 421.4C117.188 424.758 113.85 426.813 110.241 426.813L41.3295 426.813L41.3295 422.081L109.993 422.081C113.731 422.081 117.166 419.873 118.97 416.327L178.862 298.58C181.411 293.555 186.283 290.443 191.566 290.443L426.379 290.443L426.379 305.59L193.078 305.59L193.078 305.578Z" fill="url(#paint6_linear_617_7950)"/>
<path d="M193.081 323.938L190.77 323.938C185.919 323.938 181.393 326.569 178.703 330.948L119.092 427.912C117.191 431.012 113.982 432.867 110.558 432.867L40.4467 432.867L40.4467 428.135L110.288 428.135C113.864 428.135 117.191 426.104 119.049 422.793L178.768 316.353C181.404 311.657 186.103 308.792 191.159 308.792L426.371 308.792L426.371 323.938L193.081 323.938Z" fill="url(#paint7_linear_617_7950)"/>
<path d="M192.423 452.199C186.189 452.199 179.999 453.268 174.068 455.381L117.601 475.448C116.575 475.812 115.495 476 114.414 476L19.7158 476L19.7158 471.268L113.766 471.268C115.279 471.268 116.769 470.904 118.131 470.211L174.057 441.644C179.956 438.626 186.405 437.064 192.919 437.064L426.371 437.064L426.371 452.211L192.423 452.211L192.423 452.199Z" fill="url(#paint8_linear_617_7950)"/>
<path d="M192.919 433.832L187.583 433.832C184.58 433.832 181.62 434.583 178.93 436.027L118.206 468.646C116.791 469.409 115.235 469.797 113.658 469.797L23.5941 469.832L23.5941 465.053L113.064 465.053C115.019 465.053 116.932 464.443 118.584 463.304L178.227 422.008C181.36 419.835 185.001 418.685 188.728 418.685L426.371 418.685L426.371 433.832L192.909 433.832L192.919 433.832Z" fill="url(#paint9_linear_617_7950)"/>
<path d="M192.916 415.468L188.876 415.468C185.052 415.468 181.314 416.689 178.116 418.979L118.614 461.649C116.939 462.846 114.973 463.492 112.964 463.492L26.4106 463.492L26.4106 458.76L112.434 458.76C114.768 458.76 117.037 457.891 118.862 456.306L177.652 405.006C181.12 401.977 185.43 400.333 189.881 400.333L426.379 400.333L426.379 415.48L192.916 415.48L192.916 415.468Z" fill="url(#paint10_linear_617_7950)"/>
<path d="M192.916 397.116L190.043 397.116C185.495 397.116 181.087 398.842 177.587 401.989L118.895 454.78C117.058 456.436 114.746 457.34 112.348 457.34L30.9046 457.34L30.9046 452.608L111.884 452.608C114.552 452.608 117.112 451.481 119.035 449.461L177.328 387.969C180.968 384.13 185.851 381.969 190.929 381.969L426.379 381.969L426.379 397.116L192.916 397.116Z" fill="url(#paint11_linear_617_7950)"/>
<path d="M168.494 394.474L119.049 448.029C117.126 450.119 114.522 451.281 111.8 451.281L34.2566 451.281L34.2566 446.549L111.4 446.549C114.36 446.549 117.169 445.164 119.114 442.757L177.18 370.838C180.885 366.247 186.243 363.605 191.861 363.605L426.371 363.605L426.371 378.752L191.083 378.752C185.908 378.752 180.961 380.983 177.298 384.94L168.494 394.474Z" fill="url(#paint12_linear_617_7950)"/>
<path d="M193.081 360.388L191.99 360.388C186.286 360.388 180.874 363.088 177.169 367.797L119.114 441.336C117.169 443.802 114.328 445.222 111.346 445.222L40.76 445.41L40.76 440.443L110.979 440.443C114.177 440.443 117.191 438.823 119.135 436.064L178.66 351.44C181.404 347.542 185.671 345.241 190.186 345.241L426.371 345.241L426.371 360.388L193.081 360.388Z" fill="url(#paint13_linear_617_7950)"/>
<path d="M193.081 342.036L190.273 342.036C185.703 342.036 181.403 344.372 178.66 348.353L119.125 434.69C117.191 437.497 114.144 439.152 110.914 439.152L37.3246 439.152L37.3246 434.42L110.601 434.42C114.004 434.42 117.191 432.589 119.103 429.512L178.692 333.817C181.393 329.484 185.898 326.889 190.716 326.889L426.371 326.889L426.371 342.036L193.081 342.036Z" fill="url(#paint14_linear_617_7950)"/>
</g>
</g>
</g>
<defs>
<filter id="filter0_d_617_7950" x="0" y="-20" width="446.666" height="516" filterUnits="userSpaceOnUse" color-interpolation-filters="sRGB">
<feFlood flood-opacity="0" result="BackgroundImageFix"/>
<feColorMatrix in="SourceAlpha" type="matrix" values="0 0 0 0 0 0 0 0 0 0 0 0 0 0 0 0 0 0 127 0" result="hardAlpha"/>
<feMorphology radius="10" operator="erode" in="SourceAlpha" result="effect1_dropShadow_617_7950"/>
<feOffset/>
<feGaussianBlur stdDeviation="15"/>
<feComposite in2="hardAlpha" operator="out"/>
<feColorMatrix type="matrix" values="0 0 0 0 0 0 0 0 0 0 0 0 0 0 0 0 0 0 0.25 0"/>
<feBlend mode="normal" in2="BackgroundImageFix" result="effect1_dropShadow_617_7950"/>
<feBlend mode="normal" in="SourceGraphic" in2="effect1_dropShadow_617_7950" result="shape"/>
</filter>
<linearGradient id="paint0_linear_617_7950" x1="356.546" y1="278.123" x2="37.4613" y2="278.028" gradientUnits="userSpaceOnUse">
<stop offset="0.401885" stop-color="#E5E7EB"/>
<stop offset="0.999406" stop-color="#F9FAFB" stop-opacity="0"/>
</linearGradient>
<linearGradient id="paint1_linear_617_7950" x1="359.085" y1="290.813" x2="51.6067" y2="290.719" gradientUnits="userSpaceOnUse">
<stop offset="0.401885" stop-color="#E5E7EB"/>
<stop offset="0.999406" stop-color="#F9FAFB" stop-opacity="0"/>
</linearGradient>
<linearGradient id="paint2_linear_617_7950" x1="359.731" y1="303.541" x2="55.2024" y2="303.443" gradientUnits="userSpaceOnUse">
<stop offset="0.401885" stop-color="#E5E7EB"/>
<stop offset="0.999406" stop-color="#F9FAFB" stop-opacity="0"/>
</linearGradient>
<linearGradient id="paint3_linear_617_7950" x1="358.184" y1="316.216" x2="46.5516" y2="316.107" gradientUnits="userSpaceOnUse">
<stop offset="0.401885" stop-color="#E5E7EB"/>
<stop offset="0.999406" stop-color="#F9FAFB" stop-opacity="0"/>
</linearGradient>
<linearGradient id="paint4_linear_617_7950" x1="357.314" y1="328.823" x2="41.739" y2="328.702" gradientUnits="userSpaceOnUse">
<stop offset="0.401885" stop-color="#E5E7EB"/>
<stop offset="0.999406" stop-color="#F9FAFB" stop-opacity="0"/>
</linearGradient>
<linearGradient id="paint5_linear_617_7950" x1="360.753" y1="341.461" x2="60.8622" y2="341.343" gradientUnits="userSpaceOnUse">
<stop offset="0.401885" stop-color="#E5E7EB"/>
<stop offset="0.999406" stop-color="#F9FAFB" stop-opacity="0"/>
</linearGradient>
<linearGradient id="paint6_linear_617_7950" x1="360.256" y1="354.076" x2="58.0931" y2="353.945" gradientUnits="userSpaceOnUse">
<stop offset="0.401885" stop-color="#E5E7EB"/>
<stop offset="0.999406" stop-color="#F9FAFB" stop-opacity="0"/>
</linearGradient>
<linearGradient id="paint7_linear_617_7950" x1="360.098" y1="366.688" x2="57.2484" y2="366.543" gradientUnits="userSpaceOnUse">
<stop offset="0.401885" stop-color="#E5E7EB"/>
<stop offset="0.999406" stop-color="#F9FAFB" stop-opacity="0"/>
</linearGradient>
<linearGradient id="paint8_linear_617_7950" x1="356.538" y1="455.233" x2="37.4208" y2="454.72" gradientUnits="userSpaceOnUse">
<stop offset="0.401885" stop-color="#E5E7EB"/>
<stop offset="0.999406" stop-color="#F9FAFB" stop-opacity="0"/>
</linearGradient>
<linearGradient id="paint9_linear_617_7950" x1="357.204" y1="442.551" x2="41.1299" y2="442.168" gradientUnits="userSpaceOnUse">
<stop offset="0.401885" stop-color="#E5E7EB"/>
<stop offset="0.999406" stop-color="#F9FAFB" stop-opacity="0"/>
</linearGradient>
<linearGradient id="paint10_linear_617_7950" x1="357.694" y1="429.805" x2="43.824" y2="429.499" gradientUnits="userSpaceOnUse">
<stop offset="0.401885" stop-color="#E5E7EB"/>
<stop offset="0.999406" stop-color="#F9FAFB" stop-opacity="0"/>
</linearGradient>
<linearGradient id="paint11_linear_617_7950" x1="358.466" y1="417.139" x2="48.1223" y2="416.888" gradientUnits="userSpaceOnUse">
<stop offset="0.401885" stop-color="#E5E7EB"/>
<stop offset="0.999406" stop-color="#F9FAFB" stop-opacity="0"/>
</linearGradient>
<linearGradient id="paint12_linear_617_7950" x1="359.035" y1="404.517" x2="51.3279" y2="404.305" gradientUnits="userSpaceOnUse">
<stop offset="0.401885" stop-color="#E5E7EB"/>
<stop offset="0.999406" stop-color="#F9FAFB" stop-opacity="0"/>
</linearGradient>
<linearGradient id="paint13_linear_617_7950" x1="360.152" y1="391.982" x2="57.5481" y2="391.803" gradientUnits="userSpaceOnUse">
<stop offset="0.401885" stop-color="#E5E7EB"/>
<stop offset="0.999406" stop-color="#F9FAFB" stop-opacity="0"/>
</linearGradient>
<linearGradient id="paint14_linear_617_7950" x1="359.562" y1="379.274" x2="54.2623" y2="379.111" gradientUnits="userSpaceOnUse">
<stop offset="0.401885" stop-color="#E5E7EB"/>
<stop offset="0.999406" stop-color="#F9FAFB" stop-opacity="0"/>
</linearGradient>
<clipPath id="clip0_617_7950">
<rect x="20" width="406.667" height="476" rx="8" fill="white"/>
</clipPath>
</defs>
</svg>
