<svg width="126" height="76" viewBox="0 0 126 76" fill="none" xmlns="http://www.w3.org/2000/svg">
<path d="M89.6465 20.6105L103.122 0H125.86L101.016 38L125.861 76H103.122L89.6465 55.3895L76.1714 76H37.4575C16.8032 75.9999 7.30749e-05 58.9531 0 38C0 17.0468 16.8031 7.88326e-05 37.4575 0H76.1714L89.6465 20.6105ZM56.1332 19.7327H37.4575C27.5287 19.7328 19.4512 27.9274 19.4512 38C19.4512 48.0726 27.5288 56.2667 37.4575 56.2668H56.1332V71.8698L78.2771 38L56.1332 4.13023V19.7327ZM46.3246 31.9295C47.4814 31.9295 48.5247 32.3194 49.2622 33.0277C49.9993 33.7352 50.4054 34.732 50.4054 35.834C50.4054 37.6776 49.3076 39.1147 47.5804 39.5789H47.5799C48.083 40.5225 48.9785 41.13 50.0788 41.13L51.1129 41.1344V44.0729H49.9677C48.6348 44.0729 47.3799 43.6262 46.3388 42.7819C45.4174 42.0344 44.7335 41.0109 44.3892 39.8717V43.8316H41.3909V31.9295H46.3246ZM58.6521 31.9295V34.8749L54.5283 34.8832C54.1632 34.884 53.8672 35.1846 53.8649 35.5569C53.8649 35.9002 54.0059 36.1125 54.7491 36.2517L56.2458 36.541H56.2453C58.3634 36.9409 59.6797 38.3491 59.6798 40.2159C59.6798 40.6126 59.6118 41.0072 59.483 41.3826C59.2927 41.9374 58.9695 42.4514 58.5361 42.871C57.9704 43.4189 56.9494 44.0724 55.3009 44.0725H51.5941V41.1271L55.9231 41.1187C56.3247 41.1179 56.6497 40.786 56.6497 40.3765C56.6497 39.7539 55.9588 39.5514 55.6617 39.4933L54.1366 39.2049C52.1336 38.8135 50.8902 37.436 50.8901 35.6098C50.8901 35.2626 50.9344 34.9312 51.0218 34.6193C51.2114 33.9408 51.6039 33.3523 52.1841 32.8881C52.9561 32.2702 54.0069 31.9295 55.1432 31.9295H58.6521ZM37.2803 34.8592H32.2027V36.7452H35.9506V39.5785H32.2188V43.8316H29.2044V31.9295H37.2803V34.8592ZM40.849 43.8316H37.8188V31.9295H40.849V43.8316ZM68.0837 34.8754H65.105V43.8316H62.1062V34.8754H59.1266V31.9295H68.0837V34.8754ZM44.4049 37.0335H46.0725C46.8951 37.0335 47.4061 36.6015 47.4061 35.8502C47.4061 35.0989 46.9076 34.6507 46.0725 34.6507H44.4049V37.0335Z" fill="#000D1B"/>
</svg>
