<svg width="1" height="2" viewBox="0 0 1 2" fill="none" xmlns="http://www.w3.org/2000/svg">
<path d="M0.650905 0.0118357C0.635126 0.145962 0.591733 0.406323 0.528615 0.591733C0.51678 0.631182 0.501 0.670632 0.481275 0.702191C0.441826 0.788978 0.394488 0.848151 0.343205 0.903379C0.319535 0.930994 0.295866 0.954663 0.272197 0.982278C0.220913 1.0454 0.169629 1.12035 0.13018 1.23475C0.114401 1.27814 0.102567 1.32548 0.0907322 1.38071C0.0749527 1.4675 0.0631179 1.58585 0.0552282 1.71603V1.98822L0.0433925 2.00006H0V1.70025C0.0118347 1.57007 0.0197238 1.45172 0.0394483 1.36099C0.0512829 1.3097 0.0631176 1.26631 0.0749523 1.22686C0.118346 1.09668 0.173574 1.00989 0.228803 0.942828C0.252472 0.915214 0.272196 0.895489 0.291921 0.87182C0.343204 0.812646 0.390544 0.761364 0.429993 0.678521C0.501001 0.512836 0.564119 0.232749 0.591733 0.0118357C0.591733 1.02357e-06 0.603567 0 0.603567 0H0.643015V0.00788995L0.650905 0.0118357Z" fill="#475569"/>
</svg>
