<svg width="1" height="2" viewBox="0 0 1 2" fill="none" xmlns="http://www.w3.org/2000/svg">
<path d="M0.519247 0.00348563C0.519247 0.00348563 0.487884 0.345003 0.44258 0.58546C0.432126 0.627279 0.425156 0.665613 0.418186 0.700462C0.393792 0.798039 0.348488 0.857282 0.303184 0.91304C0.27879 0.940919 0.257881 0.965313 0.233486 0.989707C0.181213 1.04895 0.128941 1.11865 0.094092 1.23713C0.0801525 1.27895 0.069697 1.32774 0.0592424 1.3835C0.0487877 1.46365 0.0418182 1.58911 0.0418182 1.71108C0.0418182 1.81214 0.0418178 1.90972 0.0522724 1.97941V2.00032H0.0104542C-4.25167e-07 1.92714 0 1.81911 0 1.70759C0 1.58562 -2.66135e-07 1.45668 0.0174241 1.37304C0.0278788 1.32077 0.0348479 1.27895 0.0453025 1.23713C0.0836362 1.10122 0.14288 1.02456 0.198638 0.961828C0.219547 0.937434 0.240457 0.91304 0.261366 0.89213C0.30667 0.836372 0.348488 0.780614 0.372882 0.690007C0.421671 0.494853 0.460004 0.121971 0.470459 0.0209098V0H0.508793V0.00696992L0.519247 0.00348563Z" fill="#475569"/>
</svg>
