<svg width="1" height="2" viewBox="0 0 1 2" fill="none" xmlns="http://www.w3.org/2000/svg">
<path d="M0.543172 0.00719311C0.532381 0.0467619 0.5072 0.359715 0.45684 0.586336C0.446048 0.629502 0.438854 0.665474 0.428063 0.701445C0.399286 0.794972 0.35612 0.856124 0.305759 0.910081C0.284177 0.935261 0.258996 0.960442 0.237413 0.989219C0.183455 1.05037 0.133095 1.11872 0.0971235 1.23742C0.0827349 1.28059 0.0719439 1.32735 0.0611524 1.38131C0.0467638 1.46404 0.039569 1.58635 0.039569 1.71225V2.00002H0V1.70506C0 1.57915 0.0107914 1.45685 0.02518 1.37052C0.0359715 1.32016 0.0431659 1.27699 0.0575545 1.23742C0.0971233 1.10433 0.154678 1.02159 0.212233 0.956845C0.233815 0.931665 0.255399 0.910081 0.273385 0.888498C0.323745 0.83454 0.363313 0.776987 0.392091 0.687058C0.446048 0.500005 0.492811 0.147483 0.5072 0.0179855V0H0.546769V0.00719311H0.543172Z" fill="#475569"/>
</svg>
