<svg width="1" height="2" viewBox="0 0 1 2" fill="none" xmlns="http://www.w3.org/2000/svg">
<path d="M0.73436 0C0.704646 0.207998 0.653707 0.428731 0.585789 0.585791C0.56881 0.623994 0.547586 0.657953 0.526361 0.691912C0.475423 0.772564 0.424485 0.831993 0.369302 0.891421C0.343833 0.91689 0.322609 0.942359 0.301384 0.972073C0.250446 1.03999 0.199508 1.1164 0.157059 1.23101C0.144325 1.27346 0.127346 1.3244 0.114611 1.37958C0.093387 1.46872 0.0806522 1.58758 0.0679176 1.71917C0.0551831 1.80831 0.055182 1.9017 0.055182 1.99933H0C0 1.89745 -5.17886e-07 1.79133 0.0127341 1.69794C0.0254686 1.56211 0.0382034 1.4475 0.0594277 1.35411C0.0721623 1.30317 0.0848969 1.25648 0.0976315 1.21403C0.14008 1.08668 0.199509 0.997541 0.258936 0.925379C0.280161 0.89991 0.301384 0.874441 0.322608 0.853217C0.377792 0.793789 0.428731 0.738605 0.471179 0.666442C0.556076 0.517872 0.632484 0.28865 0.674932 0H0.73436Z" fill="#475569"/>
</svg>
