<svg width="1" height="2" viewBox="0 0 1 2" fill="none" xmlns="http://www.w3.org/2000/svg">
<path d="M0 0H0.040912C0.040912 0 0.0664855 -6.2397e-07 0.0664855 0.0153425C0.0971717 0.296633 0.168774 0.475637 0.255719 0.623954C0.311977 0.726241 0.368234 0.802956 0.434721 0.895015C0.434721 0.895015 0.43472 0.910358 0.450063 0.910358C0.537008 1.03822 0.613722 1.16608 0.664866 1.33996C0.680209 1.38599 0.690438 1.43202 0.700667 1.48317C0.731353 1.62637 0.741582 1.79003 0.736467 1.99972H0.695555C0.695555 1.99972 0.669982 1.99972 0.669982 1.98438C0.669982 1.79515 0.669983 1.6366 0.639297 1.50874C0.623954 1.45248 0.618839 1.40134 0.603496 1.35531C0.557467 1.19676 0.490978 1.07913 0.409148 0.961502C0.409148 0.946159 0.393804 0.941044 0.38869 0.930816C0.327317 0.843871 0.265945 0.762042 0.209687 0.659754C0.18923 0.61884 0.168771 0.577925 0.148313 0.531895C0.0869409 0.393807 0.0306845 0.230148 0.010227 0.00511546" fill="#475569"/>
</svg>
