<svg width="1" height="2" viewBox="0 0 1 2" fill="none" xmlns="http://www.w3.org/2000/svg">
<path d="M0.595908 0.00379496C0.584521 0.0948892 0.546566 0.37956 0.489632 0.584522C0.478245 0.626273 0.463063 0.664229 0.451676 0.698389C0.417516 0.785688 0.368173 0.846418 0.31883 0.903352C0.296056 0.929921 0.273283 0.95649 0.250509 0.983059C0.197371 1.04379 0.148028 1.1159 0.110073 1.23357C0.0948902 1.27532 0.083504 1.32466 0.0721172 1.3816C0.0569348 1.4651 0.0455473 1.58656 0.0417518 1.71181V2.00028H0V1.70422C0 1.57517 0.0151831 1.45371 0.0303654 1.36641C0.0417522 1.31707 0.0531391 1.27152 0.0645258 1.22977C0.106277 1.09693 0.163211 1.01342 0.220145 0.948898C0.242919 0.922329 0.261896 0.90335 0.284669 0.876781C0.334012 0.819847 0.379559 0.76671 0.41372 0.679411C0.478245 0.504814 0.531384 0.189779 0.554158 0.0113863C0.554158 -4.63075e-07 0.565544 0 0.565544 0H0.607296L0.599704 0.00759136L0.595908 0.00379496Z" fill="#454545"/>
</svg>
