<svg width="1" height="2" viewBox="0 0 1 2" fill="none" xmlns="http://www.w3.org/2000/svg">
<path d="M0.80508 0.00894553C0.769299 0.277305 0.70668 0.460685 0.630645 0.594865C0.608282 0.630646 0.58592 0.666427 0.563556 0.697736C0.509884 0.769298 0.451739 0.827443 0.393595 0.89006C0.371231 0.916896 0.344395 0.943732 0.322032 0.97504C0.26836 1.04213 0.219161 1.12264 0.178907 1.23446C0.165489 1.27918 0.147599 1.32838 0.134181 1.38205C0.111818 1.47598 0.093926 1.5878 0.080508 1.72198C0.0670901 1.80696 0.0670914 1.90088 0.0626187 1.99928H0C0 1.88746 0.0134184 1.78459 0.0178911 1.69514C0.031309 1.56096 0.0492002 1.44467 0.0760361 1.35074C0.0894541 1.30154 0.102872 1.25682 0.11629 1.21209C0.161017 1.08239 0.219162 0.992931 0.277306 0.921369C0.29967 0.894533 0.322032 0.867698 0.344395 0.845334C0.398067 0.782717 0.456212 0.729045 0.505411 0.661955C0.60381 0.532248 0.688791 0.348868 0.73799 0H0.755881L0.796135 0.0134191V0.00447362L0.80508 0.00894553Z" fill="#475569"/>
</svg>
