<svg width="88" height="88" viewBox="0 0 88 88" fill="none" xmlns="http://www.w3.org/2000/svg">
<g clip-path="url(#clip0_122_5727)">
<rect width="86.6796" height="86.6796" transform="translate(0.886719 0.927734)" fill="white"/>
<path d="M61.0013 42.459L55.2227 42.511L55.3267 53.8314L61.1053 53.7793L61.0013 42.459Z" fill="#475569"/>
<path d="M17.5003 34.0038L15.0502 41.8339L12.8485 38.4996L10.9011 41.9552L8.76301 35.46L0.886719 38.5516C0.886719 38.5516 5.95459 47.5894 8.10424 54.4024L11.7968 55.1132L13.3859 52.1199L15.524 55.2923L20.667 54.8994C21.7534 48.3291 23.3021 41.8397 25.3015 35.4889L17.5061 33.998L17.5003 34.0038Z" fill="#475569"/>
<path d="M29.3468 54.4256L29.8553 52.328L34.4204 52.2817L34.9925 54.1656C34.9925 54.1656 39.7021 53.9691 41.3779 53.9402L35.3739 37.4711L28.0177 36.2402C26.0414 42.302 24.5043 48.4967 23.4121 54.7781L29.3468 54.4198V54.4256ZM31.9529 43.2671H32.1668C32.5019 45.2434 33.3225 48.3407 33.3225 48.3407L30.8839 48.3638L31.9529 43.2671Z" fill="#475569"/>
<path d="M53.2576 53.796L53.2056 48.6993L48.3631 48.7455L48.2591 37.9395L42.4805 37.9972L42.6365 53.9001L53.2519 53.796H53.2576Z" fill="#475569"/>
<path d="M60.9911 41.0707L61.0085 37.4648L55.1836 37.9271L55.2125 41.1285L60.9911 41.0707Z" fill="#475569"/>
<path d="M70.3756 54.2697C70.3756 54.2697 72.6004 54.5009 73.9064 54.0328C75.247 53.5474 76.6397 52.6691 76.8997 50.0109C76.8997 50.0109 77.2291 47.3238 75.5418 45.6191C75.1199 45.2088 74.6172 44.8968 74.0624 44.7003V44.5501C74.8425 44.1398 75.432 43.4463 75.7209 42.6084C76.1023 41.5278 76.2063 40.3721 76.0214 39.2395C75.9694 38.3727 75.5475 37.5752 74.8599 37.0494C74.2184 36.6911 73.4846 36.5178 72.7449 36.564C72.7449 36.564 72.3924 36.5409 69.636 36.8009L63.1523 37.3845L63.3084 53.6803L70.3814 54.264L70.3756 54.2697ZM71.566 48.5316C71.566 48.8898 71.4216 49.2365 71.1731 49.4966C70.7628 49.7855 70.2774 49.9358 69.7747 49.9242L68.6074 49.9069L68.5785 46.9713C68.5785 46.9713 69.6186 46.9309 70.0116 46.9598C70.4854 46.954 70.942 47.1389 71.2713 47.4741C71.4909 47.7803 71.5949 48.1559 71.566 48.5316ZM69.5609 40.5859C69.7747 40.5628 69.9943 40.5686 70.2023 40.6148C70.5259 40.713 70.7628 40.9904 70.8148 41.3256C70.8784 41.707 70.8322 42.0941 70.6819 42.4466C70.4912 42.7702 70.1792 43.0014 69.8093 43.0765C69.3933 43.169 68.9714 43.2268 68.5438 43.2499L68.5207 40.713L69.5551 40.5801L69.5609 40.5859Z" fill="#475569"/>
<path d="M77.9615 54.519C77.9615 54.519 83.6361 55.2124 84.7225 55.3337C84.9421 50.2196 85.4564 45.1287 86.2654 40.0781L78.4989 40.916C78.4989 40.916 77.8343 48.33 77.9615 54.5247V54.519Z" fill="#475569"/>
<path d="M79.1469 35.9345C79.1469 35.9345 78.8176 37.6738 78.6211 39.7715L86.4743 38.7776C86.4743 38.7776 86.977 35.9749 87.5664 33.2012L79.1469 35.9287V35.9345Z" fill="#475569"/>
</g>
<defs>
<clipPath id="clip0_122_5727">
<rect width="86.6796" height="86.6796" fill="white" transform="translate(0.886719 0.927734)"/>
</clipPath>
</defs>
</svg>
